<?xml version="1.0" encoding="utf-8"?>
<!-- Generator: Adobe Illustrator 26.0.1, SVG Export Plug-In . SVG Version: 6.00 Build 0)  -->
<svg version="1.1" id="Layer_1" xmlns="http://www.w3.org/2000/svg" xmlns:xlink="http://www.w3.org/1999/xlink" x="0px" y="0px"
	 viewBox="0 0 420 490" style="enable-background:new 0 0 420 490;" xml:space="preserve">
<style type="text/css">
	.st0{fill:none;stroke:#045887;stroke-width:11;stroke-miterlimit:10;}
	.st1{fill:#045887;}
	.st2{fill:#FFFFFF;}
</style>
<g>
	<rect x="26.5" y="241.2" class="st0" width="67" height="155.5"/>
	<rect x="126" y="194.8" class="st0" width="67" height="201.9"/>
	<rect x="222.7" y="135.5" class="st0" width="67" height="261.2"/>
	<rect x="317.4" y="93.4" class="st0" width="67" height="303.3"/>
	<g>
		<g>
			<g>
				<path class="st1" d="M108.1,336.6c-31.3,0-58.5-6.3-80.7-18.7c-2.9-1.6-5.1-4.3-6-7.6c-0.9-3.2-0.5-6.7,1.1-9.6
					c2.2-4,6.4-6.5,11-6.5c2.2,0,4.3,0.6,6.2,1.6c18.5,10.4,41.8,15.6,69.2,15.6c35.7,0,76.3-9.2,117.4-26.5
					c33.2-14,63.1-32.2,86.7-52.4c14.7-12.6,28-33.8,37-51.7l-24.7,13l-11.7-22.4l65-34.1l29.3,67.2l-23.2,10.1l-11-25.3
					c-10,20.2-25.9,46.5-44.2,62.2c-25.5,21.9-57.8,41.5-93.3,56.5c-36.8,15.6-74.5,25.1-109.1,27.7
					C120.6,336.4,114.3,336.6,108.1,336.6z"/>
				<path class="st2" d="M374.6,148.3l22.7,52.3l-8.7,3.8l-14.9-34.3c-8,19.5-27,56.3-49.5,75.6c-24.9,21.4-56.4,40.5-91.2,55.2
					c-36,15.2-72.9,24.6-106.6,27.1c-6.3,0.5-12.4,0.7-18.3,0.7c-30,0-55.8-5.9-76.9-17.7c-2.3-1.3-3.1-4.2-1.8-6.5
					c0.9-1.6,2.5-2.4,4.1-2.4c0.8,0,1.6,0.2,2.3,0.6c19.8,11.1,44.8,16.6,73,16.6c36.3,0,77.8-9.1,120.4-27.2
					c33.9-14.4,64.6-32.9,88.8-53.7c22.5-19.3,41.2-56,48-75l-37.6,19.7l-4.4-8.4L374.6,148.3 M382.3,126.5l-15,7.9l-50.5,26.5
					l-13.9,7.3l7.3,13.9l4.4,8.4l7.3,14l7.8-4.1c-6.6,10-14,19.4-21.9,26.2c-22.9,19.7-52.2,37.4-84.6,51.1
					c-40.1,17-79.6,25.9-114.3,25.9c-25.7,0-48.2-5.1-65.3-14.6c-3.1-1.7-6.5-2.6-10-2.6c-7.4,0-14.3,4-17.9,10.5
					c-2.7,4.8-3.3,10.3-1.8,15.6c1.5,5.3,4.9,9.7,9.7,12.3c23.4,13.1,51.8,19.7,84.5,19.7c6.3,0,12.9-0.2,19.5-0.7
					c35.4-2.6,74-12.4,111.6-28.3c36.3-15.4,69.3-35.3,95.4-57.8c15.8-13.6,29-33.3,38.3-50l1.3,3l6.3,14.4l14.4-6.3l8.7-3.8
					l14.4-6.3l-6.3-14.4L389.1,142L382.3,126.5L382.3,126.5z"/>
			</g>
		</g>
	</g>
</g>
</svg>
