<?xml version="1.0" encoding="utf-8"?>
<!-- Generator: Adobe Illustrator 26.0.1, SVG Export Plug-In . SVG Version: 6.00 Build 0)  -->
<svg version="1.1" id="Layer_1" xmlns="http://www.w3.org/2000/svg" xmlns:xlink="http://www.w3.org/1999/xlink" x="0px" y="0px"
	 viewBox="0 0 420 490" style="enable-background:new 0 0 420 490;" xml:space="preserve">
<style type="text/css">
	.st0{fill:none;stroke:#045887;stroke-width:11;stroke-miterlimit:10;}
	.st1{fill:#045887;stroke:#045887;stroke-miterlimit:10;}
	.st2{font-family:'ErasITC-Bold';}
	.st3{font-size:95.9964px;}
	.st4{fill:none;stroke:#045887;stroke-width:10;stroke-miterlimit:10;}
</style>
<path class="st0" d="M98.62,58.69c0,0,22.29-51.47,72.07-30.56"/>
<path class="st0" d="M165.42,27.25c0,0,40.42-38.76,78.24-0.1"/>
<path class="st0" d="M239.13,24.27c0,0,52.23-19.99,72.15,30.37"/>
<path class="st0" d="M308.22,50.23c0,0,55.86,1.91,54.78,56.09"/>
<path class="st0" d="M361.88,101.06c0,0,50.75,23.51,28.83,73.03"/>
<path class="st0" d="M391.72,168.81c0,0,37.7,41.44-1.62,78.54"/>
<path class="st0" d="M393.05,242.87c0,0,18.75,52.87-31.83,71.76"/>
<path class="st0" d="M349.72,332.51c0,0-10.3,55.16-63.47,45.93"/>
<path class="st0" d="M291.59,378.12c0,0-30.8,46.84-76.24,17.62"/>
<path class="st0" d="M220.39,397.53c0,0-46.48,31.18-77.08-13.45"/>
<path class="st0" d="M147.28,387.69c0,0-54.88,10.64-65.86-42.41"/>
<path class="st0" d="M83.68,350.16c0,0-54.7-11.56-44.33-64.73"/>
<path class="st0" d="M39.55,290.8c0,0-45.96-31.95-15.86-76.93"/>
<path class="st0" d="M21.8,218.9c0,0-30.02-47.34,15.09-77.08"/>
<path class="st0" d="M33.2,145.71c0,0-9.39-55.33,43.68-65.18"/>
<path class="st0" d="M88.16,139.92c22.36-43.65,66.19-71.9,114.3-73.45c52.36-1.68,101.41,28.55,124.58,76.89"/>
<path class="st0" d="M88.16,276.64c22.36,43.65,66.19,71.9,114.3,73.45c52.36,1.68,101.41-28.55,124.58-76.89"/>
<text transform="matrix(0.8418 0 0 1 53.3169 241.7383)" class="st1 st2 st3">BRAND</text>
<polyline class="st4" points="60.86,423.39 81.42,423.39 114.35,473.89 159.11,400.2 "/>
<path class="st4" d="M60.86,423.39"/>
<polyline class="st4" points="60.86,340.06 13.47,423.39 36.89,423.39 "/>
<polyline class="st4" points="349.72,340.06 409.64,420.75 341.69,420.75 308.76,471.25 264,397.56 "/>
</svg>
