<?xml version="1.0" encoding="utf-8"?>
<!-- Generator: Adobe Illustrator 26.0.1, SVG Export Plug-In . SVG Version: 6.00 Build 0)  -->
<svg version="1.1" id="Layer_1" xmlns="http://www.w3.org/2000/svg" xmlns:xlink="http://www.w3.org/1999/xlink" x="0px" y="0px"
	 viewBox="0 0 420 490" style="enable-background:new 0 0 420 490;" xml:space="preserve">
<style type="text/css">
	.st0{fill:#045887;}
</style>
<path class="st0" d="M209.4,53.4V155c-25.8-0.4-48.4-4.3-67.4-9.6c-1.5-0.4-3.1-0.9-4.6-1.4c11.1-20.9,24.2-39,36.2-53.4
	C186.3,75.6,198.9,63,209.4,53.4z"/>
<path class="st0" d="M68.3,112.2c-2.9-1.9-5.6-3.8-8.1-5.5c35.3-38.3,84.9-63.2,140.3-65.5c-11.1,10-24.5,23.3-38,39.5
	c-15.9,19.1-29.2,38.7-39.5,58.6C100.3,131.1,81.8,121,68.3,112.2z"/>
<path class="st0" d="M96,236.9H6.5c1.9-45.7,18.6-87.5,45.5-120.7c14.3,10.3,36.4,23.7,65.4,34.3C104.2,179.2,96.9,208.2,96,236.9z"
	/>
<path class="st0" d="M209.4,251.9v71.7c-1.7,0-3.4,0-5.1,0c-24.3,0-48.2,3.1-71.5,9.2c-13.3-26.5-20.5-53.5-21.8-80.8L209.4,251.9
	L209.4,251.9z"/>
<path class="st0" d="M209.4,336.2v93.1c-30.7-27.9-54.3-56.3-70.6-85.3C158.8,339.1,182.5,335.7,209.4,336.2z"/>
<path class="st0" d="M118.2,337c-29.9,9.5-53.3,22.5-69.4,33.3C23.4,337.4,7.8,296.4,6.5,251.9H96C97.2,280.8,104.6,309.1,118.2,337
	z"/>
<path class="st0" d="M209.4,449.4v0.3c-60.8,0-115.5-26.9-152.7-69.7c0.5-0.4,1.1-0.7,1.6-1c15.7-10.2,37.9-22.1,65.6-30.8
	C142.9,382.8,171.5,416.6,209.4,449.4z"/>
<path class="st0" d="M209.4,167.6v69.4H111c1.1-29.8,9.4-57.3,20.9-81.5c2.1,0.6,4.1,1.3,6.3,1.9
	C161.4,163.7,185.2,167.1,209.4,167.6z"/>
<path class="st0" d="M380.7,268l-1.6-31.9l16.2-8.2L415,220l-5.9-22.8l0,0l0,0l-1.6-6.2l-34.2,1.4l-15.3-28l11-14.5l14.3-15.8
	L368,116.3l0,0l0,0l-4.1-4.9l-30.1,16.3l-22-15.6l12.4-36.9l-26.8-13.1l-0.2,0.3l-1.4-0.9l-21.2,27.4l-29.5-6.1L241.3,65l-2.7-21.2
	h-20.7V115c11.2,0.4,22.1,2.2,32.7,5.4c0.9,0.3,1.8,0.5,2.6,0.8c0.3,0.1,0.5,0.2,0.8,0.3c0.9,0.3,1.7,0.6,2.6,0.9
	c0.2,0.1,0.5,0.2,0.6,0.3c0.9,0.4,1.9,0.7,2.8,1c0.1,0.1,0.3,0.1,0.4,0.2c15.3,5.9,29.2,14.6,41,25.5l0,0
	c14.9,13.6,26.2,30.2,33.5,48.5l0,0c7.5,18.7,10.4,38.7,9.1,58.3l0,0c-1.4,20.2-7.4,39.4-17.1,56.5l0,0
	c-10,17.5-23.8,32.2-39.9,43.3l0,0c-16.6,11.3-35.4,18.5-54.7,21.4l0,0c-4.8,0.7-9.6,1.2-14.4,1.3v71.1l4-0.1l6.7-33.8l30.6-8.5
	l11.4,14.1l12,17.6l20.8-10.7l0,0l0,0l5.8-3l-8.6-33.3l23.8-21l16.4,7.6l18.4,10.6l14-18.8l0,0l0,0l3.9-5.1l-22.2-26.2l12.3-29.3
	l18.1-0.3l21.1,1.5l4.5-23l0,0l0,0l1.3-6.3L380.7,268z"/>
</svg>
