<?xml version="1.0" encoding="utf-8"?>
<!-- Generator: Adobe Illustrator 26.0.1, SVG Export Plug-In . SVG Version: 6.00 Build 0)  -->
<svg version="1.1" id="Layer_1" xmlns="http://www.w3.org/2000/svg" xmlns:xlink="http://www.w3.org/1999/xlink" x="0px" y="0px"
	 viewBox="0 0 420 490" style="enable-background:new 0 0 420 490;" xml:space="preserve">
<style type="text/css">
	.st0{fill:none;stroke:#A8D3E2;stroke-width:11;stroke-miterlimit:10;}
	.st1{fill:none;stroke:#045887;stroke-width:11;stroke-miterlimit:10;}
	.st2{fill:#FFFFFF;stroke:#045887;stroke-width:11;stroke-miterlimit:10;}
</style>
<path class="st0" d="M60.2,302.8c0,163.9,299.9,163.9,299.9,0"/>
<path class="st1" d="M42.2,238.1c0-198.2,331.4-198.2,331.4,0"/>
<rect x="19.5" y="224.6" class="st2" width="53" height="52.7"/>
<rect x="346.6" y="224.6" class="st2" width="53" height="52.7"/>
<ellipse class="st1" cx="47.9" cy="89.5" rx="21.4" ry="21.3"/>
<ellipse class="st1" cx="373.1" cy="89.5" rx="21.4" ry="21.3"/>
<line class="st1" x1="72.5" y1="89.5" x2="346.6" y2="89.5"/>
<rect x="183.6" y="63.1" class="st2" width="53" height="52.7"/>
<path class="st1" d="M239.5,324.4c0,0,10.8-34.9,34.3-54.8c0,0-52.1-83.2-50.6-108.7h-13.1h-13.1c1.5,25.4-50.6,108.7-50.6,108.7
	c23.6,19.9,34.9,54.8,34.9,54.8"/>
<line class="st1" x1="210.1" y1="160.9" x2="210.1" y2="258.6"/>
<line class="st1" x1="198.3" y1="263.1" x2="221.9" y2="263.1"/>
<rect x="169.9" y="346.6" class="st2" width="80.3" height="79.9"/>
<rect x="175.1" y="321" class="st1" width="68.9" height="20"/>
</svg>
