<?xml version="1.0" encoding="utf-8"?>
<!-- Generator: Adobe Illustrator 26.0.1, SVG Export Plug-In . SVG Version: 6.00 Build 0)  -->
<svg version="1.1" id="Layer_1" xmlns="http://www.w3.org/2000/svg" xmlns:xlink="http://www.w3.org/1999/xlink" x="0px" y="0px"
	 viewBox="0 0 420 490" style="enable-background:new 0 0 420 490;" xml:space="preserve">
<style type="text/css">
	.st0{fill:none;stroke:#045887;stroke-width:20;stroke-linecap:square;stroke-linejoin:round;stroke-miterlimit:10;}
	.st1{fill:#FFFFFF;}
	.st2{fill:#045887;}
	.st3{fill:none;stroke:#045887;stroke-width:11;stroke-linecap:round;stroke-linejoin:round;stroke-miterlimit:10;}
	.st4{fill:none;stroke:#045887;stroke-width:11;stroke-linecap:round;stroke-miterlimit:10;}
</style>
<line class="st0" x1="81.2" y1="264.4" x2="155.1" y2="362.5"/>
<g>
	<path class="st1" d="M56,270.6c-21.9,0-39.8-17.9-39.8-39.8S34.1,191,56,191c21.9,0,39.8,17.9,39.8,39.8S77.9,270.6,56,270.6z"/>
	<path class="st2" d="M56,204.5c14.5,0,26.3,11.8,26.3,26.3c0,14.5-11.8,26.3-26.3,26.3s-26.3-11.8-26.3-26.3
		C29.7,216.3,41.5,204.5,56,204.5 M56,177.5c-29.4,0-53.3,23.9-53.3,53.3s23.9,53.3,53.3,53.3s53.3-23.9,53.3-53.3
		S85.4,177.5,56,177.5L56,177.5z"/>
</g>
<path class="st3" d="M18.8,234.1c0,3.3,0,39.1,42.4,35.8s172.2-2.5,225.5,66.6V231.6V126.8c-53.3,69.1-183.1,69.9-225.5,66.6
	c-42.4-3.3-42.4,32.4-42.4,35.8"/>
<polygon class="st2" points="91.8,198.9 91.8,261 182.7,278.7 182.7,184.6 "/>
<line class="st4" x1="386.9" y1="117.9" x2="325.3" y2="178.9"/>
<line class="st4" x1="412" y1="230.8" x2="325.3" y2="230.8"/>
<line class="st4" x1="386.9" y1="347.5" x2="325.3" y2="286.5"/>
</svg>
