<?xml version="1.0" encoding="utf-8"?>
<!-- Generator: Adobe Illustrator 26.0.1, SVG Export Plug-In . SVG Version: 6.00 Build 0)  -->
<svg version="1.1" id="Layer_1" xmlns="http://www.w3.org/2000/svg" xmlns:xlink="http://www.w3.org/1999/xlink" x="0px" y="0px"
	 viewBox="0 0 420 490" style="enable-background:new 0 0 420 490;" xml:space="preserve">
<style type="text/css">
	.st0{fill:#045887;}
	.st1{fill:#FFFFFF;}
</style>
<g>
	<g>
		<path class="st0" d="M183.4,109.2c5.6,0,10.2,4.6,10.2,10.2v148c0,5.6-4.6,10.2-10.2,10.2h-73.2c-5.6,0-10.2-4.6-10.2-10.2v-148
			c0-5.6,4.6-10.2,10.2-10.2H183.4 M183.4,101.4h-73.2c-9.9,0-18,8.1-18,18v148c0,9.9,8.1,18,18,18h73.2c9.9,0,18-8.1,18-18v-148
			C201.4,109.5,193.4,101.4,183.4,101.4L183.4,101.4z"/>
	</g>
	<g>
		<path class="st0" d="M244,105.8c1.3,0,2.6,0.2,3.8,0.8l84.9,36.1c5,2.1,7.3,7.9,5.2,12.9L280,292.5c-1.6,3.7-5.2,6-9,6
			c-1.3,0-2.6-0.2-3.8-0.8l-84.9-36.1c-5-2.1-7.3-7.9-5.2-12.9L235,111.8C236.5,108.1,240.2,105.8,244,105.8 M244,98L244,98
			c-7.1,0-13.5,4.2-16.2,10.8l-57.9,136.9c-3.8,8.9,0.4,19.3,9.3,23.1l84.9,36.1c2.2,0.9,4.5,1.4,6.9,1.4c7.1,0,13.5-4.2,16.2-10.8
			l57.9-136.9c3.8-8.9-0.4-19.3-9.3-23.1l-84.9-36.1C248.7,98.5,246.4,98,244,98L244,98z"/>
	</g>
	<path class="st0" d="M272.7,384.2H36.6C21.3,384.2,9,371.9,9,356.6V184.4c0-15.2,12.3-27.6,27.6-27.6h236.2
		c15.2,0,27.6,12.3,27.6,27.6v172.2C300.3,371.9,287.9,384.2,272.7,384.2z"/>
	<g>
		<path class="st0" d="M80.2,388.1c-16.8,0-30.4-13.7-30.4-30.5v-0.8L111,219.1c0.5-16.4,13.9-29.6,30.4-29.6h238.3
			c16.8,0,30.4,13.7,30.4,30.5v0.8l-61.2,137.7c-0.5,16.4-13.9,29.6-30.4,29.6H80.2z"/>
		<path class="st1" d="M379.7,193.4c14.6,0,26.5,11.9,26.5,26.6L345,357.6c0,14.7-11.9,26.6-26.5,26.6H80.2
			c-14.6,0-26.5-11.9-26.5-26.6l61.2-137.7c0-14.7,11.9-26.6,26.5-26.6H379.7 M379.7,185.6H141.4c-18.3,0-33.3,14.5-34.2,32.6
			L46.5,354.5l-0.7,1.5v1.7c0,18.9,15.4,34.4,34.3,34.4h238.3c18.3,0,33.3-14.5,34.2-32.6l60.6-136.3l0.7-1.5v-1.7
			C414,201,398.6,185.6,379.7,185.6L379.7,185.6z"/>
	</g>
	<path class="st0" d="M104.6,166.6H88.3c-4.2,0-7.6-3.4-7.6-7.6v-13.5c0-4.2,3.4-7.6,7.6-7.6h16.2c4.2,0,7.6,3.4,7.6,7.6v13.5
		C112.2,163.1,108.8,166.6,104.6,166.6z"/>
	<path class="st0" d="M205.5,166.6h-16.2c-4.2,0-7.6-3.4-7.6-7.6v-13.5c0-4.2,3.4-7.6,7.6-7.6h16.2c4.2,0,7.6,3.4,7.6,7.6v13.5
		C213.1,163.1,209.7,166.6,205.5,166.6z"/>
</g>
</svg>
