<?xml version="1.0" encoding="utf-8"?>
<!-- Generator: Adobe Illustrator 26.0.1, SVG Export Plug-In . SVG Version: 6.00 Build 0)  -->
<svg version="1.1" id="Layer_1" xmlns="http://www.w3.org/2000/svg" xmlns:xlink="http://www.w3.org/1999/xlink" x="0px" y="0px"
	 viewBox="0 0 420 490" style="enable-background:new 0 0 420 490;" xml:space="preserve">
<style type="text/css">
	.st0{fill:none;stroke:#045887;stroke-width:11;stroke-miterlimit:10;}
	.st1{fill:#045887;}
	.st2{fill:none;stroke:#045887;stroke-width:11;stroke-linecap:round;stroke-miterlimit:10;}
</style>
<g>
	<path class="st0" d="M374.3,344.9H31.2c-12.1,0-21.9-9.8-21.9-21.9V125.1c0-12.1,9.8-21.9,21.9-21.9h343.1
		c12.1,0,21.9,9.8,21.9,21.9V323C396.2,335.1,386.4,344.9,374.3,344.9z"/>
	<rect x="83.1" y="71" class="st1" width="19" height="58.7"/>
	<g>
		<polygon class="st1" points="68.5,122.7 92.5,164.3 116.6,122.7 		"/>
	</g>
	<line class="st2" x1="45.3" y1="208.5" x2="126.2" y2="209.4"/>
	<line class="st2" x1="45.3" y1="246.8" x2="169.1" y2="246.8"/>
	<line class="st2" x1="45.3" y1="285.2" x2="165.2" y2="285.2"/>
	<line class="st2" x1="169.1" y1="351.7" x2="169.1" y2="409.2"/>
	<line class="st2" x1="240.2" y1="351.7" x2="240.2" y2="409.2"/>
	<line class="st2" x1="102" y1="419" x2="307.5" y2="419"/>
	<line class="st2" x1="314.3" y1="259.1" x2="414.7" y2="359.5"/>
	<circle class="st2" cx="272.4" cy="217.2" r="51.7"/>
</g>
</svg>
