<?xml version="1.0" encoding="UTF-8"?>
<svg id="Layer_1" data-name="Layer 1" xmlns="http://www.w3.org/2000/svg" xmlns:xlink="http://www.w3.org/1999/xlink" viewBox="0 0 649 649">
  <defs>
    <style>
      .cls-1 {
        fill: #b28d93;
      }

      .cls-2 {
        fill: #fff;
      }

      .cls-3 {
        stroke: #ffbf94;
      }

      .cls-3, .cls-4, .cls-5, .cls-6, .cls-7, .cls-8, .cls-9, .cls-10, .cls-11, .cls-12, .cls-13, .cls-14, .cls-15 {
        fill: none;
      }

      .cls-3, .cls-4, .cls-5, .cls-6, .cls-7, .cls-8, .cls-9, .cls-11, .cls-12, .cls-13, .cls-14, .cls-15 {
        stroke-linecap: round;
        stroke-linejoin: round;
      }

      .cls-3, .cls-4, .cls-5, .cls-7, .cls-8, .cls-9, .cls-11, .cls-13, .cls-14 {
        stroke-width: 1.8px;
      }

      .cls-4 {
        stroke: #896068;
      }

      .cls-16 {
        fill: #896068;
      }

      .cls-17 {
        fill: #b0d7c0;
      }

      .cls-5 {
        stroke: #6dafa7;
      }

      .cls-6 {
        stroke-width: 4px;
      }

      .cls-6, .cls-9, .cls-15 {
        stroke: #22272e;
      }

      .cls-18 {
        fill: #6dafa7;
      }

      .cls-19 {
        fill: #ffe779;
      }

      .cls-7, .cls-12 {
        stroke: #b8d8c7;
      }

      .cls-20 {
        clip-path: url(#clippath-1);
      }

      .cls-21 {
        fill: #ffbf94;
      }

      .cls-22 {
        fill: #e86484;
      }

      .cls-23 {
        fill: #f8ab5d;
      }

      .cls-8 {
        stroke: #e26e85;
      }

      .cls-24 {
        fill: #63737a;
      }

      .cls-25 {
        fill: #ffe7ca;
      }

      .cls-26 {
        clip-path: url(#clippath);
      }

      .cls-27 {
        fill: #22272e;
      }

      .cls-11 {
        stroke: #fff;
      }

      .cls-28 {
        fill: #e26e85;
      }

      .cls-29 {
        fill: #f4c2c9;
      }

      .cls-30 {
        fill: #b8d8c7;
      }

      .cls-12 {
        stroke-width: 1.8px;
      }

      .cls-13 {
        stroke: #63737a;
      }

      .cls-14 {
        stroke: #f8ab5d;
      }

      .cls-31 {
        fill: #eaf9f3;
      }

      .cls-15 {
        stroke-width: 1.8px;
      }
    </style>
    <clipPath id="clippath">
      <rect class="cls-10" x="69.94" y="69.94" width="509.12" height="509.12" rx="89.44" ry="89.44" transform="translate(-134.41 324.5) rotate(-45)"/>
    </clipPath>
    <clipPath id="clippath-1">
      <path class="cls-10" d="m536.2,468.41l-404.97-11.6c-18.85-.55-34.34-14.95-36.21-33.72l-19.55-193.14c-2.18-21.88,14.8-40.96,36.76-41.28l450.76-6.23c22.74-.31,40.57,19.55,37.77,42.13l-26.25,211.05c-2.41,19.16-19,33.41-38.32,32.79Z"/>
    </clipPath>
  </defs>
  <g class="cls-26">
    <rect class="cls-31" x="69.94" y="69.94" width="509.12" height="509.12" rx="89.44" ry="89.44" transform="translate(-134.41 324.5) rotate(-45)"/>
    <rect class="cls-10" x="69.94" y="69.94" width="509.12" height="509.12" rx="89.44" ry="89.44" transform="translate(-134.41 324.5) rotate(-45)"/>
    <g>
      <g>
        <path class="cls-31" d="m536.2,468.41l-404.97-11.6c-18.85-.55-34.34-14.95-36.21-33.72l-19.55-193.14c-2.18-21.88,14.8-40.96,36.76-41.28l450.76-6.23c22.74-.31,40.57,19.55,37.77,42.13l-26.25,211.05c-2.41,19.16-19,33.41-38.32,32.79Z"/>
        <g class="cls-20">
          <g>
            <path class="cls-7" d="m205.68,503.54H-117.9c-6.46,0-11.68-5.22-11.68-11.68v-183.56c0-6.46,5.22-11.68,11.68-11.68H205.68c6.46,0,11.68,5.22,11.68,11.68v183.48c0,6.46-5.22,11.76-11.68,11.76Z"/>
            <path class="cls-7" d="m633.31,491.15h-326.39c-6.46,0-11.68-5.22-11.68-11.68V211.33c0-6.46,5.22-11.68,11.68-11.68h326.39c6.46,0,11.68,5.22,11.68,11.68v268.14c0,6.46-5.22,11.68-11.68,11.68Z"/>
            <g>
              <path class="cls-7" d="m116.28,296.61h-15.81c-1.71,0-3.12-1.25-3.35-2.96l-1.25-11.21c-.23-1.95,1.32-3.74,3.35-3.74h18.3c2.02,0,3.5,1.71,3.35,3.74l-1.25,11.21c-.23,1.71-1.64,2.96-3.35,2.96Z"/>
              <path class="cls-30" d="m106.46,278.78s-6.23-.62-7.48-9.03c0,0,5.61,1.64,7.4,5.61,0,0,.78-8.88,4.98-9.73,0,0,1.87,6.62-1.09,9.89,0,0,2.26-3.74,8.02-3.66,0,0-1.48,5.3-7.16,6.85"/>
            </g>
            <g>
              <path class="cls-7" d="m203.27,335.32h-70.25c-1.79,0-3.27-1.48-3.27-3.27v-21.34c0-1.79,1.48-3.27,3.27-3.27h70.25c1.79,0,3.27,1.48,3.27,3.27v21.34c0,1.79-1.48,3.27-3.27,3.27Z"/>
              <path class="cls-30" d="m176.17,314.99h-16.2c-.62,0-1.17-.55-1.17-1.17h0c0-.62.55-1.17,1.17-1.17h16.2c.62,0,1.17.55,1.17,1.17h0c0,.62-.47,1.17-1.17,1.17Z"/>
            </g>
            <g>
              <path class="cls-7" d="m203.27,370.99h-70.25c-1.79,0-3.27-1.48-3.27-3.27v-21.34c0-1.79,1.48-3.27,3.27-3.27h70.25c1.79,0,3.27,1.48,3.27,3.27v21.34c0,1.79-1.48,3.27-3.27,3.27Z"/>
              <path class="cls-30" d="m176.17,350.66h-16.2c-.62,0-1.17-.55-1.17-1.17h0c0-.62.55-1.17,1.17-1.17h16.2c.62,0,1.17.55,1.17,1.17h0c0,.62-.47,1.17-1.17,1.17Z"/>
            </g>
            <g>
              <path class="cls-7" d="m563.92,396.22h-70.25c-1.79,0-3.27-1.48-3.27-3.27v-21.34c0-1.79,1.48-3.27,3.27-3.27h70.25c1.79,0,3.27,1.48,3.27,3.27v21.34c.08,1.79-1.4,3.27-3.27,3.27Z"/>
              <path class="cls-30" d="m536.9,375.81h-16.2c-.62,0-1.17-.55-1.17-1.17h0c0-.62.55-1.17,1.17-1.17h16.2c.62,0,1.17.55,1.17,1.17h0c0,.7-.55,1.17-1.17,1.17Z"/>
            </g>
            <g>
              <path class="cls-7" d="m473.74,396.22h-70.25c-1.79,0-3.27-1.48-3.27-3.27v-21.34c0-1.79,1.48-3.27,3.27-3.27h70.25c1.79,0,3.27,1.48,3.27,3.27v21.34c.08,1.79-1.4,3.27-3.27,3.27Z"/>
              <path class="cls-30" d="m446.72,375.81h-16.2c-.62,0-1.17-.55-1.17-1.17h0c0-.62.55-1.17,1.17-1.17h16.2c.62,0,1.17.55,1.17,1.17h0c0,.7-.55,1.17-1.17,1.17Z"/>
            </g>
            <g>
              <path class="cls-7" d="m113.71,335.32H43.46c-1.79,0-3.27-1.48-3.27-3.27v-21.34c0-1.79,1.48-3.27,3.27-3.27h70.25c1.79,0,3.27,1.48,3.27,3.27v21.34c0,1.79-1.48,3.27-3.27,3.27Z"/>
              <path class="cls-30" d="m86.61,314.99h-16.2c-.62,0-1.17-.55-1.17-1.17h0c0-.62.55-1.17,1.17-1.17h16.2c.62,0,1.17.55,1.17,1.17h0c0,.62-.47,1.17-1.17,1.17Z"/>
            </g>
            <g>
              <path class="cls-7" d="m113.71,370.99H43.46c-1.79,0-3.27-1.48-3.27-3.27v-21.34c0-1.79,1.48-3.27,3.27-3.27h70.25c1.79,0,3.27,1.48,3.27,3.27v21.34c0,1.79-1.48,3.27-3.27,3.27Z"/>
              <path class="cls-30" d="m86.61,350.66h-16.2c-.62,0-1.17-.55-1.17-1.17h0c0-.62.55-1.17,1.17-1.17h16.2c.62,0,1.17.55,1.17,1.17h0c0,.62-.47,1.17-1.17,1.17Z"/>
            </g>
            <path class="cls-7" d="m666.26,281.35h-354.35c-1.95,0-3.58-1.64-3.58-3.58v-62.07c0-1.95,1.64-3.58,3.58-3.58h354.35c1.95,0,3.58,1.64,3.58,3.58v62.07c0,1.95-1.64,3.58-3.58,3.58Z"/>
            <path class="cls-7" d="m666.26,358.37h-354.35c-1.95,0-3.58-1.64-3.58-3.58v-62.07c0-1.95,1.64-3.58,3.58-3.58h354.35c1.95,0,3.58,1.64,3.58,3.58v62.07c0,1.95-1.64,3.58-3.58,3.58Z"/>
            <rect class="cls-7" x="332.16" y="242.17" width="7.71" height="39.17"/>
            <rect class="cls-7" x="339.79" y="252.84" width="8.02" height="28.5"/>
            <rect class="cls-7" x="564.55" y="319.12" width="7.71" height="39.17"/>
            <rect class="cls-7" x="572.18" y="329.79" width="8.02" height="28.5"/>
            <rect class="cls-7" x="548.82" y="319.12" width="7.71" height="39.17"/>
            <rect class="cls-12" x="519.76" y="334.23" width="39.17" height="7.71" transform="translate(54.55 750.61) rotate(-72.48)"/>
            <rect class="cls-7" x="556.53" y="329.79" width="8.02" height="28.5"/>
            <rect class="cls-7" x="460.5" y="242.17" width="7.71" height="39.17"/>
            <rect class="cls-7" x="468.21" y="252.84" width="8.02" height="28.5"/>
            <rect class="cls-7" x="384.41" y="242.17" width="7.71" height="39.17"/>
            <rect class="cls-12" x="355.37" y="257.22" width="39.17" height="7.71" transform="translate(13.1 540.03) rotate(-72.48)"/>
            <rect class="cls-7" x="392.05" y="252.84" width="8.02" height="28.5"/>
            <path class="cls-30" d="m572.1,247.24l.86-11.6c.08-.78-.55-1.4-1.32-1.4h-6.7c-.78,0-1.32.62-1.32,1.4l.86,11.6s-7.01,4.52-6.93,8.26c.08,2.88,1.79,16.67,2.57,22.74.23,1.71,1.64,2.96,3.35,2.96h9.66c1.71,0,3.12-1.25,3.35-2.96.78-6.07,2.49-19.86,2.57-22.74.08-3.74-6.93-8.26-6.93-8.26Z"/>
            <path class="cls-30" d="m541.11,247.24l.86-11.6c.08-.78-.55-1.4-1.32-1.4h-6.7c-.78,0-1.32.62-1.32,1.4l.86,11.6s-7.01,4.52-6.93,8.26c.08,2.88,1.79,16.67,2.57,22.74.23,1.71,1.64,2.96,3.35,2.96h9.66c1.71,0,3.12-1.25,3.35-2.96.78-6.07,2.49-19.86,2.57-22.74.08-3.74-6.93-8.26-6.93-8.26Z"/>
            <line class="cls-7" x1="74.38" y1="431.89" x2="818.74" y2="431.89"/>
          </g>
        </g>
      </g>
      <g>
        <g>
          <path class="cls-17" d="m152.41,364.83l-9.89,138.31c-.08,1.17.86,2.18,2.02,2.18h0c1.09,0,1.95-.78,2.02-1.87l11.92-138.62h-6.07Z"/>
          <path class="cls-17" d="m552.79,364.83l9.89,138.31c.08,1.17-.86,2.18-2.02,2.18h0c-1.09,0-1.95-.78-2.02-1.87l-11.92-138.62h6.07Z"/>
        </g>
        <g>
          <path class="cls-27" d="m239.01,193.66s6.93,14.1,11.92,26.79c4.98,12.69,5.84,24.45,1.01,26.95-6.78,3.5-14.33,3.74-23.05-12.77-8.72-16.51-2.18-53.81,10.12-40.96Z"/>
          <path class="cls-29" d="m201.71,451.12c.08.93-2.73,16.74-2.57,17.91.23,1.17-11.92,4.21-17.76-1.01,0,0,.86-20.64.86-23.75,0-3.04,18.92-1.87,19.47,6.85Z"/>
          <path class="cls-18" d="m199.37,466.23s1.32,5.84,3.27,9.42c1.95,3.58,12.69,13.63,11.53,17.06s-11.06,3.74-18.69,3.43c-7.63-.31-11.06-2.96-14.1-8.41-3.12-5.45-1.01-9.11-.62-19.7,0,0,.23-1.79.7-2.1,0,0,1.56,2.73,3.35,2.96,1.79.16,3.58-4.13,7.94-4.59,4.36-.39,4.91,3.89,5.37,3.89.55,0,1.09-.7,1.25-1.95Z"/>
          <path class="cls-9" d="m206.46,482.98s-5.45-2.34-15.58,1.48"/>
          <path class="cls-9" d="m204.51,478.69s-5.45-2.34-15.58,1.48"/>
          <path class="cls-29" d="m240.65,448.4c.08.93-2.73,16.74-2.57,17.91.23,1.17-11.92,4.21-17.76-1.01,0,0,.86-20.64.86-23.75,0-3.04,19-1.87,19.47,6.85Z"/>
          <path class="cls-18" d="m238.39,463.43s1.32,5.84,3.27,9.42,12.69,13.63,11.53,17.06-11.06,3.74-18.69,3.43c-7.63-.31-11.06-2.96-14.1-8.41-3.12-5.45-1.01-9.11-.62-19.7,0,0,.23-1.79.7-2.1,0,0,1.56,2.73,3.35,2.96,1.79.16,3.58-4.13,7.94-4.59,4.36-.39,4.91,3.89,5.37,3.89.55.08,1.09-.62,1.25-1.95Z"/>
          <path class="cls-9" d="m245.4,480.25s-5.45-2.34-15.58,1.48"/>
          <path class="cls-9" d="m243.53,475.97s-5.45-2.34-15.58,1.48"/>
          <path class="cls-19" d="m166.9,280.34s-2.34,13.63,4.36,45.64c2.02,9.73,3.66,22.43,4.83,35.75,2.73,30.37.39,61.37-1.01,73.6-2.02,17.52,6.93,20.87,16.59,21.65s13.24-3.66,13.71-8.57,6.23-70.32,8.41-85.12c2.26-14.8,2.41-35.05,1.71-38s7.71-2.34,4.21-38.94c-3.43-36.76-50-15.73-52.8-6Z"/>
          <path class="cls-19" d="m233.95,282.13s11.68,50,13.08,65.57c1.4,15.58-1.48,91.97-1.4,96.57.16,4.59-4.13,8.72-14.56,8.96-10.44.23-14.64-6.7-14.56-10.44.23-12.46.39-62.07-.39-69.7s-12.15-45.17-14.41-48.75c-2.26-3.66-7.24-30.53,2.57-35.2,9.81-4.67,25.23-11.68,29.67-7.01Z"/>
          <path class="cls-18" d="m219.23,182.36s-19.94-.7-29.2-1.95c-9.27-1.25-26.56-1.32-33.41,12.62-6.85,13.94,14.41,20.79,13.86,30.68-.47,9.81-1.95,26.63-1.95,26.63,0,0-1.95,18.77-4.13,25.86-2.18,7.09,1.95,10.67,3.89,11.29,1.95.62,22.2,4.75,37.54,3.89,15.34-.86,27.88-4.36,28.97-7.79,1.17-3.43-.7-13.47,0-23.99s2.73-28.89,2.73-35.9,3.43-24.77,0-32.09c-3.43-7.32-11.68-9.03-18.3-9.27Z"/>
          <path class="cls-27" d="m193.07,174.11s-3.19.47-4.28,2.57c-.7,1.32-1.56,3.74-1.48,6.23s3.82,9.35,14.64,10.59c10.9,1.25,14.72-4.05,15.19-6.07s-.31-7.48-1.09-8.41c-.7-1.01-1.87-2.02-5.76-2.49-3.82-.62-15.97-2.88-17.21-2.41Z"/>
          <path class="cls-1" d="m208.72,221.46s3.19-3.35,4.83-5.84,3.82-5.22,5.61-6.23c1.79-1.09,5.53-1.71,6.54-2.26,1.09-.55,2.18,1.4,0,3.19s-1.25,7.01-4.28,9.81c-3.12,2.8-11.6,4.52-12.69,1.32Z"/>
          <path class="cls-19" d="m231.38,175.35l39.33-2.57c1.17-.08,2.1.93,1.95,2.1l-9.66,59.34c-.23,1.32-1.25,2.34-2.57,2.49l-37.62,5.14c-1.17.16-2.18-.86-2.1-2.02l7.94-61.84c.08-1.48,1.25-2.57,2.73-2.65Z"/>
          <path class="cls-18" d="m259.18,175.51l-14.87.78c-.55,0-1.01-.47-.93-1.01l.23-1.56c.08-.62.62-1.09,1.17-1.09l14.87-.78c.55,0,1.01.47.93,1.01l-.23,1.56c-.08.62-.62,1.01-1.17,1.09Z"/>
          <path class="cls-1" d="m172.43,235.63s4.91-19.7,6.15-27.26c1.25-7.55-3.5-15.97-10.83-17.83-8.57-2.1-11.21,2.41-11.21,2.41,0,0-3.43,6-6.85,24.84-3.43,18.85-5.37,36.37,6.85,40.65s37.3-9.66,45.33-15.65c8.02-5.92,10.98-8.49,12.54-8.88s7.71,1.25,10.98-2.41c3.27-3.66,6.07-6.54,6.39-6.54s8.1,1.17,9.42.16c1.48-1.17-.7-2.34-2.26-2.57-1.48-.23-6-1.71-6-1.71,0,0,3.5-1.09,6-2.02,2.49-1.01,5.06-1.48,4.91-2.8-.16-1.4-1.71-1.17-3.27-1.25-1.56-.08-3.66.39-3.66.39,0,0,4.28-1.17,5.37-2.41,1.17-1.32.16-2.34-2.1-2.1-1.79.16-4.28.78-4.28.78,0,0,4.36-.39,4.05-2.34-.23-1.32-4.13-.62-6.7-.31-2.57.31-5.84.93-8.64,1.64-1.87.47-3.58,1.01-4.75,1.56-2.73,1.32-9.58,7.87-10.67,9.19-1.09,1.32-14.8,3.5-26.01,6-11.21,2.41-17.76,4.52-21.18,7.71l10.44.78Z"/>
          <path class="cls-4" d="m233.41,208.69c-2.57.31-5.84.93-8.64,1.64-1.87.47-3.58,1.01-4.75,1.56"/>
          <path class="cls-27" d="m211.52,235.63c-1.95,1.4-4.91,3.74-9.58,7.16-8.02,5.92-33.1,19.86-45.33,15.65-12.15-4.28-10.2-21.81-6.85-40.65,3.43-18.85,6.85-24.84,6.85-24.84,0,0,2.65-4.52,11.21-2.41,7.24,1.79,12.07,10.2,10.83,17.83-.78,4.75-3.04,14.41-4.59,20.87,2.73-.78,5.84-1.48,9.42-2.26,7.94-1.71,17.21-3.35,22.27-4.59-.08.23-1.09,4.44.86,8.41,1.79,4.05,4.91,4.83,4.91,4.83Z"/>
          <path class="cls-13" d="m148.99,251.05s-.16-4.21,4.98-3.66c5.06.55,18.46,5.37,14.64,11.06"/>
          <path class="cls-13" d="m199.53,223.8s-1.17,4.52.93,9.11c2.1,4.52,5.92,6.7,5.92,6.7"/>
          <path class="cls-1" d="m192.44,161.88s-.23,9.97-.86,16.2c-.62,6.23,10.98,8.8,16.59,7.71,5.61-1.09,6.46-2.8,6.46-2.8,0,0-.47-8.41,0-11.45s-22.12-12.93-22.2-9.66Z"/>
          <path class="cls-16" d="m214.48,180.73c-.08-1.25-.08-2.88-.08-4.52-4.75.23-8.96-4.13-12.38-7.71-.93,7.48,5.53,12.3,12.46,12.23Z"/>
          <path class="cls-27" d="m223.67,148.64s3.89-2.02,5.06-8.41c1.17-6.46-.23-15.89-4.59-16.98-4.44-1.17-1.32,12.3-4.28,14.8-2.96,2.41,3.82,7.09,3.82,10.59Z"/>
          <path class="cls-1" d="m223.52,137.66s1.32,5.37.86,13.24c-.47,7.94,1.09,21.34-7.55,25.23s-20.09-.16-24.77-12.93c-4.67-12.77-4.75-25.47,2.41-30.92,7.24-5.53,26.48-4.75,29.05,5.37Z"/>
          <path class="cls-27" d="m192.99,153s2.65-.86,2.73-5.61c0-4.83,2.57-8.8,7.71-7.4s12.3,5.37,16.51,5.3c4.98-.16,6.54-5.53,6.93-12.15.39-6.7-1.79-10.75-4.36-10.05-2.57.7-4.75,2.88-7.94-1.17-4.36-5.45-8.26-5.3-11.37-2.73-5.45,4.59-4.21,7.01-9.19,5.06-2.88-1.17-4.91-.86-6.31,4.52-1.4,5.37-.86,6.85-4.21,6.39-3.43-.47-1.25,17.29,4.21,21.26.08,0,4.28-3.82,5.3-3.43Z"/>
          <path class="cls-27" d="m219.78,154.33c.31.86.47,1.71.7,2.49s.47,1.64.7,2.26c.16.39.39.93.39,1.48s-.08,1.17-.47,1.56c-.7.86-1.71,1.09-2.65,1.01.78-.47,1.48-1.01,1.71-1.56.23-.55.08-1.17-.31-1.87-.39-.93-.55-1.79-.55-2.73.08-.93.23-1.79.47-2.65Z"/>
          <path class="cls-27" d="m212.22,147.55c.7.08,1.25-.55,1.01-1.25-.23-.7-.39-1.32-1.17-1.48-1.64-.39-5.14-.08-7.24,1.48-2.1,1.56-.08,1.87,2.57,1.32,1.87-.31,3.58-.23,4.83-.08Z"/>
          <g>
            <ellipse class="cls-9" cx="208.64" cy="155.18" rx="7.71" ry="8.02"/>
            <ellipse class="cls-9" cx="224.76" cy="155.18" rx="4.98" ry="7.32"/>
            <path class="cls-9" d="m219.93,153.55s-1.01-1.4-3.74,0"/>
            <line class="cls-9" x1="201.24" y1="152.93" x2="191.98" y2="152.22"/>
          </g>
          <path class="cls-9" d="m213.31,168.66s-3.5-.23-5.3-3.66"/>
          <path class="cls-27" d="m209.81,158.14h0c.7.08,1.32-.47,1.4-1.25l.08-.78c.08-.7-.47-1.32-1.25-1.4h0c-.7-.08-1.32.47-1.4,1.25l-.08.78c-.08.78.47,1.32,1.25,1.4Z"/>
          <path class="cls-27" d="m221.34,158.38h0c.7.08,1.32-.47,1.4-1.25l.08-.78c.08-.7-.47-1.32-1.25-1.4h0c-.7-.08-1.32.47-1.4,1.25l-.08.78c0,.7.55,1.32,1.25,1.4Z"/>
          <path class="cls-1" d="m192.68,153.24s-2.26-3.89-5.3-2.88-2.96,5.69-1.48,8.49c1.87,3.58,6.15,4.67,8.41,4.28"/>
          <path class="cls-27" d="m187.3,156.04c-.16-.39-.23-.78-.16-1.25,0-.23.16-.47.31-.7.23-.23.55-.39.86-.39.55,0,1.09.23,1.4.62.31.31.55.7.78,1.09.39.7.55,1.4.78,2.02.16.31.23.55.39.7s.55.16.93.16c-.23.31-.62.62-1.17.55-.55-.16-.86-.47-1.17-.78-.47-.7-.78-1.32-1.09-1.95s-.62-1.09-.93-1.17c-.08,0-.16-.08-.23,0-.08,0-.16.08-.23.23-.16.08-.31.47-.47.86Z"/>
          <path class="cls-4" d="m233.41,220.91s-1.48-.39-2.57-.47c-1.09-.16-1.87,0-1.87,0"/>
          <path class="cls-4" d="m236.99,215.07s-7.94,1.71-8.64,2.26"/>
          <path class="cls-4" d="m236.05,211.33s-5.45,1.17-5.76,1.25c-1.01.31-2.88.86-2.88.86"/>
          <path class="cls-9" d="m174.06,312.34s9.11-3.89,9.11-17.13"/>
        </g>
        <g>
          <path class="cls-17" d="m86.68,420.75l-4.52,93.77c-.08,1.09.78,1.95,1.87,1.95h0c.93,0,1.79-.7,1.87-1.71l7.87-94.08h-7.09v.08Z"/>
          <path class="cls-17" d="m131.15,420.75l4.52,93.77c.08,1.09-.78,1.95-1.87,1.95h0c-.93,0-1.79-.7-1.87-1.71l-7.87-94.08h7.09v.08Z"/>
          <path class="cls-17" d="m117.06,402.29l-.08,93.84c0,1.09-.86,1.87-1.95,1.87h0c-.93-.08-1.71-.86-1.79-1.79l-3.27-94.31,7.09.39Z"/>
          <path class="cls-27" d="m134.27,411.64c-7.16-1.01-16.35-1.64-26.48-1.64s-19.31.62-26.48,1.64h-14.64v5.3c0,3.82,18.38,6.93,41.12,6.93s41.12-3.12,41.12-6.93v-5.3h-14.64Z"/>
          <ellipse class="cls-24" cx="107.79" cy="411.64" rx="41.12" ry="6.93"/>
        </g>
        <g>
          <path class="cls-27" d="m137.15,484.85s-1.01,7.48-2.41,9.73c-1.48,2.26-3.74,7.87-3.66,9.19.23,2.41,7.71,8.57,12.07,12.3,4.36,3.74,7.94,3.89,16.04,4.52,8.1.62,11.37-.62,11.37-3.12s-1.64-3.66-5.22-7.79c-3.5-4.13-9.19-9.97-11.06-13.32-1.87-3.35,1.87-8.41,3.58-11.53,1.71-3.12-17.13-8.8-20.72,0Z"/>
          <path class="cls-29" d="m157.86,484.85c-1.64,3.12-5.37,8.18-3.58,11.53.16.31.39.62.55.93-.47-.62-2.1-2.65-5.3-2.65-3.74,0-5.76,4.36-8.64,2.26-1.87-1.4-4.28-2.96-5.69-3.82,1.09-3.04,1.79-8.33,1.79-8.33,3.74-8.72,22.58-3.04,20.87.08Z"/>
          <path class="cls-18" d="m134.35,357.67s3.27,7.94,4.91,10.2c1.64,2.26,41.74,6.15,46.03,22.43,4.28,16.28-21.11,84.97-23.83,91.43-2.73,6.46-3.12,12.15-12.3,11.21-9.27-1.01-16.59-6.85-14.8-13.32s8.8-23.68,11.68-44.31c2.96-20.64,13.32-25-5.37-31.31-18.69-6.31-33.57-4.28-28.43-21.73,5.14-17.44,18.54-26.48,22.12-24.61Z"/>
          <path class="cls-27" d="m163.32,496.22s3.27,11.68,3.27,12.93c0,1.32-2.1,11.29-1.64,14.25s4.52,4.59,9.89,9.5c5.76,5.37,10.44,5.06,17.52,4.52,6.07-.47,14.17-3.43,15.03-5.84.93-2.49-.08-4.13-4.91-6.7-4.28-2.34-15.03-14.25-15.58-15.58s-3.82-18.69-3.97-20.33c-.16-1.71-21.57,2.8-19.63,7.24Z"/>
          <path class="cls-29" d="m186.37,507.66c-1.64-2.02-3.97-3.74-7.09-1.87-3.27,1.95-3.58,6.15-5.3,6.39-1.71.23-1.87-2.18-4.13-2.88-2.26-.62-3.66-2.18-3.66-2.18-.86-3.66-2.88-10.98-2.88-10.98-1.95-4.44,19.47-8.96,19.55-7.24.16,1.48,2.49,14.1,3.5,18.77Z"/>
          <path class="cls-11" d="m191.59,516.15s-4.05-1.56-11.99,2.41"/>
          <path class="cls-11" d="m197.19,521.14s-6-1.56-13.94,2.41"/>
          <path class="cls-18" d="m79.52,356.42s-3.74,9.81-6,15.97c-2.26,6.15-5.14,18.77,1.32,28.97,6.46,10.2,18.92,11.99,38.94,14.49,19.78,2.41,24.06,3.97,24.06,3.97,0,0,4.52,20.17,11.84,39.95,7.32,19.78,10.05,31.31,10.36,34.11.31,2.73,1.79,5.53,6.7,6.7,4.91,1.17,17.68-1.64,18.54-7.32.78-5.69-4.67-23.05-8.26-46.1-3.58-23.05-5.22-42.37-11.99-51.32-6.85-8.96-33.49-9.89-33.49-12.46-.08-2.49-39.02-33.18-52.02-26.95Z"/>
          <path class="cls-9" d="m176.94,447.15c-3.58-23.05-5.22-42.37-11.99-51.32-6.85-8.96-32.16-11.45-33.49-12.46,0,0-6.23-4.28-14.87-4.21"/>
          <path class="cls-9" d="m131.46,383.37s.62-4.05,0-5.92"/>
          <path class="cls-9" d="m74.85,386.41s13.01-.23,15.89-14.41"/>
          <path class="cls-9" d="m137.77,419.82s-.16-3.58,2.96-6.31"/>
          <path class="cls-11" d="m164.56,508.68s-1.64-4.44-14.72-.86"/>
          <path class="cls-11" d="m158.02,501.67s-1.25-3.27-11.68,1.17"/>
        </g>
        <g>
          <path class="cls-23" d="m475.06,216.24l-104.82-4.28c-2.26-.08-3.82-2.18-3.5-4.75l8.57-63c.31-2.49,2.49-4.52,4.75-4.67l104.82-4.28c2.88-.16,4.91,2.02,4.59,4.83l-8.57,71.1c-.31,2.96-2.96,5.22-5.84,5.06Z"/>
          <path class="cls-19" d="m473.27,214.92l-104.82-4.28c-2.26-.08-3.82-2.18-3.5-4.75l8.57-63c.31-2.49,2.49-4.52,4.75-4.67l104.82-4.28c2.88-.16,4.91,2.02,4.59,4.83l-8.57,71.1c-.31,2.96-2.96,5.14-5.84,5.06Z"/>
          <g>
            <line class="cls-14" x1="390.02" y1="174.26" x2="417.75" y2="174.26"/>
            <path class="cls-14" d="m414.79,197.08l-14.95-.39c-2.34-.08-3.89-2.1-3.58-4.52l4.75-35.75c.31-2.41,2.41-4.44,4.75-4.52l14.95-.39"/>
            <path class="cls-18" d="m437.06,155.65l-17.37.31c-1.01,0-1.64-.78-1.56-1.79l.7-5.22c.16-1.01,1.01-1.87,2.02-1.87l17.37-.55c1.01,0,1.71.78,1.64,1.79l-.7,5.3c-.16,1.17-1.09,2.02-2.1,2.02Z"/>
            <path class="cls-18" d="m466.97,178.94l-18.61-.08c-1.01,0-1.79-.86-1.64-1.95l.7-5.45c.16-1.09,1.09-1.95,2.1-1.95l18.61-.08c1.09,0,1.87.86,1.71,1.95l-.7,5.53c-.08,1.17-1.09,2.02-2.18,2.02Z"/>
            <path class="cls-18" d="m431.22,202.07l-17.37-.47c-1.01,0-1.64-.86-1.56-1.87l.7-5.3c.16-1.01,1.01-1.87,2.02-1.79l17.37.31c1.01,0,1.71.86,1.64,1.95l-.7,5.37c-.16,1.01-1.09,1.79-2.1,1.79Z"/>
            <line class="cls-14" x1="436.59" y1="174.19" x2="447.11" y2="174.19"/>
            <path class="cls-29" d="m434.18,178.78l-17.37-.08c-1.01,0-1.64-.86-1.56-1.87l.7-5.22c.16-1.01,1.01-1.87,2.02-1.87l17.37-.08c1.01,0,1.71.86,1.64,1.87l-.7,5.37c-.16,1.01-1.09,1.87-2.1,1.87Z"/>
            <path class="cls-18" d="m390.02,174.26c.39-2.88-1.48-5.14-4.13-5.14s-5.06,2.34-5.45,5.14,1.4,5.14,4.05,5.14,5.14-2.26,5.53-5.14Z"/>
          </g>
        </g>
        <g>
          <g>
            <path class="cls-27" d="m464.78,405.72v5.3c0,3.43-17.21,6.23-38.55,6.23s-38.55-2.8-38.55-6.23v-5.3h18.15c5.92-.62,12.93-.93,20.4-.93s14.49.31,20.4.93h18.15Z"/>
            <ellipse class="cls-24" cx="426.23" cy="405.72" rx="38.55" ry="6.23"/>
          </g>
          <g>
            <path class="cls-27" d="m426.23,474.88h0c-1.01,0-1.79-.78-1.79-1.79v-61.06h3.66v61.06c0,1.01-.86,1.79-1.87,1.79Z"/>
            <path class="cls-6" d="m426.23,472.93s-21.18,1.56-27.88,15.65"/>
            <path class="cls-6" d="m454.19,488.58c-6.78-14.1-27.88-15.65-27.88-15.65,0,0-3.5,2.73-4.98,18.85"/>
            <circle class="cls-18" cx="421.25" cy="493.52" r="5.68"/>
            <circle class="cls-18" cx="454.16" cy="489.74" r="5.69"/>
            <circle class="cls-15" cx="398.35" cy="489.71" r="5.68"/>
          </g>
        </g>
        <g>
          <g>
            <path class="cls-27" d="m447.26,348.32c3.74,8.96,10.36,23.36,10.28,39.56,0,19.63-23.75,27.65-26.17,30.76-2.41,3.19-51.87,6.54-56.93-3.35-5.06-9.97-4.75-20.33,8.8-45.33,9.03-16.74,7.87-21.42,7.94-21.65,0,0,1.25,1.32,1.79-3.89.55-5.22,52.02-1.4,54.28,3.89Z"/>
            <g>
              <path class="cls-29" d="m386.2,394.97c-4.83.78-12.93,3.35-13.78,16.2-.78,12.85,9.42,62.69,9.58,71.49.16,8.8-.7,9.19-6.7,14.56-6,5.37-17.91,11.21-16.9,15.34,1.01,4.13,14.64,7.63,23.6,6,9.03-1.64,10.98-11.84,12.69-12.69s2.8-4.05,3.04-6.07c.23-2.1,6.54-73.52,7.16-84.03.86-13.01-4.52-23.05-18.69-20.79Z"/>
              <path class="cls-27" d="m398.35,493.72c-.31,3.43-.55,5.61-.55,6-.23,2.1-1.32,5.22-3.04,6.07-1.71.86-3.66,11.06-12.69,12.69-9.03,1.64-22.66-1.87-23.6-6-.78-3.19,6.31-7.48,12.3-11.76-.16.16-1.87,1.87,0,2.26,1.95.39,5.45-1.09,12.15,2.65,6.7,3.74,8.64-2.1,9.97-6.07,1.17-3.35,3.5-2.26,5.45-5.84Z"/>
              <path class="cls-29" d="m409.72,397.31c-5.84,3.89-8.18,8.64-9.27,26.56-1.48,24.61-4.13,63.32-5.37,67.44-1.25,4.13-2.8,6-4.28,10.12s-14.02,16.04-13.24,20.56c.7,4.52,7.94,9.03,12.46,10.51,4.52,1.48,9.89,2.1,13.16,0,3.27-2.1,4.91-15.26,5.76-18.38.86-3.19,1.79-5.45,2.57-10.98.7-5.45,6.46-30.45,8.88-37.62,2.41-7.09,13.24-41.98,13.55-55.61.16-13.63-15.65-18.22-24.22-12.62Z"/>
              <path class="cls-8" d="m409.72,397.31c-5.84,3.89-8.18,8.64-9.27,26.56-1.48,24.61-4.13,63.32-5.37,67.44-1.25,4.13-2.8,6-4.28,10.12"/>
              <path class="cls-27" d="m412.37,498.24c-.47,2.18-.78,3.89-.86,4.91-.7,5.45-1.71,7.79-2.57,10.98s-2.41,16.35-5.69,18.38c-3.27,2.1-8.64,1.48-13.16,0-4.52-1.48-11.68-6-12.46-10.44-.55-3.27,5.84-10.36,9.97-15.65-.23.31-3.19,4.75,2.1,8.64,4.59,3.43,13.16,5.53,15.34.39,2.18-5.14,3.35-9.97,4.36-11.53,1.01-1.48,2.26-3.12,2.96-5.69Z"/>
              <ellipse class="cls-2" cx="392.81" cy="516.31" rx="3.19" ry="4.28" transform="translate(-227.28 707.02) rotate(-69.83)"/>
              <path class="cls-2" d="m379.51,504.55c-.23,1.64-2.26,2.65-4.44,2.34s-3.82-1.95-3.58-3.58c.23-1.64,2.26-2.65,4.44-2.34,2.26.31,3.82,1.95,3.58,3.58Z"/>
            </g>
          </g>
          <path class="cls-18" d="m393.06,283.22s-10.59.16-17.76,15.97c-7.16,15.73-18.54,38.08-16.9,47.51,1.64,9.42,23.36,0,33.64-17.68,10.2-17.68,9.27-45.33,1.01-45.79Z"/>
          <path class="cls-27" d="m401.24,251.75s-5.37-.31-7.09-7.24c-1.71-6.93,5.37-15.58,11.92-17.68,6.54-2.1,8.18,1.95,12.46,2.41,4.28.47,15.73-.78,20.33,9.42,4.59,10.2-3.04,19.86,2.8,27.49,5.84,7.71,10.75,21.81-6.46,27.88s-36.99,1.32-43.14-9.66c-6.07-10.98,5.69-17.44,7.48-23.13,1.95-5.61,2.8-7.01,1.71-9.5Z"/>
          <path class="cls-19" d="m418.68,279.17s-15.89-.16-24.53,3.12c-2.57.93-4.75,2.57-5.37,10.67-.55,7.32-.93,7.24-2.96,10.83-3.19,5.76-4.52,12.38,1.64,23.13,3.97,7.01,2.73,20.17,2.1,26.79-.62,6.7.16,9.58,13.01,12.85,12.85,3.27,40.42,0,43.53-3.12,3.12-3.12,4.52-33.96,3.89-39.95-.62-6,10.9-21.96,10.05-28.27-.78-6.31-8.33-14.95-41.35-16.04Z"/>
          <path class="cls-2" d="m409.96,277.84s-7.16.31-9.5,2.73c-1.64,1.71-.31,2.8,1.64,4.28,1.32,1.01-3.35,3.66-.93,6.7,1.79,2.26,5.84-.55,7.4,1.56,1.79,2.49,2.1,3.43,4.83,3.5,3.43.08,3.74-3.58,6.31-3.19,3.12.47,3.82,1.56,6.07,1.32,3.5-.39,3.58-3.89,3.12-6s.78-2.18,3.5-2.96,3.27-6.07-6.78-7.55c-9.97-1.48-15.65-.39-15.65-.39Z"/>
          <path class="cls-29" d="m427.71,263.75s-1.64,7.87-1.48,16.28c0,0-2.73,8.18-12.07,7.63-8.72-.47-6.7-7.48-6.7-7.48,0,0,2.1-7.79,2.18-9.81.16-2.02,15.89-8.72,18.07-6.62Z"/>
          <path class="cls-28" d="m420.78,272.63c-3.74,2.49-8.1,3.97-12.23,3.66-.55,2.1-1.01,3.89-1.01,3.89,0,0-.08.39-.16,1.01,6.07-.16,11.53-2.88,13.4-8.57Z"/>
          <g>
            <path class="cls-29" d="m400.22,243.97c0,.23.23,6.23-.86,12.93-1.09,6.7.08,17.29,7.32,19.78,10.05,3.43,20.48-3.43,23.05-13.4,2.57-9.97,3.89-22.2-8.88-25.86-12.85-3.74-19.94,1.64-20.64,6.54Z"/>
            <path class="cls-27" d="m399.83,246.77s-.55-2.41,1.71-2.88c2.26-.47,4.36-1.48,6.46-2.41,1.48-.7,3.35-.47,4.83,2.8,3.27,7.01,7.4,17.52,15.97,14.56,0,0,3.27.7,4.21-4.75s.55-12.77-8.96-17.21c-9.5-4.36-20.4-1.4-22.43.86-3.12,3.5-1.79,9.03-1.79,9.03Z"/>
            <path class="cls-29" d="m425.14,259.93s3.5-4.83,6.78-2.02c3.27,2.8-1.25,9.89-5.76,9.66"/>
            <path class="cls-19" d="m430.21,268.11c0-1.09-.93-3.12-2.02-3.12s-2.02,2.02-2.02,3.12.93,2.02,2.02,2.02,2.02-.86,2.02-2.02Z"/>
            <g>
              <path class="cls-27" d="m430.75,261.18c-.31-.16-.55-.39-.78-.47-.23-.16-.47-.08-.55,0-.08,0-.08.08-.16.16-.08.08-.16.16-.16.23-.08.16-.08.31-.16.55-.08.47,0,1.09-.16,1.79-.08.39-.31.78-.7,1.01s-.78.08-1.09,0c.31-.16.55-.31.62-.55.08-.16.08-.39.08-.62,0-.47-.16-1.09-.08-1.79,0-.39.16-.78.47-1.17.16-.16.31-.31.47-.47.23-.08.47-.23.7-.23.55,0,.93.31,1.09.62.31.31.39.62.39.93Z"/>
              <path class="cls-27" d="m402.87,256.43c.31.7.31,1.48.16,2.26s-.47,1.48-1.01,2.1c-.16.23-.23.23-.23.47,0,.16.08.39.23.7.16.23.31.55.55.78s.47.55.78.62c-.39.16-.78.08-1.17-.08s-.7-.39-1.01-.62c-.31-.31-.55-.7-.62-1.25v-.39c0-.16.08-.31.08-.39.08-.16.08-.23.16-.39.08-.08.16-.23.23-.31.78-.93,1.32-2.1,1.87-3.5Z"/>
              <path class="cls-9" d="m406.38,267.49s2.88.39,4.98-1.4"/>
              <path class="cls-27" d="m409.72,250.51c-.16-.47.08-1.17.31-1.48.62-.78,2.65-.86,4.21.16,1.56.93,2.18,2.41,1.71,2.57-.7.23-1.4-.7-3.04-.86-1.64-.23-2.88.47-3.19-.39Z"/>
              <path class="cls-27" d="m401.7,250.27c.39.08.78-.16.78-.55.08-.55.08-1.17-.16-1.56-.47-.7-1.71.08-2.1.62-.39.55-.23,1.48,0,1.48.16,0,.86-.16,1.48,0Z"/>
              <path class="cls-27" d="m411.28,257.83h0c.62.08,1.09-.39,1.17-1.01l.08-.62c.08-.62-.39-1.09-1.01-1.17h0c-.62-.08-1.09.39-1.17,1.01l-.08.62c0,.62.39,1.17,1.01,1.17Z"/>
              <path class="cls-27" d="m401.24,257.05h0c.62.08,1.09-.39,1.17-1.01l.08-.62c.08-.62-.39-1.09-1.01-1.17h0c-.62-.08-1.09.39-1.17,1.01l-.08.62c0,.62.47,1.09,1.01,1.17Z"/>
            </g>
          </g>
        </g>
        <g>
          <path class="cls-17" d="m294.85,378.31l4.52,105.6c.08,1.17-.78,2.18-1.87,2.18h0c-.93,0-1.79-.86-1.87-1.95l-7.87-105.92h7.09v.08Z"/>
          <path class="cls-17" d="m304.59,365.92l4.28,100.46c.08,1.17-.78,2.1-1.79,2.1h0c-.93,0-1.71-.78-1.79-1.79l-7.48-100.78h6.78Z"/>
          <path class="cls-17" d="m224.06,378.38l-14.17,104.75c-.16,1.17.62,2.26,1.64,2.34h0c.93.08,1.87-.7,2.02-1.71l17.52-104.75-7.01-.62Z"/>
          <path class="cls-30" d="m318.61,266.32s4.59,2.1.62,20.56c-3.97,18.46-11.29,42.91-10.28,70.56.93,27.65-17.13,39.1-46.81,36.99-29.67-2.1,16.9-85.9,16.9-85.9,0,0,33.41-49.76,39.56-42.21Z"/>
          <path class="cls-2" d="m239.01,271.92c.78-3.43,2.41-8.96,8.57-11.21,6.15-2.26,70.79-1.17,71.65,6.85.78,7.94-16.04,45.4-15.97,72.19.08,26.71,4.83,48.99-26.71,53.42s-65.34-2.1-61.91-12.85c3.43-10.67,13.86-25.15,17.06-54.67,3.19-29.52,4.44-40.5,7.32-53.74Z"/>
        </g>
        <g>
          <g>
            <path class="cls-27" d="m224.37,357.67s-23.75,29.75-24.45,39.64c-.7,9.89,39.02,9.5,39.1,7.48.16-2.02,6.7-13.55,9.81-13.78,2.02-.16,5.14-.31,5.69,2.18.78,3.5,0,10.83,0,10.83l34.19,16.04,3.35-14.25s5.76-9.27,5.76-24.53-4.44-37.77-4.44-37.77c0,0-65.11,6.85-69,14.17Z"/>
            <path class="cls-27" d="m252.41,501.12s-2.1,1.4-2.57,4.91-2.34,8.72-3.58,13.01-4.91,12.62-3.04,14.02c2.65,2.1,9.66,3.58,17.76,4.28,8.1.7,11.99.23,13.24-2.1,1.17-2.34-1.4-15.73-1.87-20.79s0-10.36-.93-12.15c-.93-1.71-15.26-6-19-1.17Z"/>
            <path class="cls-27" d="m223.67,496.6s-.93,1.48-1.87,4.59c-.93,3.04-9.19,15.81-9.11,19.86.16,4.13,7.94,4.13,10.98,4.28,3.66.16,12.93-.55,15.97-2.65s3.12-9.35,3.35-11.68c.47-4.67.39-7.48-.7-14.49-.31-2.26-3.74-2.88-5.61-1.56-1.87,1.25-11.6-1.4-13.01,1.64Z"/>
            <path class="cls-29" d="m253.66,491.85s-1.4,10.2-1.56,11.45c-.16,1.17,2.1,3.97,8.64,5.37,5.61,1.25,8.96-.86,9.5-1.64s3.12-13.78,3.97-16.74c.86-2.88-18.77-1.95-20.56,1.56Z"/>
            <path class="cls-29" d="m221.8,489.67s2.1,7.16,2.1,8.1,3.58,2.88,8.57,2.73c4.91-.16,9.19-2.88,9.19-4.21s-1.48-14.02-1.48-14.02c0,0-17.91,3.82-18.38,7.4Z"/>
            <g>
              <path class="cls-11" d="m250.77,519.27s9.58-3.19,18.61,4.28"/>
              <path class="cls-11" d="m253.27,513.58s9.42-1.71,15.42,3.19"/>
            </g>
            <path class="cls-27" d="m252.49,505.25s1.56.93,3.35,0,3.66-2.65,7.32-1.95c4.44.86,5.3,5.45,7.71,3.43,0,0,.08,3.12-6,3.43-6.07.31-12.3-3.89-12.38-4.91Z"/>
            <path class="cls-27" d="m223.59,497.93s.86.93,2.26-.39c1.4-1.25,1.25-2.8,5.06-3.35,2.49-.31,4.59,1.48,6.46,2.96,1.87,1.48,3.74-.55,4.13-2.26,0,0,1.25,4.44-.47,6.62-1.25,1.64-6.07.47-8.96.55-2.8.08-9.11-1.32-9.11-1.32l.62-2.8Z"/>
            <g>
              <path class="cls-11" d="m218.3,509.38s7.32-4.52,17.37,1.56"/>
              <path class="cls-11" d="m221.8,504.7s6.39-4.52,15.19,1.56"/>
            </g>
            <path class="cls-27" d="m263.7,388.66s-9.42,1.32-10.05,24.84-2.57,61.29-5.22,66.59c-2.57,5.3-1.71,11.53,3.19,14.02s10.59,5.37,17.76,4.59c7.16-.7,10.59-4.91,10.59-13.24s3.04-31.7,7.71-50.7c4.59-19,7.79-37.77-1.71-44.55-9.5-6.78-22.27-1.56-22.27-1.56Z"/>
            <path class="cls-27" d="m207.86,386.8s-14.17,1.79-6.15,36.91c8.02,35.05,13.4,53.58,12.15,58.95-1.25,5.37,2.65,8.26,7.09,9.27,4.36,1.01,12.93.86,17.76-1.87,4.91-2.73,5.37-7.09,3.43-15.42s-2.41-41.67-2.65-53.11,2.65-30.92-11.21-36.53c-13.94-5.69-20.4,1.79-20.4,1.79Z"/>
            <ellipse class="cls-13" cx="216.74" cy="398.87" rx="11.29" ry="11.14"/>
            <ellipse class="cls-13" cx="272.58" cy="407.43" rx="11.29" ry="11.14"/>
          </g>
          <path class="cls-27" d="m298.59,241.55s4.59-1.48,6.07-4.83c1.56-3.35,1.32-13.47-1.4-16.67-2.73-3.19-10.36-1.79-15.19-3.19-4.83-1.4-8.18-4.52-17.13-2.8-8.96,1.71-17.21,9.73-17.6,14.1s2.18,6.15,1.25,8.96c-1.01,2.73-2.18,5.53,2.18,9.81,4.36,4.28,2.65,7.09,5.92,7.09s-2.65-9.97,1.56-18.54c4.28-8.49,32.01-3.58,34.34,6.07Z"/>
          <g>
            <path class="cls-29" d="m208.1,293.11s-10.28,13.55-12.07,23.75c-1.79,10.2,3.74,16.82,10.59,17.91,6.85,1.09,29.83-28.89,30.92-34.97,1.01-6.07-26.17-11.45-29.44-6.7Z"/>
            <path class="cls-24" d="m240.88,266.63s-5.22-1.48-17.76,9.35c-10.51,9.03-18.85,17.68-18.85,17.68,0,0,22.12,20.09,25.15,25.31,0,0,13.63-15.73,14.8-31.62,1.17-15.97-1.4-21.34-3.35-20.72Z"/>
            <path class="cls-9" d="m208.1,290.07s15.97,12.85,24.61,24.69"/>
          </g>
          <path class="cls-27" d="m234.73,273.25c1.95-4.36,5.84-7.55,10.67-7.71,4.67-.16,11.76-.08,22.04.62,22.12,1.56,39.17,7.87,43.69,11.14,4.52,3.27-1.01,23.52-5.69,34.73-4.67,11.21-9.73,21.42-10.59,25.31-.78,3.89,2.26,22.27.62,26.01s-19,10.2-41.12,8.96c-22.12-1.32-31.31-8.41-32.01-11.06-.62-2.57,2.1-25.62,3.43-33.49,1.32-7.87,2.26-25.15,2.41-27.65,1.4-16.04,4.52-22.35,6.54-26.87Z"/>
          <g>
            <path class="cls-29" d="m331.3,309.46c-5.53-9.5-24.69,9.42-24.22,13.63,0,0,3.43,7.16,3.43,7.94s-3.43,20.48-5.76,31.54c-.7,3.43-2.8,7.24-5.37,10.9,6.07,2.26,12.23,4.13,18.54,5.37,8.26-14.41,17.76-36.45,19.24-41.9,2.73-10.2-.31-17.99-5.84-27.49Z"/>
            <path class="cls-8" d="m310.51,331.03s1.4-3.35,4.98-4.83"/>
            <path class="cls-24" d="m311.13,277.22s6.31,3.5,12.54,14.02c6.15,10.51,11.06,20.09,11.06,20.09l-27.41,14.33s-7.94-13.01-11.21-18.85c-3.27-5.84-3.58-17.83,1.01-24.53,4.44-6.62,11.84-6.54,14.02-5.06Z"/>
            <path class="cls-9" d="m304.74,321.53s15.97-10.51,27.72-14.41"/>
            <path class="cls-29" d="m303.19,366.94s-10.98,1.09-13.47,2.49c-2.41,1.4-6.23,9.89-5.92,10.67.23.78,2.65,0,2.65,0,0,0-.31,1.64,1.56,1.64s2.18-.78,2.18-.78c0,0-.31,2.02,1.87,1.95,2.18-.16,6.7-4.05,6.7-4.05,0,0-2.41,4.28-.93,5.3,1.4,1.01,4.67-2.57,5.14-3.27.47-.7,12.85,6.78,17.6-7.01,0,0-8.96-9.73-17.37-6.93Z"/>
          </g>
          <path class="cls-24" d="m257,265.07s-3.74.39-4.52,1.09-3.12,6.78,0,13.08c3.12,6.23,12.15,9.42,21.34,6.54,9.19-2.8,13.08-11.68,12.77-14.41s-1.95-3.58-5.3-4.44c-3.35-.86-24.3-1.87-24.3-1.87Z"/>
          <path class="cls-29" d="m261.44,245.52s.23,7.16-1.56,13.01c-.78,2.65-2.02,5.06-2.8,6.46-.62,1.17-1.09,2.41-1.25,3.66-.47,3.19-.23,8.72,5.61,11.37,9.35,4.21,19.16-3.5,20.48-9.66,0,0,.55-6.39,1.95-8.96,1.4-2.49-17.91-18.3-22.43-15.89Z"/>
          <path class="cls-28" d="m281.3,272.16c.31-.62.47-1.25.62-1.79,0,0,.08-1.25.39-2.88-6.46-1.09-12.15-4.83-15.65-9.89.47,7.63,7.01,13.47,14.64,14.56Z"/>
          <g>
            <path class="cls-29" d="m202.8,333.53s3.82,4.28,20.79,0c16.9-4.28,38.86-16.12,42.13-17.29,3.27-1.25,4.52-.62,8.02-.62,8.33.16,11.76-.62,12.85-1.17,2.18-1.09,3.19-2.73,2.8-4.13s.78-1.79,1.01-3.04c.39-2.34-.47-2.65-.23-2.8s2.57-.86,3.04-1.48c1.17-1.79.23-2.96.23-2.96,0,0,2.96-.78,6.46-1.09,3.5-.31,5.61-1.56,4.59-2.8-1.01-1.25-7.87-.86-12.3-.86s-6,.08-6.31-.08c-1.71-.55-5.06-1.56-6.7-1.4s-3.5,1.48-6.7,3.19-6.78,3.12-11.45,4.28c-3.58.93-27.65,2.8-42.52,5.61-2.1.39-4.05.78-5.69,1.25-2.02.55-3.66,1.09-4.75,1.64-8.1,4.36-15.19,15.81-5.3,23.75Z"/>
            <path class="cls-8" d="m293.37,300.04s-2.02-.31-2.73-.47c-.78-.16-1.87-.16-1.87-.16"/>
            <path class="cls-8" d="m290.18,304.48s-1.4.39-1.95.62"/>
            <path class="cls-8" d="m289.4,309.46s-1.48.86-2.1,1.09"/>
            <path class="cls-27" d="m265.73,316.24c-6-7.09-2.96-15.42-2.96-15.42l-6.7,1.25c-3.82,9.42,2.96,17.37,2.96,17.37l6.7-3.19Z"/>
            <path class="cls-8" d="m285.82,295.21s-4.21.08-4.91.39"/>
            <path class="cls-8" d="m218.53,306.89c-2.1.39-4.05.78-5.69,1.25-2.02.55-3.66,1.09-4.75,1.64"/>
            <path class="cls-2" d="m262.61,309.46c0-2.26-1.79-4.05-4.05-4.05s-4.05,1.79-4.05,4.05,1.79,4.05,4.05,4.05c2.18-.08,4.05-1.87,4.05-4.05Z"/>
          </g>
          <g>
            <path class="cls-29" d="m299.53,228.31s1.71,5.14-.7,12.77c-2.41,7.71-4.05,10.51-6.07,16.59-2.1,6.07-6.93,11.37-15.26,10.51-8.72-.93-15.58-8.88-15.97-18.77-.39-9.89-1.25-25.31,10.51-28.04,11.6-2.65,25.47,4.28,27.49,6.93Z"/>
            <path class="cls-27" d="m291.82,244.82c0,.93,0,1.79.16,2.65.08.39.16.86.23,1.25.08.23.08.39.16.62l.08.31.08.39c.16.55.16,1.09,0,1.71-.23.55-.62,1.09-1.09,1.32-.93.55-1.95.62-2.88.39.86-.39,1.71-.78,2.18-1.25.55-.55.62-1.09.39-1.79l-.08-.23-.08-.39c-.08-.23-.08-.47-.16-.7-.08-.47-.08-1.01-.08-1.48.23-1.09.55-2.1,1.09-2.8Z"/>
            <path class="cls-27" d="m263.55,240.62s2.57-.62,4.21-7.4c0,0,.55-1.56,3.27.55,2.65,2.1,7.24,5.53,15.19,1.79,7.94-3.74,8.96-4.98,10.05-3.66,0,0,1.17,5.92,5.22,4.05,4.05-1.79,1.87-12.38-11.53-15.81-13.4-3.43-22.9-2.26-27.18,5.22-4.36,7.55-2.65,14.8.78,15.26Z"/>
            <path class="cls-27" d="m288,238.13c.47-.55.93-1.79.31-2.65-.86-1.32-6.7-2.26-8.1-1.09s2.1,1.32,3.74,2.1c1.64.86,3.58,2.18,4.05,1.64Z"/>
            <path class="cls-27" d="m295.24,241.47c.16-.47.62-1.01,1.17-1.25.86-.39,2.65,1.4,2.34,2.57s-1.17-.16-1.95-.31c-.78-.31-1.79-.55-1.56-1.01Z"/>
            <path class="cls-27" d="m283.56,242.64c.23-.62-.08-1.32-.78-1.56h0c-.62-.23-1.32.08-1.56.78l-.16.39,2.26.86.23-.47Z"/>
            <path class="cls-27" d="m295.24,247c.23-.62-.08-1.32-.78-1.56-.62-.23-1.32.08-1.56.78l-.16.39,2.26.86.23-.47Z"/>
            <path class="cls-29" d="m264.95,241.94s-1.32-5.3-5.22-5.22c-3.89.08-5.69,10.67,3.27,12.3"/>
            <path class="cls-27" d="m259.11,241.55c0-.39.08-.7.39-1.09.16-.16.39-.31.7-.31.23,0,.55.08.7.16.08,0,.23.16.31.23.16.08.16.23.23.31.08.16.08.23.16.31,0,.08.08.23.08.31.08.39.08.7.08,1.01v1.79c0,.23.08.47.23.7.16.23.39.39.7.55-.31.16-.7.16-1.09,0s-.7-.55-.86-.93c-.31-.7-.39-1.4-.39-2.1,0-.62-.08-1.32-.08-1.32-.16-.16-.23-.23-.47-.23-.16.16-.39.39-.7.62Z"/>
            <g>
              <path class="cls-27" d="m283.33,258.53c.31-.47.62-.93.78-1.32.31-.7,0-1.48-.7-1.71-.78-.31-1.79-.86-2.96-1.79-2.41-1.95-3.5-.23-3.35,1.95,2.34.23,4.44,1.71,6.23,2.88Z"/>
              <path class="cls-22" d="m277.1,255.57c.16,1.87,1.17,4.13,3.19,4.44,1.32.23,2.34-.55,3.04-1.48-1.79-1.17-3.89-2.65-6.23-2.96Z"/>
            </g>
          </g>
        </g>
        <g>
          <g>
            <path class="cls-17" d="m121.57,384.54l-11.45,159.65c-.08,1.32,1.01,2.49,2.34,2.49h0c1.25,0,2.26-.93,2.34-2.1l13.78-159.96h-7.01v-.08Z"/>
            <path class="cls-17" d="m583.63,384.54l11.45,159.65c.08,1.32-1.01,2.49-2.34,2.49h0c-1.25,0-2.26-.93-2.34-2.1l-13.78-159.96h7.01v-.08Z"/>
          </g>
          <polygon class="cls-2" points="608 381.19 97.2 381.19 155.61 357.67 549.52 357.67 608 381.19"/>
          <rect class="cls-17" x="97.2" y="381.19" width="510.88" height="5.84"/>
        </g>
        <g>
          <path class="cls-19" d="m300.3,353.78h32.79c.86,0,1.71.23,2.49.78l29.75,19.86c1.01.62.55,2.18-.62,2.18h-47.43c-1.09,0-2.1-.47-2.8-1.4l-15.11-19.47c-.62-.78-.08-1.95.93-1.95Z"/>
          <line class="cls-5" x1="320.55" y1="370.44" x2="351.16" y2="370.44"/>
          <path class="cls-27" d="m342.67,364.6l-6.39-4.83c-.31-.23-.62-.31-.93-.31h-8.33c-.31,0-.39.31-.23.55l4.83,4.67c.31.31.7.47,1.09.47h9.81c.31,0,.39-.31.16-.55Z"/>
          <line class="cls-5" x1="325.38" y1="365.15" x2="316.97" y2="365.15"/>
          <line class="cls-5" x1="322.66" y1="361.95" x2="315.1" y2="361.95"/>
        </g>
        <g>
          <path class="cls-24" d="m489.63,379.79l-9.35.7c-.78.08-1.64,0-2.41-.23l-42.68-11.68c-.93-.23-1.64-1.17-1.64-2.18h0l72.58-1.79-16.51,15.19Z"/>
          <path class="cls-27" d="m479.19,377.14l18.07-48.05c.62-1.71,2.34-2.88,4.13-2.8l74.14,1.4c1.64,0,2.8,1.71,2.1,3.27l-17.13,41.98c-.62,1.56-2.1,2.57-3.74,2.73l-75.23,4.75c-1.64,0-2.88-1.71-2.34-3.27Z"/>
          <path class="cls-27" d="m481.84,380.41l-1.56.08c-.78.08-1.64,0-2.41-.23l-42.68-11.68c-.93-.31-1.64-1.17-1.64-2.18l46.81,11.21,1.48,2.8Z"/>
          <path class="cls-24" d="m541.88,352.22c-.86,2.96-3.89,5.37-6.85,5.37s-4.67-2.41-3.82-5.37,3.89-5.37,6.85-5.37c2.96-.08,4.67,2.41,3.82,5.37Z"/>
        </g>
        <g>
          <g>
            <path class="cls-25" d="m123.68,277.92s7.63-2.1,14.33,9.89c6.7,11.99,10.05,34.27,12.15,36.53,2.1,2.26,5.53,3.97,16.59,11.06,11.06,7.09,11.68,7.32,21.26,8.49s10.2,4.44,13.16,7.71c2.96,3.27,5.06,5.53,2.26,5.76-2.73.23-5.84-3.82-7.63-2.65s-3.12,2.1-6.31,2.96c-3.27.78-2.26,2.1-5.3,1.79-3.04-.31-8.96-.16-7.09-1.79,1.79-1.64,0-2.02,0-2.02,0,0-32.94-4.44-43.61-13.08-10.75-8.64-13.47-37.3-15.58-46.81-2.18-9.58,3.12-17.83,5.76-17.83Z"/>
            <path class="cls-3" d="m150.15,324.34s-2.96-.31-5.06.78"/>
          </g>
          <path class="cls-27" d="m127.41,239.99s5.76-5.45,3.5-12.54c-2.26-7.16-9.27-7.79-14.95-6.07-5.69,1.79-21.26-1.17-26.95,7.48-5.69,8.64-2.1,16.43-5.69,18.69-3.58,2.26-8.64,3.89-7.79,9.58.78,5.69,16.04,13.94,11.37,20.48-4.67,6.46-9.11,21.73,8.96,30.37,17.99,8.64,19.16-11.99,20.33-23.99,1.17-11.99-2.41-25.86,2.73-31,5.22-5.3,9.5-8.18,8.49-13.01Z"/>
          <path class="cls-27" d="m101.09,275.12s20.64.47,24.22,2.1c3.58,1.64,5.22,7.16,6.31,11.37,1.17,4.21,9.27,9.27,10.75,18.54,1.48,9.27-6.46,20.01-6.85,21.73-.31,1.79-.47,19.16.47,22.74,1.01,3.58,2.57,9.42,2.41,11.99-.16,2.57-11.06,7.63-27.26,6.7-16.2-.93-33.18-9.11-33.72-10.9-.47-1.79,4.83-10.2,3.35-27.8-1.48-17.52-9.89-36.53-3.74-46.96,6.15-10.28,20.95-9.58,24.06-9.5Z"/>
          <path class="cls-25" d="m100.31,260.32s.86,9.03.7,14.8c0,0,2.26,4.83,9.35,6.23,8.57,1.79,10.28-3.12,9.11-5.22,0,0-2.02-7.48-2.26-12.62-.16-4.98-16.51-3.89-16.9-3.19Z"/>
          <path class="cls-21" d="m107.32,267.8c3.19,4.98,6.46,7.01,12.07,7.4-.31-1.09-.7-3.04-1.17-5.14-4.44.55-6.54-1.01-10.9-2.26Z"/>
          <path class="cls-25" d="m97.35,275.12s4.52,2.96,9.03,9.35c4.44,6.39,10.12,11.14,14.1,10.67,3.97-.47,5.84-5.69.7-18.77,0,0-12.46-2.02-23.83-1.25Z"/>
          <g>
            <path class="cls-24" d="m170.79,348.79l32.63-2.02c.39,0,.86-.86,1.01-.55.08.08,0,1.32,0,1.4,0,.23-.08.55-.23.7l-24.61,25.23c-1.01,1.01-2.41,1.56-3.89,1.4l-32.09-3.19c-.31,0-.62-.23-.7-.47-.08-.16-1.32-2.26-1.25-2.49,0-.23,1.79-.23,2.02-.39l24.92-18.77c.55-.47,1.32-.78,2.18-.86Z"/>
            <path class="cls-27" d="m170.4,346.77l33.1-1.4c.86,0,1.32,1.01.7,1.64l-25.47,25.08c-1.01,1.01-2.49,1.56-3.97,1.32l-32.48-3.97c-.86-.08-1.17-1.17-.47-1.71l26.25-20.17c.62-.47,1.48-.78,2.34-.78Z"/>
            <path class="cls-25" d="m185.04,345.29s-.86.16-.86,1.79.62,6-1.01,6.31c-1.56.31-2.34-1.64-3.12-3.35-.78-1.71-3.12-1.79-4.59-4.28"/>
          </g>
          <path class="cls-25" d="m125.39,231.66s2.26,6,2.49,12.77c.23,6.85,2.57,10.75,1.25,16.67-1.32,6-6,10.51-11.76,10.75-5.76.23-14.17-4.91-18.77-11.06-4.59-6.23-6-19-3.27-25.23,2.57-6.15,22.97-12.62,30.06-3.89Z"/>
          <path class="cls-27" d="m128.04,238.36s-3.35.39-5.45-3.04c0,0-5.06,11.68-13.24,12.46-5.61.55-6.7-2.1-9.03,0-2.34,2.1,4.44,14.25,2.34,24.14s-12.07,12.62-19.08,6.54c-8.8-7.71.78-9.19,2.57-20.09,1.79-10.83,0-19.16,5.76-25.47s11.45-10.2,20.56-9.35c9.19.86,12.93,2.26,15.58,14.8Z"/>
          <path class="cls-27" d="m103.97,246.3s-.55,4.13-.31,5.45-2.41-1.48-4.83.31c-1.32,1.01-2.57-5.37,0-7.32,2.49-1.95,3.97-.31,5.14,1.56Z"/>
          <path class="cls-25" d="m102.49,251.83s-2.96-3.82-6.15-1.48c-3.19,2.41.93,9.42,5.76,8.88"/>
          <g>
            <path class="cls-25" d="m167.99,366.63s4.44,3.66,6.15,4.91c1.64,1.25.62,2.34-1.25,2.34-1.95.08-8.02-4.91-4.91-7.24Z"/>
            <path class="cls-25" d="m79.75,281.43c-1.87.86-3.35,2.34-4.36,4.13-1.87,3.5-4.52,10.36-2.57,19.24,2.88,13.16,9.66,32.94,12.69,37.62,3.04,4.67,17.29,14.02,27.34,20.25s17.76,9.66,19.63,11.06c1.95,1.4,5.61,4.98,12.69,5.84,7.16.86,9.42-1.71,11.6-1.17,2.26.55,5.84,3.04,7.87,2.8,2.02-.31.93-1.79.16-2.57s-5.37-4.91-5.37-4.91c0,0,2.8,1.17,6.85,3.58,3.43,2.02,5.06,2.1,6,2.02.93,0,2.02-.39,1.87-1.25,0,0,.93.55,1.71-.16.78-.7,1.01-1.32-.86-3.43-1.95-2.1-6.62-7.63-8.96-10.05-2.41-2.49-5.06-2.65-10.83-2.34-5.76.23-13.86-.93-14.1-.7s-25-26.01-32.48-33.49c0,0-6-19.55-7.79-27.96-3.66-16.9-12.54-22.58-21.11-18.54Z"/>
            <path class="cls-3" d="m174.14,378.15s0-.93-2.34-2.57c-2.34-1.56-6-5.14-7.16-6-1.17-.93-2.57-1.95-2.8-1.95"/>
            <path class="cls-3" d="m159.42,373.79s-1.79-1.56-2.65-1.32"/>
            <path class="cls-3" d="m108.65,327.92s-3.66-.39-6.54,2.57"/>
          </g>
          <g>
            <path class="cls-27" d="m125,248.56c.55.7,1.01,1.4,1.48,2.02.23.31.47.62.78.86.16.16.23.23.39.39l.23.16c.08.08.23.16.31.31.39.47.55,1.09.55,1.64s-.23,1.01-.47,1.4c-.47.78-1.17,1.48-2.1,1.71.55-.7.86-1.4,1.09-2.18.23-.7.16-1.4-.16-1.71,0-.08-.08-.08-.16-.16-.08-.08-.16-.16-.31-.23-.16-.16-.39-.39-.47-.55-.31-.39-.55-.78-.7-1.17-.23-.7-.47-1.56-.47-2.49Z"/>
            <path class="cls-9" d="m122.59,262.58s-2.26.7-4.28-1.4"/>
            <path class="cls-27" d="m117.29,252.14h0c.7-.08,1.17-.78,1.01-1.48l-.16-.7c-.08-.7-.78-1.17-1.48-1.01h0c-.7.08-1.17.78-1.01,1.48l.16.7c.16.62.78,1.09,1.48,1.01Z"/>
            <path class="cls-27" d="m126.79,250.59h0c.7-.08,1.17-.78,1.01-1.48l-.16-.7c-.08-.7-.78-1.17-1.48-1.01h0c-.7.08-1.17.78-1.01,1.48l.16.7c.16.62.78,1.17,1.48,1.01Z"/>
            <path class="cls-27" d="m116.59,244.04c.7.08,1.25-.55,1.17-1.25-.08-.62-.23-1.25-.55-1.64-.7-.78-3.43-.55-5.45,1.01-2.1,1.56-2.88,3.58-1.87,3.66,1.01.08,2.49-1.25,4.13-1.64.78-.31,1.79-.23,2.57-.16Z"/>
            <path class="cls-27" d="m126.79,242.88c-.31.23-.7,0-.78-.31-.16-.62-.31-1.56-.08-1.79.39-.47,1.56-.16,1.79.55.23.7.31,1.09.08,1.09-.16-.08-.62.16-1.01.47Z"/>
            <path class="cls-27" d="m97.59,253.86c-.23-.23-.31-.55-.31-.93,0-.16.08-.39.23-.62s.31-.31.55-.47c.08,0,.16-.08.31-.08s.39,0,.55.08c.31.16.47.39.55.55.23.31.31.62.47.93.23.55.31,1.09.47,1.48.08.23.16.39.31.55s.47.23.78.23c-.23.23-.55.39-.93.39s-.78-.23-1.01-.55c-.47-.55-.7-1.17-.93-1.64-.08-.23-.16-.55-.23-.7,0-.08-.08-.16,0-.16h.08-.08c-.16,0-.23,0-.39.16-.23.16-.31.47-.39.78Z"/>
          </g>
        </g>
        <g>
          <path class="cls-29" d="m317.75,205.65h-27.41l-2.8,1.79c-.86.55-2.1-.08-2.1-1.09v-19.39c0-1.95,1.56-3.58,3.58-3.58h28.66c1.95,0,3.58,1.56,3.58,3.58v15.11c0,2.02-1.56,3.58-3.5,3.58Z"/>
          <g>
            <path class="cls-9" d="m293.61,198.48l2.73-2.73c1.48-1.48,3.82-1.48,5.3,0,1.48,1.48,3.82,1.48,5.3,0l5.22-5.22"/>
            <polygon class="cls-27" points="313 192.1 313.93 188.75 310.58 189.68 313 192.1"/>
          </g>
        </g>
        <g>
          <path class="cls-24" d="m558.39,296.14l-71.8-8.41c-2.1-.23-3.35-2.1-2.88-4.21l16.59-75.85c.39-1.79,2.1-3.27,3.97-3.5l74.92-7.87c1.95-.23,3.43,1.32,3.04,3.19l-19.86,93.77c-.47,1.79-2.18,3.12-3.97,2.88Z"/>
          <path class="cls-27" d="m555.51,296.14l-72.43-8.49c-2.1-.23-3.43-2.1-2.96-4.21l16.74-76.4c.39-1.87,2.1-3.35,4.05-3.5l75.46-7.94c1.95-.23,3.43,1.32,3.04,3.19l-20.09,94.54c-.31,1.71-2.1,3.04-3.82,2.8Z"/>
          <g>
            <path class="cls-18" d="m528.8,222.86l-27.26,1.32c-.7,0-1.25-.55-1.09-1.25l2.18-10.12c.16-.55.62-1.01,1.25-1.09l27.49-2.34c.78-.08,1.25.55,1.09,1.25l-2.41,11.21c-.08.47-.62.93-1.25,1.01Z"/>
            <g>
              <path class="cls-29" d="m492.74,279.63h0c-.62-.08-1.01-.62-.86-1.17l4.05-19c.16-.62.7-1.09,1.32-1.01h0c.62.08,1.01.55.86,1.17l-4.05,19.08c-.08.55-.7,1.01-1.32.93Z"/>
              <path class="cls-19" d="m502.4,279.4l4.83-22.43c.16-.62.7-1.09,1.32-1.01h.16c.62,0,1.01.55.93,1.17l-4.83,22.43c-.16.62-.78,1.09-1.4,1.01h-.16c-.62,0-1.01-.55-.86-1.17Z"/>
              <path class="cls-18" d="m512.91,280.26l5.45-25.62c.16-.7.78-1.17,1.48-1.17h0c.7,0,1.17.62,1.01,1.32l-5.45,25.62c-.16.7-.86,1.17-1.56,1.17h0c-.62,0-1.09-.62-.93-1.32Z"/>
            </g>
            <g>
              <path class="cls-18" d="m551.85,231.89l1.79,3.82c-2.18,2.49-4.83,4.05-7.32,4.05-4.83,0-7.4-5.84-5.84-13.08,1.56-7.24,6.7-13.4,11.6-13.78,2.57-.23,4.52,1.09,5.69,3.43l-3.43,4.05c-.7-1.4-1.87-2.26-3.35-2.1-2.96.23-6.07,3.89-7.09,8.33-.93,4.36.62,7.94,3.58,7.87,1.56-.16,3.12-1.09,4.36-2.57Z"/>
              <path class="cls-19" d="m558.55,225.82c-.86,3.82-2.65,7.32-4.83,9.81l-1.79-3.82c1.32-1.48,2.41-3.58,2.88-5.84.47-2.26.31-4.28-.39-5.69l3.43-4.05c1.17,2.41,1.48,5.76.7,9.58Z"/>
            </g>
            <g>
              <path class="cls-18" d="m531.06,269.67c-1.56,7.24,1.01,13.08,5.84,13.08,2.49,0,5.14-1.56,7.32-4.05l-1.79-3.82c-1.32,1.48-2.88,2.41-4.36,2.49-2.96.08-4.52-3.5-3.58-7.87.39-1.95,1.32-3.82,2.41-5.22l-1.64-3.58c-1.95,2.49-3.5,5.61-4.21,8.96Z"/>
              <path class="cls-19" d="m541.57,261.26c1.48-.08,2.73.7,3.35,2.1l3.43-4.05c-1.17-2.34-3.19-3.66-5.69-3.43-2.65.23-5.3,2.1-7.48,4.83l1.64,3.58c1.4-1.71,3.04-2.96,4.75-3.04Z"/>
              <path class="cls-29" d="m549.05,268.97c-.86,3.82-2.65,7.32-4.83,9.81l-1.79-3.82c1.32-1.48,2.41-3.58,2.88-5.84.47-2.26.31-4.28-.39-5.69l3.43-4.05c1.17,2.34,1.56,5.76.7,9.58Z"/>
            </g>
            <line class="cls-13" x1="499.52" y1="230.96" x2="518.68" y2="230.26"/>
            <line class="cls-13" x1="498.43" y1="235.32" x2="525.84" y2="235.01"/>
            <line class="cls-13" x1="497.57" y1="239.84" x2="525.3" y2="239.84"/>
          </g>
          <g>
            <path class="cls-24" d="m569.22,203.16c.16-.62-.08-1.09-.55-1.09-.47.08-.93.62-1.01,1.25-.16.62.08,1.09.55,1.09.47-.08.93-.62,1.01-1.25Z"/>
            <path class="cls-24" d="m573.74,202.77c.16-.62-.16-1.09-.55-1.09-.47.08-.93.62-1.09,1.25s.16,1.09.55,1.09c.55-.08,1.01-.62,1.09-1.25Z"/>
          </g>
        </g>
        <g>
          <path class="cls-27" d="m285.43,375.27v.23c0,.78-.62,1.4-1.4,1.4h-66.04c-.78,0-1.4-.62-1.4-1.4h0c0-.47.23-.93.55-1.32l12.77-12.62c.62-.62,1.4-.93,2.18-.93h43.38c1.09,0,2.18.62,2.73,1.56l7.01,12.07c.08.39.23.7.23,1.01Z"/>
          <path class="cls-24" d="m252.49,371.92c0,.23-.47.47-1.09.47s-1.09-.23-1.09-.47.47-.47,1.09-.47,1.09.23,1.09.47Z"/>
        </g>
        <g>
          <path class="cls-18" d="m515.02,444.5s-6-12.85,9.03-20.95c15.03-8.1,35.9-.08,34.03,2.73-1.17,1.71-4.21,6.7-9.89,12.85-4.75,5.22-18.38,13.32-33.18,5.37Z"/>
          <path class="cls-9" d="m555.44,425.74s-33.02-7.4-40.5,18.77c-7.4,26.17-5.14,51.24-5.14,51.24"/>
          <path class="cls-27" d="m485.27,473.94l5.37,63.32c0,2.41,9.81,4.28,21.96,4.28s21.96-1.95,21.96-4.28l5.37-63.32h-54.67Z"/>
          <ellipse class="cls-18" cx="512.6" cy="473.94" rx="27.26" ry="4.13"/>
          <path class="cls-18" d="m505.67,460.78s-8.8-4.36-14.49,5.45c-5.69,9.89-1.48,24.61,2.41,26.79,3.89,2.18,20.09-5.22,20.09-20.09,0-13.24-8.02-12.15-8.02-12.15Z"/>
          <path class="cls-9" d="m505.67,460.78s-8.8-.62-11.45,30.22"/>
          <path class="cls-18" d="m498.97,442.79s-9.27-14.41-27.8-5.14c-18.54,9.27-17.99,34.81-15.11,36.29,2.96,1.48,46.26-13.63,42.91-31.15Z"/>
          <path class="cls-9" d="m513.69,472.93s-5.76-20.25-14.72-30.22c-9.03-9.97-36.76,1.48-41.67,25.54"/>
          <path class="cls-18" d="m524.05,450.89s-7.87-2.73-11.45,7.01c-3.5,9.5.62,31.15,20.87,37.69,1.09.31,2.26,0,2.96-.86,2.49-2.88,7.71-10.44,7.71-21.81-.08-15.81-8.8-27.26-20.09-22.04Z"/>
          <path class="cls-9" d="m524.05,450.89s16.35,8.02,10.36,41.74"/>
        </g>
        <g>
          <g>
            <path class="cls-18" d="m358.4,346.69s.31,9.81,14.49,10.75c14.1,1.01,41.59-2.18,46.96-3.66,5.37-1.48,5.06-10.12,1.64-12.54-3.43-2.41-23.99-3.5-34.5-5.06-2.41-.39-5.22-.86-8.1-1.09-2.49-.23-4.98-.39-7.4-.31-7.09.31-13.01,3.04-13.08,11.92Z"/>
            <path class="cls-9" d="m358.25,343.96s0-2.02,3.04-1.48c6.62,1.25,12.23,15.5,5.45,13.71"/>
            <path class="cls-9" d="m386.91,336.17c-2.41-.39-5.22-.86-8.1-1.09-2.49-.23-4.98-.39-7.4-.31"/>
          </g>
          <path class="cls-18" d="m456.45,290.69c2.57.86,4.44,2.88,7.71,12.77,4.28,12.93,9.73,40.34,6.93,47.74-2.8,7.4-8.41,11.21-27.26,12.07-18.85.86-37.15-.62-39.56-.62s-6.46-8.88-3.89-14.72c0,0,15.97-3.89,25-6.31,9.03-2.41,19-4.98,23.13-5.45,0,0-6.7-16.43-8.88-22.2-2.18-5.76-.39-15.58,4.75-20.01,5.06-4.36,9.89-3.97,12.07-3.27Z"/>
          <path class="cls-9" d="m448.43,336.17s7.71-1.56,12.3,0"/>
          <path class="cls-9" d="m471.87,346.69s-1.64-3.89-8.26.47c-5.22,3.43-6.78,13.71-1.09,13.08"/>
          <g>
            <path class="cls-29" d="m401.94,348.09s-4.13.39-8.33.39-9.89.7-11.21,1.32c-1.32.55-14.72,14.02-14.41,15.81.23,1.79,2.8.62,4.98-.86,2.1-1.56,6.23-5.53,7.09-6.07,0,0-1.09,2.49-2.1,6.23s-2.02,7.48-1.01,8.1c1.32.78,2.57-.55,2.96-1.32,0,0-.08,1.95,1.48,2.02,1.56.08,3.04-2.88,4.28-5.37,1.32-2.49,3.97-5.76,3.97-5.76,0,0-1.25,3.97-1.71,6.15-.47,2.18-.78,4.75.39,4.98,1.79.39,3.43-4.91,4.44-6.93,1.09-2.1,4.98-.7,7.87-2.49,2.96-1.87,4.52-2.34,4.52-2.34,0,0,1.95-1.95,1.95-6.15,0-4.28-3.5-7.87-5.14-7.71Z"/>
            <path class="cls-8" d="m379.74,371.77s3.74-10.9,5.3-13.01,2.1-2.26,2.57-2.57"/>
            <path class="cls-8" d="m379.9,358.76s.62-1.25,1.64-3.12c.55-.93,1.71-1.87,1.71-1.87"/>
            <path class="cls-8" d="m389.48,362.58s1.09-2.65,2.18-2.96"/>
          </g>
          <g>
            <g>
              <path class="cls-29" d="m414.32,340.15s3.12-1.01,6-2.34,4.05-1.87,6.31-2.02c2.26-.23,9.35-.23,10.36.39s2.34,3.58,3.04,5.06-1.56,7.32-1.56,7.32c0,0,1.01,5.14-.23,5.69-.78.31-1.48.16-2.49-2.57,0,0,.7,2.34-.7,2.49-1.4.16-2.96-3.89-3.97-5.69s-2.96-4.05-2.96-4.05c0,0,.86,2.8,1.01,3.74.16,1.01.78,3.35.39,4.28s-1.79-.31-3.19-3.5-1.87-4.28-2.73-4.21c-4.83.47-4.52-.62-6.85-.78l-5.14,1.32c-.08-.08-.62-3.19,2.73-5.14Z"/>
              <path class="cls-8" d="m435.74,351.59s-1.56-5.06-2.1-6.62c-.55-1.48-2.34-4.28-2.34-4.28"/>
              <path class="cls-8" d="m438.46,348.48s-.93-5.45-1.32-6.78c-.39-1.25-1.01-2.41-1.01-2.41"/>
            </g>
            <path class="cls-8" d="m428.03,344.35s-.47-1.56-.7-2.02"/>
          </g>
        </g>
      </g>
    </g>
  </g>
</svg>