<?xml version="1.0" encoding="UTF-8"?>
<svg id="Layer_2" data-name="Layer 2" xmlns="http://www.w3.org/2000/svg" xmlns:xlink="http://www.w3.org/1999/xlink" viewBox="0 0 492.44 570.37">
  <defs>
    <style>
      .cls-1 {
        fill: #b28d93;
      }

      .cls-2, .cls-3 {
        fill: #fff;
      }

      .cls-4 {
        fill: #2fade2;
      }

      .cls-5 {
        fill: #896068;
      }

      .cls-6 {
        fill: #087caf;
      }

      .cls-7 {
        stroke: #89555f;
      }

      .cls-7, .cls-8, .cls-9, .cls-10, .cls-11, .cls-12, .cls-13, .cls-14 {
        fill: none;
      }

      .cls-7, .cls-8, .cls-10, .cls-13, .cls-14 {
        stroke-linecap: round;
        stroke-linejoin: round;
      }

      .cls-7, .cls-10, .cls-13, .cls-14 {
        stroke-width: 1.8px;
      }

      .cls-3, .cls-11 {
        stroke: #6bbcf9;
      }

      .cls-3, .cls-11, .cls-12 {
        stroke-miterlimit: 10;
      }

      .cls-8 {
        stroke-width: 1.8px;
      }

      .cls-8, .cls-10 {
        stroke: #fff;
      }

      .cls-15 {
        filter: url(#drop-shadow-1);
      }

      .cls-16 {
        fill: #a1c9e5;
      }

      .cls-17 {
        clip-path: url(#clippath-1);
      }

      .cls-18 {
        clip-path: url(#clippath);
      }

      .cls-19 {
        fill: #22272e;
      }

      .cls-12 {
        stroke: #d0e5f7;
        stroke-width: .25px;
      }

      .cls-20 {
        fill: #f4c2c9;
      }

      .cls-13 {
        stroke: #005886;
      }

      .cls-21 {
        fill: #045887;
      }

      .cls-22 {
        fill: #98c0e5;
      }

      .cls-14 {
        stroke: #000;
      }
    </style>
    <filter id="drop-shadow-1" filterUnits="userSpaceOnUse">
      <feOffset dx="7" dy="7"/>
      <feGaussianBlur result="blur" stdDeviation="12"/>
      <feFlood flood-color="#000" flood-opacity=".46"/>
      <feComposite in2="blur" operator="in"/>
      <feComposite in="SourceGraphic"/>
    </filter>
    <clipPath id="clippath">
      <path class="cls-9" d="m458.12,164.25s36,79.12,0,240-168.58,119.52-185.38,115.88c-30.25-1.5-256.5-96.38-272.75-286.5C0,40.5,220-51,343.75,28.87c0,0,77.62,41.62,114.38,135.38Z"/>
    </clipPath>
    <clipPath id="clippath-1">
      <path class="cls-9" d="m500.23,439.14l-520-14.9c-24.2-.7-44.1-19.2-46.5-43.3l-25.1-248c-2.8-28.1,19-52.6,47.2-53l578.8-8c29.2-.4,52.1,25.1,48.5,54.1l-33.7,270.9c-3.1,24.6-24.4,42.9-49.2,42.2Z"/>
    </clipPath>
  </defs>
  <g id="illustration">
    <g>
      <path class="cls-2" d="m487.03,315.78s-12.8,85.98-130.47,201.44c-117.67,115.46-206.47,8.67-218.58-3.51-24.57-17.7-162.9-220.33-73.18-388.74C169.79-37.13,404.18,5.67,464.63,139.98c0,0,42.53,77.14,22.41,175.8Z"/>
      <g class="cls-15">
        <g class="cls-18">
          <path class="cls-12" d="m458.12,164.25s36,79.12,0,240-168.58,119.52-185.38,115.88c-30.25-1.5-256.5-96.38-272.75-286.5C0,40.5,220-51,343.75,28.87c0,0,77.62,41.62,114.38,135.38Z"/>
          <g>
            <g class="cls-17">
              <path class="cls-11" d="m353.23,565.44h415.5c8.3,0,15-6.7,15-15v-235.7c0-8.3-6.7-15-15-15h-415.5c-8.3,0-15,6.7-15,15v235.6c0,8.3,6.7,15.1,15,15.1Z"/>
              <path class="cls-11" d="m-151.37,502.84h419.1c8.3,0,15-6.7,15-15V143.54c0-8.3-6.7-15-15-15H-151.37c-8.3,0-15,6.7-15,15v344.3c0,8.3,6.7,15,15,15Z"/>
              <path class="cls-11" d="m11.73,233.44h20.3c2.2,0,4-1.6,4.3-3.8l1.6-14.4c.3-2.5-1.7-4.8-4.3-4.8H10.13c-2.6,0-4.5,2.2-4.3,4.8l1.6,14.4c.3,2.1,2.2,3.8,4.3,3.8Z"/>
              <path class="cls-16" d="m24.33,210.44s8-.8,9.6-11.6c0,0-7.2,2.1-9.5,7.2,0,0-1-11.4-6.4-12.5,0,0-2.4,8.5,1.4,12.7,0,0-2.9-4.8-10.3-4.7,0,0,1.9,6.8,9.2,8.8"/>
              <path class="cls-11" d="m356.43,349.44h90.2c2.3,0,4.2-1.9,4.2-4.2v-27.4c0-2.3-1.9-4.2-4.2-4.2h-90.2c-2.3,0-4.2,1.9-4.2,4.2v27.4c-.1,2.3,1.8,4.2,4.2,4.2Z"/>
              <path class="cls-16" d="m391.13,323.34h20.8c.8,0,1.5-.7,1.5-1.5h0c0-.8-.7-1.5-1.5-1.5h-20.8c-.8,0-1.5.7-1.5,1.5h0c0,.8.7,1.5,1.5,1.5Z"/>
              <path class="cls-11" d="m356.43,395.24h90.2c2.3,0,4.2-1.9,4.2-4.2v-27.4c0-2.3-1.9-4.2-4.2-4.2h-90.2c-2.3,0-4.2,1.9-4.2,4.2v27.4c-.1,2.3,1.8,4.2,4.2,4.2Z"/>
              <path class="cls-16" d="m391.13,369.14h20.8c.8,0,1.5-.7,1.5-1.5h0c0-.8-.7-1.5-1.5-1.5h-20.8c-.8,0-1.5.7-1.5,1.5h0c0,.8.7,1.5,1.5,1.5Z"/>
              <path class="cls-11" d="m-62.27,380.94H27.93c2.3,0,4.2-1.9,4.2-4.2v-27.4c0-2.3-1.9-4.2-4.2-4.2H-62.27c-2.3,0-4.2,1.9-4.2,4.2v27.4c-.1,2.3,1.8,4.2,4.2,4.2Z"/>
              <path class="cls-11" d="m53.53,380.94h90.2c2.3,0,4.2-1.9,4.2-4.2v-27.4c0-2.3-1.9-4.2-4.2-4.2H53.53c-2.3,0-4.2,1.9-4.2,4.2v27.4c-.1,2.3,1.8,4.2,4.2,4.2Z"/>
              <path class="cls-16" d="m88.23,354.74h20.8c.8,0,1.5-.7,1.5-1.5h0c0-.8-.7-1.5-1.5-1.5h-20.8c-.8,0-1.5.7-1.5,1.5h0c0,.9.7,1.5,1.5,1.5Z"/>
              <path class="cls-11" d="m471.33,349.44h90.2c2.3,0,4.2-1.9,4.2-4.2v-27.4c0-2.3-1.9-4.2-4.2-4.2h-90.2c-2.3,0-4.2,1.9-4.2,4.2v27.4c0,2.3,1.9,4.2,4.2,4.2Z"/>
              <path class="cls-11" d="m471.33,395.24h90.2c2.3,0,4.2-1.9,4.2-4.2v-27.4c0-2.3-1.9-4.2-4.2-4.2h-90.2c-2.3,0-4.2,1.9-4.2,4.2v27.4c0,2.3,1.9,4.2,4.2,4.2Z"/>
              <path class="cls-11" d="m-193.67,233.44h455c2.5,0,4.6-2.1,4.6-4.6v-79.7c0-2.5-2.1-4.6-4.6-4.6H-193.67c-2.5,0-4.6,2.1-4.6,4.6v79.7c0,2.5,2.1,4.6,4.6,4.6Z"/>
              <path class="cls-11" d="m-193.67,332.34h455c2.5,0,4.6-2.1,4.6-4.6v-79.7c0-2.5-2.1-4.6-4.6-4.6H-193.67c-2.5,0-4.6,2.1-4.6,4.6v79.7c0,2.5,2.1,4.6,4.6,4.6Z"/>
              <rect class="cls-11" x="225.41" y="183.14" width="9.9" height="50.3"/>
              <rect class="cls-11" x="215.16" y="196.75" width="10.3" height="36.6"/>
              <rect class="cls-11" x="60.61" y="183.14" width="9.9" height="50.3"/>
              <rect class="cls-11" x="50.36" y="196.75" width="10.3" height="36.6"/>
              <rect class="cls-11" x="158.33" y="183.14" width="9.9" height="50.3"/>
              <rect class="cls-11" x="175.43" y="182.31" width="9.9" height="50.3" transform="translate(-54.1 63.94) rotate(-17.52)"/>
              <rect class="cls-11" x="148.09" y="196.75" width="10.3" height="36.6"/>
              <line class="cls-11" x1="588.23" y1="414.14" x2="-368.97" y2="404.64"/>
            </g>
            <path class="cls-6" d="m235.33,269.54l-19.5,155.8c-.2,1.7,1.1,3.2,2.8,3.2h0c1.4,0,2.6-1,2.8-2.4l22.3-152.7-8.4-3.9Z"/>
            <path class="cls-6" d="m295.93,291.84l19.5,155.8c.2,1.7-1.1,3.2-2.8,3.2h0c-1.4,0-2.6-1-2.8-2.4l-22.3-152.7,8.4-3.9Z"/>
            <path class="cls-6" d="m201.33,285.74l-26.2,154.8c-.3,1.7,1,3.2,2.7,3.3h0c1.4.1,2.6-.9,2.9-2.3l28.9-151.6-8.3-4.2Z"/>
            <path class="cls-6" d="m274.73,270.24l14.4,156.3c.2,1.7,1.8,2.9,3.4,2.5h0c1.4-.3,2.3-1.6,2.2-2.9l-10.9-154-9.1-1.9Z"/>
            <path class="cls-4" d="m316.43,131.14c-10.9-1.8-47,124.6-47,124.6h34.7s-17,20.3-17.6,22.2c-.6,1.9-6.8,27.6-6.8,27.6,41.5-13.2,32.3-49.9,32.3-49.9-8.9-27.5,3.5-62.7,8.8-91.8,5.3-29.2-4.4-32.7-4.4-32.7Z"/>
            <path class="cls-4" d="m187.83,298.84s.9,13.7,36.6,15.7,81.7-1.5,87.7-42c.1,0-117.1,14.9-124.3,26.3Z"/>
            <path class="cls-2" d="m303.33,252.94c-9.7-35.4,27.8-114.5,13.2-121.9-15-7.5-72.6-4.4-88.1,9-14.5,12.6-21.1,106-21.9,117.8-.1.4-.1.8-.1,1.2,0,7-1,18.8-6.1,22.5-9.9,7.2-26.2,18.1,5,26.1,0,0,13.5,3.1,52,1.5,52.1-2.2,46.9-34.3,46.8-53.5,0-.9-.3-1.8-.8-2.7Z"/>
            <path class="cls-1" d="m164.13,432.54s4.4,21,5.4,22.7,8.5,5.4,18.7,2.4c10.2-3.1,10.5-6.8,10.5-6.8,0,0-2-24.1-2-26.8-.1-2.7-34.3-7.5-32.6,8.5Z"/>
            <path class="cls-5" d="m197.73,439.34c-.5-6.6-1.1-13.9-1.1-15.3,0-2.7-34.3-7.5-32.6,8.5,0,0,.7,3.2,1.5,7.2,10.8,2.9,21.9,2.7,32.2-.4Z"/>
            <path class="cls-21" d="m168.43,451.64s-1.2,1.9-1.2,11.8-15,32.3-14,38.4c1,6.1,43.2,7.6,47,3.1,3.8-4.6-.2-37.7.1-41.2.2-3.6,1.6-10.1-1.8-14.3,0,0-3.5,3.5-6.3,4.1-2.8.6-5.4-5.1-10.9-6.1s-9.1,5.5-9.7,6.1c-.6.6-3-.2-3.2-1.9Z"/>
            <path class="cls-10" d="m170.23,475.04s8.5-5.9,22,.8"/>
            <path class="cls-10" d="m166.93,484.44s11.8-8.3,25.4,1.7"/>
            <path class="cls-1" d="m272.83,443.94s6.8,19,10.5,22.4c3.7,3.4,13.6,3.7,20.4,0,6.8-3.7,6.5-9.3,6.5-9.3,0,0-5.9-31.1-7.2-31.9-1.4-.9-30.2,9.7-30.2,18.8Z"/>
            <path class="cls-5" d="m272.83,443.94s1.7,4.7,3.8,9.9c11.6,2,21.7-1.9,31.5-7.5-1.8-9.1-4.3-20.7-5.1-21.2-1.4-.9-30.2,9.7-30.2,18.8Z"/>
            <path class="cls-21" d="m280.23,461.04s-.9.3,1.7,8.7c1.3,4.5-13.1,27.6-12.8,33.3.3,5.7,12.3,6.7,21.8,7,14.5.4,24-2.5,24.8-11.8.8-9.3-1.7-27.4-1.7-31.4s-1.3-8.6-4.6-14c0,0,.3,7.5-2.7,8.9-3,1.5-8.6-4-12.9-2.9-4.3,1.1-6.1,4.4-7.9,6.3-1.8,1.8-5.2-3-5.7-4.1Z"/>
            <path class="cls-10" d="m284.63,480.44s7.8-7.8,21.5-1.8"/>
            <path class="cls-10" d="m280.33,489.34s12.3-10.2,25.7-.8"/>
            <path class="cls-21" d="m202.63,253.64s-45.9,25.3-58,48.5c-12.1,23.2,6.8,97.1,6.5,112.7-.3,15.6,1.7,17.9,10.4,21.2,8.7,3.3,27.6,2.6,35.5-3.3,10.2-7.6,5.5-21.5,3.2-38.3-2.3-16.7-3.4-66.4-3.4-66.4,0,0,21.6-17.5,32.2-22.7,2.1-1.1,4.4-1.5,6.5-1.7,3.3-.2,5.7,2.9,4.8,6-2.6,9.2-6.3,32.3-4.8,42.9,1.4,9.9,8.3,34.4,21.8,75.9,2.7,8.2,3.6,14.8,6.9,17.6,13.9,11.7,44.1-.8,47.3-11.7,1.3-4.5-2-19.8-6.3-36.5-6.1-23.9-14.3-50.7-13.7-53.6,1-4.9,13.9-49.9,10.5-70.1-8.2-48.9-46.1-29.2-99.4-20.5Z"/>
            <ellipse class="cls-10" cx="159.03" cy="316.24" rx="15.1" ry="16.5"/>
            <ellipse class="cls-8" cx="256.85" cy="352.74" rx="15.6" ry="16.6" transform="translate(-45.65 38.27) rotate(-7.83)"/>
            <path class="cls-10" d="m196.83,328.04s-.6-6.2-2.5-9.5"/>
            <path class="cls-10" d="m236.83,303.34s1.1-6.9-.7-8.9"/>
            <path class="cls-10" d="m224.43,295.24s7.4-.6,23.4,0"/>
            <path class="cls-22" d="m208.53,151.94s-5.8,2.1-14.8,15.7c-8.7,13.1-16.5,21.3-16.5,21.3,0,0-10.3-11.3-21.1-18.5-10.8-7.2-23.1-18.5-23.1-18.5,0,0-8.1-4.4-13.2,1.6-5.1,5.9-2.5,14.7-2.5,14.7,0,0,12.1,16.4,29.9,37.8,11.6,14,23.4,24,33.3,20.9,13.2-4.1,39.2-27.7,43.7-37.1,4.4-9.5,1.1-41.3-15.7-37.9Z"/>
            <path class="cls-13" d="m177.13,188.94s3.6,4.4,5.3,9.9"/>
            <path class="cls-1" d="m133.43,152.44s-8-6.6-13.7-6c-7.4.8-7.3-.9-12,.1-2.2.5-6.2,2.1-10.4,7.3-4.2,5.2-5.7,7.9-5.7,7.9,0,0-4.4-9.4-7.1-7.9-2.7,1.4,3.7,15.9,5.9,17.4,2.2,1.5,8.7-1.1,11,0,2.3,1.1,8.5-.9,8.5-.9l8.5-2.1,2.2,2.4c.7.8,1.8,1,2.8.7,2-.8,5.4-2.7,7.6-7.4,3.5-7.3,2.4-11.5,2.4-11.5Z"/>
            <path class="cls-7" d="m91.63,161.74s-4.4-9.4-7.1-7.9c-2.7,1.4,3.7,15.9,5.9,17.4,2.2,1.5,8.7-1.1,11,0"/>
            <path class="cls-1" d="m123.13,158.84s-2.9,7.6-6.5,12.5c-3.7,4.9-9,5.1-11.4,3.5-2.4-1.5.8-12.6,1.5-15.3.7-2.7,2.9-5.2,4.3-2.2,1.1,2.3-.5,7.8-.2,12.2"/>
            <path class="cls-1" d="m106.53,173.94s-3.1,1.9-4.9,1.3-2.9-1.9-3.2-4.6c-.3-2.6.7-10.8.6-12.9-.1-2.1,3.2-3.8,4.6,1,1.4,4.9.7,9,1.6,10"/>
            <path class="cls-1" d="m99.73,172.54s-2.3,1.2-4.7,1.4c-2.4.2-3.5-1.4-4.3-6.3-.9-5.9-1.6-11.9.5-12.2,2.1-.3,3.2,2.9,4,6.2.8,3.3,1.3,5.4,1.8,5.5"/>
            <path class="cls-1" d="m108.73,146.44s-5.7.4-7.8.4-7.6-1.4-8.8.3c-1.2,1.7,2.2,4.8,8.3,5.6,6.1.9,12-4,8.3-6.3Z"/>
            <path class="cls-13" d="m123.13,175.94s7.9,2.6,13.4-5.3c4.9-7,3-13,3-13"/>
            <path class="cls-13" d="m164.53,222.94s-1.9-2.3,3-3.7c5-1.4,24-2.2,21.7,3.3"/>
            <path class="cls-7" d="m123.13,158.84s-2.9,7.6-6.5,12.5c-3.7,4.9-9,5.1-11.4,3.5-2.4-1.5.8-12.6,1.5-15.3.7-2.7,2.9-5.2,4.3-2.2,1.1,2.3-.5,7.8-.2,12.2"/>
            <path class="cls-7" d="m104.63,174.84c-1,.4-2.1.7-3,.4-1.8-.6-2.9-1.9-3.2-4.6-.3-2.6.7-10.8.6-12.9-.1-2.1,3.2-3.8,4.6,1,1,3.6.9,6.7,1.2,8.6"/>
            <path class="cls-7" d="m98.93,172.84c-.9.4-2.3.9-3.9,1-2.4.2-3.5-1.4-4.3-6.3-.9-5.9-1.6-11.9.5-12.2,2.1-.3,3.2,2.9,4,6.2.8,3.3,1.3,5.4,1.8,5.5"/>
            <path class="cls-7" d="m98.63,152.54s3.1-3.1,5.6-4.5"/>
            <path class="cls-19" d="m219.53,98.64c-.1-1.8,0-3.6.3-5.4.8-4.2,2.9-13,6.4-15.9,5.2-4.3,8,2.1,8,2.1,0,0,3.6-4.7,7-4.2,3.4.4,5.2,4.5,5.2,4.5,0,0,5.5-4.5,8.8-2.3,3.3,2.1,4.2,5.6,4.2,5.6,0,0,3.5-4,7.2-2.4,3.7,1.7,4.4,11.1,4.4,11.1,0,0,3.7,2.1,4.5,9.4.9,7.8-2.9,19.3-10.7,32.5,0,0-16.1-29-26.3-33.1-10.2-4.1-10.1,3.5-13.3,3.7-2.8.1-5.2-.2-5.7-5.6Z"/>
            <path class="cls-22" d="m221.53,152.74s-12.5,1.5,2.1-11.7c12.6-11.4,54.6-8.2,60,1.6,4,7.3,9.1,26.8-7.9,38.5-17,11.6-46.6-.7-54.2-28.4Z"/>
            <path class="cls-4" d="m245.53,149.04s11.7-.5,21.5-.9c9.7-.5,24.1-.2,32,10.6,9.1,12.3-4.6,54.7-6.6,65.5s5.7,23.8,5.3,32.7c-.2,5.1-6.6,18.5-35,21-32.1,2.9-60.4-3.7-63.5-22.2-2.1-12.4,6.1-21.1,3.3-41.3-1.5-10.6-3.4-44.9.2-54.6,3.6-9.7,9.6-12.9,42.8-10.8Z"/>
            <path class="cls-1" d="m233.53,139.24s-1.4,11.1-2,14c-.5,2.9,1,11.1,12.6,11,12.5-.1,20.3-10.1,20.6-14.1s-.7-23.3,1-29.7-14.3-2.7-21.2,1.3c-6.9,4-11.7,14.2-11,17.5Z"/>
            <path class="cls-5" d="m254.23,138.34c-6.5,1.5-14.5,7.1-21.4,6-.2,1.7-.5,3.5-.7,5.1,9.2,1.5,17.9-4.3,22.1-11.1Z"/>
            <path class="cls-22" d="m232.53,146.74s-1.6,11.5,8.1,17.2c0,0,11.2-1,19.4-9,3.1-3,4.7-7.2,4.7-11.5v-.9s15.7.2,20.2,4.9c8.6,9-26.7,23.3-45.9,26.3,0,0-17.8-9.9-22-20-4.2-10.2,14.1-6.6,15.5-7Z"/>
            <path class="cls-13" d="m235.73,167.44s-4.6,13.5-5.8,29.3"/>
            <path class="cls-22" d="m232.23,197.94c.1-1.3-.6-5.3-1.9-5.4-1.3-.1-2.8,3.7-2.9,5-.1,1.3.9,2.5,2.2,2.6,1.3.2,2.5-.8,2.6-2.2Z"/>
            <path class="cls-13" d="m247.43,167.74s-1.4,14.2,1.1,29.8"/>
            <path class="cls-22" d="m251.13,198.34c-.2-1.3-1.8-5-3.1-4.8s-1.9,4.2-1.7,5.5c.2,1.3,1.4,2.3,2.8,2.1,1.3-.3,2.2-1.5,2-2.8Z"/>
            <path class="cls-22" d="m210.93,243.34c1.3-2,5.3-9.2,6.1-17.1.2-2,2-3.4,3.9-3.2,7.4.8,23.9,2.3,36.3,1.2,2-.2,3.7,1.3,3.9,3.3.4,4.3,2.3,11.6,9.7,18.7.6.5,1,1.2,1.1,2,.5,2.7,1.6,9.3,1.3,14.9-.4,6.9-46.8,11.6-62.8-2.6-.8-.7-1.2-1.8-1.2-2.8.1-2.7.5-8.3,1.2-12.9.1-.7.3-1.1.5-1.5Z"/>
            <path class="cls-1" d="m220.43,103.34s-.2,9.8-1.1,18.2c-.8,8.4,0,19.6,13.5,23.1,13.5,3.5,26.6-6.7,31.5-20.1,4.9-13.4,5.1-31.5-12.1-38.6-17.2-7.1-31,1.8-31.8,17.4Z"/>
            <path class="cls-19" d="m270.73,111.94c-1.3,6.3-2.2,9.7-2.2,9.7l-4.2-4.4s-7.2-1-8.2-13.9c-.2-2.2-1.4-4.2-3.4-5.2-5.9-3.1-9,1.5-20.5.7-3.9-.3-9.9-.9-9.7-6.9.5-15.6,24.6-14.4,36-7.3,11.4,7,13.5,21.1,12.2,27.3Z"/>
            <path class="cls-1" d="m259.53,118.14s2.6-5.9,6.9-5.3c4.6.6,5,14.4-6.9,15.2"/>
            <path class="cls-19" d="m226.73,110.44c.2,1.4.2,2.8.1,4.1-.1,1.4-.3,2.8-.8,4.1-.1.3-.3.7-.4,1s-.2.5-.3.8c-.1.5-.1.9.1,1.3.4.9,1.6,1.6,2.9,2.1-.7.2-1.4.2-2.2,0-.7-.2-1.5-.6-2-1.3-.3-.3-.5-.8-.6-1.2-.1-.5-.1-.9,0-1.3.1-.4.3-.9.4-1.1.1-.3.3-.6.4-.8,1-2.5,1.5-5.1,2.4-7.7Z"/>
            <path class="cls-14" d="m232.33,132.04s.7-1.5,2.4-.2c1.7,1.3,2.4.8,3.3-.3.9-1.1,1.3,1,3.3.2"/>
            <path class="cls-19" d="m240.93,107.94c-.5-.6-.6-2.8,1.4-3.7,2-.9,5.3.6,7.2,2.6s.9,3-1.4,2c-2.4-.9-3.3-1.2-5.3-.5-.8.3-1.6.1-1.9-.4Z"/>
            <path class="cls-19" d="m226.73,106.94c.4-.5.7-2.4-.7-3.4-1.4-1-3.7,0-4.9,1.6-1.1,1.4-.6,2.2.9,1.8,1.5-.5,2.1-.6,3.4.2.5.3,1,.1,1.3-.2Z"/>
            <path class="cls-19" d="m266.73,118.34c-.4-.2-.8-.4-1.1-.4s-.4.1-.5.3c-.2.5-.4,1.1-.4,1.9-.1.7-.1,1.7-.7,2.7-.3.5-.8.8-1.3.9-.2.1-.5.1-.7.1s-.5-.1-.7-.1c.8-.5,1.4-1,1.4-1.5.1-.5.1-1.3.2-2.2.1-.9.3-1.9,1.2-2.7.2-.2.6-.4.9-.4.4,0,.7.1.9.2.4.4.7.8.8,1.2Z"/>
            <path class="cls-19" d="m224.13,115.64h0c.8.1,1.6-.5,1.6-1.3l.1-.9c.1-.8-.5-1.6-1.3-1.6h0c-.8-.1-1.6.5-1.6,1.3l-.1.9c-.2.7.4,1.5,1.3,1.6Z"/>
            <path class="cls-19" d="m242.03,117.34h0c.8.1,1.6-.5,1.6-1.3l.1-.9c.1-.8-.5-1.6-1.3-1.6h0c-.8-.1-1.6.5-1.6,1.3l-.1.9c-.1.7.5,1.5,1.3,1.6Z"/>
            <path class="cls-22" d="m293.63,156.44c2.3-.1,4.5.9,6.2,2.5,2,1.9,6.2,5.9,14.4,13.6,13.2,12.5,15,14.9,15,14.9,0,0,11.6,9.1,12.8,20.4,1.2,11.3-6.4,26.5-26.2,13.8-19.8-12.7-29.4-21.2-33.4-29.8-3.6-7.7-1.5-35.1,11.2-35.4Z"/>
            <path class="cls-22" d="m323.33,198.34s4.5-10.4,14.9-20.3c10.4-9.9,22.7-22.1,25-24.5,2.3-2.5,7.9-7.9,15.5-2,7.7,5.9,3.2,16.2,3.2,16.2,0,0-13.3,21.4-24.3,39.6-11,18.2-22.2,24.2-36.4,17.3-14.3-7,2.1-26.3,2.1-26.3Z"/>
            <path class="cls-1" d="m363.23,155.04s5.7-7.7,8-10.4c2.3-2.7,6.5-6.8,12-5.2,5.6,1.6,8.4-1.8,12.6,2.6s7.1,12.5,9.8,15.5,2,3.8,6.3,3.7c4.3-.1,7.8.9,6,3.3-1.8,2.4-13.5,3-15.1,2.8s-9.1.8-11-.1c-1.9-.9-1.6-.1-3.2-1-1.6-.9-5.7-2.9-5.7-2.9,0,0-1.3,2.6-3,4.4s-9.1,1.5-13.9-4.1c-4.1-4.8-2.8-8.6-2.8-8.6Z"/>
            <path class="cls-7" d="m405.63,157.64c2.7,3,2,3.8,6.3,3.7,4.3-.1,7.8.9,6,3.3-1.8,2.4-13.5,3-15.1,2.8"/>
            <path class="cls-1" d="m389.03,164.14c.2-5.3,1.9-9.5,3.5-8.9,1.7.6,2.5,11.9-1.3,14.5-3.9,2.6-14-11.4-16-12.3"/>
            <path class="cls-1" d="m390.73,168.84s2.1,4.1,5.2,2.1c3.1-1.9,6.2-11.2,6.8-13.2.7-2-3.2-2.8-5.7,2.1-2.4,4.9-4.3,5.6-4.3,5.6"/>
            <path class="cls-1" d="m396.73,169.24s1.4,2.6,4.5,1.8c3.1-.8,7.1-7,9-9s-.5-4.6-3.8-2.2c-3.3,2.4-5.7,4.7-7.3,5.2"/>
            <path class="cls-1" d="m394.43,140.94s2.4,1.2,5.5,5.4c3.2,4.2,9.1,4.8,9.8,7s-5.6,3.1-10.6.7c-4.9-2.5-6.9-12.6-4.7-13.1Z"/>
            <path class="cls-13" d="m356.93,159.84s-1.5,6.8,4.7,12.3c7.6,6.8,15.6,3,15.6,3"/>
            <path class="cls-13" d="m321.13,224.54s-2.3-3.4,5.3-5.1c7.6-1.7,20.5-2.6,19.2,2.6"/>
            <path class="cls-7" d="m389.03,164.14c.2-5.3,1.9-9.5,3.5-8.9,1.7.6,2.5,11.9-1.3,14.5-3.9,2.6-14-11.4-16-12.3"/>
            <path class="cls-7" d="m395.93,170.94c3.1-1.9,6.2-11.2,6.8-13.2.7-2-3.2-2.8-5.7,2.1-1.4,2.9-2.7,4.3-3.4,5"/>
            <path class="cls-7" d="m397.53,170.14c.7.6,1.9,1.3,3.7.8,3.1-.8,7.1-7,9-9s-.5-4.6-3.8-2.2c-2.6,1.8-4.6,3.7-6.1,4.6"/>
            <path class="cls-7" d="m404.13,155.44s-2.7-4.6-3.7-5.9"/>
            <path class="cls-13" d="m329.73,187.74s-5.6,6.5-6.8,14.3"/>
            <path class="cls-22" d="m23.33,216.94H-11.27c-1.3,0-2.7-1.1-3-2.4l-5-20.7c-.3-1.3.5-2.4,1.9-2.4H17.23c1.3,0,2.7,1.1,3,2.4l5,20.7c.3,1.3-.5,2.4-1.9,2.4Z"/>
            <path class="cls-13" d="m-18.77,191.94L.83,202.94c1.3.8,2.8.8,3.8,0l14.3-11"/>
            <path class="cls-6" d="m497.53,218.84l-78.8-4.7c-1.9-.1-3.2-2-2.6-3.8l22-69.9c.6-1.8,2.2-3.1,4.1-3.3l82.2-6c2.1-.2,3.6,1.8,3,3.8l-25.2,80.6c-.6,2.1-2.6,3.5-4.7,3.3Z"/>
            <path class="cls-21" d="m494.63,217.04l-78.8-4.7c-1.9-.1-3.2-2-2.6-3.8l22-69.9c.6-1.8,2.2-3.1,4.1-3.3l82.2-6c2.1-.2,3.6,1.8,3,3.8l-25.2,80.6c-.6,2.1-2.6,3.5-4.7,3.3Z"/>
            <path class="cls-4" d="m454.23,148.84l-13.9.7c-.5,0-.8-.4-.7-.9l1-3.2c.2-.5.6-.8,1.1-.8l14-.8c.5,0,.8.4.7.9l-1.1,3.3c-.2.4-.6.7-1.1.8Z"/>
            <path class="cls-4" d="m425.23,203.14h0c-1.4-.1-2.4-1.4-2-2.8l6.6-20.8c.3-.9,1.1-1.5,2-1.5h0c1.4,0,2.5,1.4,2,2.8l-6.6,20.8c-.1.9-1,1.6-2,1.5Z"/>
            <path class="cls-6" d="m435.13,203.54h0c-1.5-.1-2.5-1.5-2-2.9l10.6-33.7c.3-.9,1.1-1.5,2.1-1.6h0c1.5,0,2.6,1.4,2.2,2.9l-10.6,33.7c-.4,1.1-1.3,1.7-2.3,1.6Z"/>
            <path class="cls-4" d="m445.33,204.04h0c-1.5-.1-2.5-1.5-2.1-3l4.4-13.9c.3-1,1.2-1.6,2.2-1.6h0c1.5,0,2.6,1.5,2.2,3l-4.4,13.9c-.3,1-1.3,1.6-2.3,1.6Z"/>
            <path class="cls-22" d="m455.93,204.44h0c-1.6-.1-2.6-1.6-2.2-3.1l12.5-39.8c.3-1,1.2-1.6,2.2-1.7h0c1.6,0,2.8,1.5,2.3,3.1l-12.5,39.8c-.3,1.1-1.3,1.8-2.3,1.7Z"/>
            <path class="cls-6" d="m466.83,204.94h0c-1.6-.1-2.7-1.7-2.3-3.2l8.2-26.2c.3-1,1.3-1.7,2.3-1.7h0c1.7,0,2.9,1.6,2.4,3.2l-8.2,26.2c-.3,1-1.3,1.7-2.4,1.7Z"/>
            <path class="cls-20" d="m478.23,205.44h0c-1.7-.1-2.8-1.7-2.3-3.3l1.7-5.6c.3-1.1,1.4-1.8,2.5-1.8h0c1.7,0,2.9,1.7,2.4,3.3l-1.7,5.6c-.4,1.1-1.5,1.8-2.6,1.8Z"/>
            <path class="cls-4" d="m489.93,205.94h0c-1.7-.1-2.9-1.8-2.4-3.4l8.5-27c.3-1.1,1.4-1.9,2.5-1.9h0c1.8,0,3.1,1.7,2.6,3.4l-8.5,27c-.4,1.2-1.5,1.9-2.7,1.9Z"/>
            <path class="cls-10" d="m200.33,67.24s-7.2.3-9-6.3c-1.8-6.6,5-9.6,5-3.4s-9.7,8.9-13.7,3.7c-4.1-5.2.7-9.2,2-6.2,1.4,3-1.8,9.3-7.5,7.4"/>
            <path class="cls-10" d="m286.33,77.54s12.3-.7,11.5-9.6c-.8-8.9-8.8,7.6,1.9,7.4,10.6-.2,10.1-10.3,6.9-11-3.2-.7-2.4,7.1,3.5,6.6s6.8-4.1,6.8-4.1"/>
            <path class="cls-22" d="m245.73,60.24c0-1.9-1.5-3.4-3.4-3.4s-3.4,1.5-3.4,3.4,1.5,3.4,3.4,3.4c1.9,0,3.4-1.5,3.4-3.4Z"/>
            <path class="cls-4" d="m262.13,23.34c.4,5.8-1.7,11.1-5.2,14.9-3.8,4.1-5.9,9.5-5.9,15.1v3.5c0,1.9-1.6,3.5-3.5,3.5h-10.2c-1.9,0-3.5-1.6-3.5-3.5v-3.5c0-5.6-2.1-11-5.9-15-3.3-3.5-5.3-8.3-5.3-13.5,0-11.4,9.7-20.6,21.2-19.8,9.7.6,17.6,8.5,18.3,18.3Z"/>
            <line class="cls-13" x1="233.73" y1="53.34" x2="250.93" y2="53.34"/>
            <line class="cls-13" x1="233.73" y1="56.74" x2="250.93" y2="56.74"/>
            <path class="cls-13" d="m240.53,53.34v-27.4c0-2.5-2.8-4-4.9-2.6h0c-1.6,1.1-1.8,3.5-.3,4.9l1.2,1.1"/>
            <path class="cls-13" d="m244.13,53.34v-27.4c0-2.5,2.8-4,4.9-2.6h0c1.6,1.1,1.8,3.5.3,4.9l-1.2,1.1"/>
            <path class="cls-6" d="m162.13,128.84l-8.8-80.6c-.3-2.4-2.2-4.4-4.6-4.7l-114.1-14.9c-2.6-.3-4.8,1.9-4.5,4.5l11.2,96.1c.3,2.7,2.6,4.7,5.3,4.7l111.4-.6c2.5,0,4.4-2.1,4.1-4.5Z"/>
            <path class="cls-21" d="m167.23,128.44l-8.8-81.2c-.3-2.5-2.2-4.4-4.6-4.7l-114.9-15c-2.6-.3-4.9,1.9-4.6,4.5l11.3,96.8c.3,2.7,2.6,4.7,5.3,4.7l112.3-.6c2.4,0,4.2-2.1,4-4.5Z"/>
            <path class="cls-4" d="m152.73,120.44H61.33l-.3-3,19.3-27.2c2.3-3.3,6.6-4.6,10.4-3l8.8,3.6c4,1.6,8.5.1,10.7-3.5l3.9-6.4c2.2-3.6,6.6-5.1,10.5-3.6,1,.4,2.1.6,3.1.6,2.7,0,5.2-1.2,6.9-3.4l12-15.7,6.1,61.6Z"/>
            <line class="cls-10" x1="61.03" y1="117.44" x2="54.13" y2="57.64"/>
            <path class="cls-10" d="m60.73,114.74l15.7-41c1.6-4.3,6.4-6.4,10.7-4.7l8.1,3.2c3.3,1.3,7.1.3,9.4-2.4l5.4-6.6c3-3.6,8.3-4.1,11.8-.9h0c2.7,2.5,6.8,2.8,9.9.8l14.6-9.3"/>
            <path class="cls-22" d="m53.43,49.74l-.6-4.8c-.1-.7.5-1.4,1.3-1.3l21.7,2.3c.7.1,1.2.6,1.3,1.2l.7,4.4c.1.6-.4,1.1-1,1l-22.1-1.6c-.7.1-1.2-.5-1.3-1.2Z"/>
            <path class="cls-2" d="m407.33,96.14c-23.1,22.4-51.8,26.8-62.2,11.4-9.2-13.6-.5-37.8,18.3-55.3,18.5-17.2,42.9-24.3,56.1-15.2,14.9,10.2,10.5,37.1-12.2,59.1Z"/>
            <path class="cls-4" d="m404.03,92.74c-23.1,22.4-51.8,26.8-62.2,11.4-9.2-13.6-.5-37.8,18.3-55.3,18.5-17.2,42.9-24.3,56.1-15.2,15,10.3,10.5,37.2-12.2,59.1Z"/>
            <path class="cls-22" d="m394.33,83.04c-13.9,13.3-31.3,16.6-38.3,7.7-6.4-8.2-1.3-23.7,10.9-35.1,12.1-11.3,27.8-15.6,35.9-9.2,8.7,6.8,5.2,23.4-8.5,36.6Z"/>
            <path class="cls-20" d="m385.43,74.14c-5.5,5.2-12.5,6.7-15.5,3.4-2.9-3.2-1-9.7,4.2-14.6,5.2-4.9,11.9-6.5,15.1-3.6,3.3,2.9,1.7,9.6-3.8,14.8Z"/>
            <path class="cls-21" d="m349.93,40.54h0c-2.1,2-5.5,1.8-7.4-.3l-17.8-22.7c-.9-1.2-.8-2.9.3-3.9h0c1.1-1,2.8-1,3.9,0l21.2,19.5c2.1,2.1,2,5.4-.2,7.4Z"/>
            <path class="cls-22" d="m328.83,21.84l-5.7.8c-1.6.2-2.2,2.2-1,3.2h0c3.5,3.1,7.8,5.1,12.4,5.9l2.9.5c.3.1.6-.3.4-.6l-7.2-9.1c-.5-.5-1.1-.8-1.8-.7Z"/>
            <path class="cls-22" d="m333.03,18.04l1.3-5.6c.3-1.5,2.3-2,3.3-.7h0c2.8,3.7,4.5,8.1,4.9,12.8l.2,2.9c0,.3-.4.5-.6.3l-8.5-7.8c-.6-.6-.8-1.3-.6-1.9Z"/>
            <line class="cls-13" x1="349.13" y1="39.64" x2="354.83" y2="45.74"/>
            <path class="cls-22" d="m469.23,92.24v-14.6c0-.7-.6-1.3-1.3-1.3h-6.6c-.7,0-1.3.6-1.3,1.3v14.6h-3.8c-1,0-1.6,1.1-1.1,1.9l8.3,13.1c.5.8,1.6.8,2.1,0l8.3-13.1c.5-.8-.1-1.9-1.1-1.9h-3.5Z"/>
            <path class="cls-21" d="m498.23,108.04v-14.6c0-.7-.6-1.3-1.3-1.3h-6.6c-.7,0-1.3.6-1.3,1.3v14.6h-3.8c-1,0-1.6,1.1-1.1,1.9l8.3,13.1c.5.8,1.6.8,2.1,0l8.3-13.1c.5-.8-.1-1.9-1.1-1.9h-3.5Z"/>
            <path class="cls-21" d="m20.53,165.64c.5-1.8-.6-3.7-2.5-4.2-1.8-.5-3.7.6-4.2,2.5-.5,1.8.6,3.7,2.5,4.2,1.8.5,3.7-.6,4.2-2.5Z"/>
            <path class="cls-22" d="m24.73,157.44l.2-.9c.8-2.9-1-5.9-3.9-6.7h0c-2.9-.8-5.9,1-6.7,3.9l-.2.9c-.3,1-.8,1.9-1.5,2.7-.6.6-1.2,1.3-1.8,1.9-1.3,1.4-.6,3.7,1.2,4.2l5,1.3,5,1.3c1.8.5,3.6-1.2,3.1-3-.2-.9-.4-1.8-.6-2.6-.1-.9-.1-2,.2-3Z"/>
            <path class="cls-4" d="m-72.17,120.94s37.4-8.5,36.8-28.3l57.2,4.5s-.7,24.3-38,36.7c-.1,0-39.8-5.3-56-12.9Z"/>
            <path class="cls-13" d="m-30.07,106.44s25.8,3.6,30.4,4.2"/>
            <path class="cls-2" d="m331.03,131.54c-3.9,8.5-13.3,14.1-19.7,12.4-5.6-1.5-6.7-8.2-3.1-14.8,3.4-6.4,10.5-11.4,16.5-11.6,6.7-.1,10,6,6.3,14Z"/>
            <path class="cls-4" d="m329.03,129.84c-3.9,8.5-13.3,14.1-19.7,12.4-5.6-1.5-6.7-8.2-3.1-14.8,3.4-6.4,10.5-11.4,16.5-11.6,6.8-.2,10,5.9,6.3,14Z"/>
            <path class="cls-2" d="m325.83,129.54c-3,6.3-9.9,10.6-14.8,9.5-4.4-1-5.4-6.1-2.6-11.4,2.7-5,8.3-9,12.9-9,5.1,0,7.4,4.8,4.5,10.9Z"/>
            <path class="cls-4" d="m312.53,134.94l.4-.7c.1-.3.1-.5-.1-.6-.5-.2-.9-.4-1.1-.7-.1-.1-.1-.4.1-.7l.1-.1c.2-.3.6-.4.7-.2.3.3.8.6,1.4.7,1,.2,2.1-.5,2.6-1.4s.2-1.6-.6-2.2c-1.1-.8-1.6-1.7-.8-3.1.6-1.2,1.8-2.1,3.1-2.4.2,0,.5-.2.6-.5l.4-.7c.1-.3.5-.5.7-.5h0c.2,0,.3.2.2.5l-.3.6c-.1.3-.1.5.2.5.4.1.7.2,1,.4.2.1.1.4-.1.7l-.1.1c-.2.3-.6.4-.8.3-.3-.2-.7-.4-1.3-.4-1.1-.1-1.9.6-2.2,1.3-.4.8-.1,1.3.8,2,1.2.9,1.5,1.9.7,3.4-.6,1.3-1.9,2.4-3.4,2.6-.2,0-.5.2-.6.5l-.4.8c-.2.3-.5.5-.7.5h0c-.6-.2-.7-.4-.5-.7Z"/>
            <polygon class="cls-22" points="9.23 277.94 -.57 277.94 -1.07 295.74 8.33 295.74 9.23 277.94"/>
            <path class="cls-6" d="m-1.07,295.74l-5.9,179.2c-.1,1.9,1.4,3.4,3.3,3.4,1.8,0,3.2-1.4,3.3-3.1l8.7-179.5H-1.07Z"/>
            <polygon class="cls-22" points="495.53 277.94 485.83 277.94 486.63 295.74 496.13 295.74 495.53 277.94"/>
            <path class="cls-6" d="m486.63,295.74l8.7,179.5c.1,1.8,1.5,3.1,3.3,3.1,1.9,0,3.4-1.5,3.3-3.4l-5.9-179.2h-9.4Z"/>
            <path class="cls-6" d="m35.33,253.64l-5.5,168.5c-.1,1.6,1.2,2.9,2.8,2.9h0c1.5,0,2.8-1.2,2.8-2.7l8.2-168.7h-8.3Z"/>
            <path class="cls-6" d="m459.63,253.64l5.5,168.5c.1,1.6-1.2,2.9-2.8,2.9h0c-1.5,0-2.8-1.2-2.8-2.7l-8.2-168.7h8.3Z"/>
            <polygon class="cls-2" points="523.23 274.14 -28.27 274.14 29.53 246.64 465.53 246.64 523.23 274.14"/>
            <rect class="cls-6" x="-28.27" y="274.14" width="551.5" height="7.5"/>
            <path class="cls-22" d="m423.73,247.54s-4.7-2.3-6.3-6.9c-1.6-4.6,1.2-7.7,2.4-7.4,1.1.2,3,6.1,4.5,6.1s1.2-10.2,4.2-11.3c2.9-1,2.7,10.1,2.8,11,.2,2.3,4.1-2.7,5.5-4.7,1.7-2.5,7.2,6.5-4.3,13.2,0,0-4.4.9-8.8,0Z"/>
            <path class="cls-21" d="m443.13,248.64v.4c-.1,5.9-1.3,11.8-3.4,17.4h0c-.4.9-1.3,1.6-2.3,1.6h-18c-1,0-1.9-.6-2.3-1.6h0c-2.1-5.6-3.3-11.4-3.4-17.4v-.4c0-1.1.8-1.9,1.9-1.9h25.6c1.1-.1,1.9.8,1.9,1.9Z"/>
            <path class="cls-21" d="m375.53,241.24c-7.8.8-9.8,21.9-24.6,24,0,0-2.7.1-7.1.2-12.7.4-38.9,1-49.5.1,1.4,0,2.9-.1,4.6-.3,4.6-.6,7.9-3.1,10.6-6.1,6-7,8.7-17.3,14-17.8h52v-.1Z"/>
            <path class="cls-22" d="m309.43,259.14c-2.7,3.1-6,5.5-10.6,6.1-1.6.2-3.2.3-4.6.3-11.2,0-14.5-6.2-14.5-6.2,0,0,17.9.8,29.7-.2Z"/>
            <path class="cls-21" d="m233.83,267.64h-72.6v-5.4h78c0,3-2.4,5.4-5.4,5.4Z"/>
            <path class="cls-21" d="m176.83,267.64h-111.9c-3.6,0-6.8-2.5-7.7-6l-18.4-73.3c-.7-2.7,1.4-5.4,4.2-5.4h111.9c3.6,0,6.8,2.5,7.7,6l18.4,73.3c.7,2.7-1.3,5.4-4.2,5.4Z"/>
            <ellipse class="cls-6" cx="103.41" cy="225.26" rx="7.3" ry="9.7" transform="translate(-134.38 155.31) rotate(-48.95)"/>
            <path class="cls-21" d="m239.93,256.84h-23.7c-1.1,0-2.1-.9-2.1-2.1h0c0-6,4.9-10.9,10.9-10.9h6c6,0,10.9,4.9,10.9,10.9h0c0,1.2-.9,2.1-2,2.1Z"/>
            <path class="cls-11" d="m384.33,259.24c-2.2-.4-5.8-1.5-7-5.5-1.2-4,7.9-12.7,10.7-12.7,2.8.1,7.9,2.8,10.6,6.6,2.6,3.8-2.3,6.2-1.7,8,.6,1.9-5,5.1-12.6,3.6Z"/>
            <path class="cls-3" d="m377.33,253.74s4.7,3.4,6.9,2.4c2.2-.9,3.9-3.8,7.8-3.4,3.9.3,3.1-6.4,0-7.5s-5.3,5.9-7.8,6c-2.4.1-3.1-1.5-.8-3.3"/>
            <path class="cls-3" d="m372.63,265.44s2.5-2.9,1.4-4.5c-1.1-1.6-2-2.1-2.5-3-.7-1.4-.6-4.4-2.2-5.9-1.5-1.4-4.2.9-10.2.1-4.6-.6-8.8,6.5-7.2,8.5,1.5,2,2.2,2.4,2.2,2.4,0,0-.9,1.8-.4,2.9s4,2.7,9.3,3.2c5.4.6,9.6-3.7,9.6-3.7Z"/>
            <path class="cls-11" d="m354.13,263.14s4.8,3.7,8.2,2.9c3.4-.8,6.7-7,6.5-8.7-.2-1.7-1.6-2.5-5,.6s-6,2.3-5.7-.4"/>
          </g>
        </g>
      </g>
    </g>
  </g>
</svg>