<?xml version="1.0" encoding="UTF-8"?>
<svg id="Layer_2" data-name="Layer 2" xmlns="http://www.w3.org/2000/svg" xmlns:xlink="http://www.w3.org/1999/xlink" viewBox="0 0 523 626">
  <defs>
    <style>
      .cls-1 {
        fill: #fff;
      }

      .cls-2 {
        fill: #2fade2;
      }

      .cls-3 {
        fill: #087caf;
      }

      .cls-4 {
        clip-path: url(#clippath-2);
      }

      .cls-5 {
        stroke: #b8d8c7;
      }

      .cls-5, .cls-6, .cls-7, .cls-8, .cls-9, .cls-10, .cls-11, .cls-12 {
        fill: none;
      }

      .cls-5, .cls-6, .cls-7, .cls-8, .cls-10, .cls-12 {
        stroke-linecap: round;
        stroke-linejoin: round;
      }

      .cls-5, .cls-7, .cls-8, .cls-10, .cls-12 {
        stroke-width: 1.8px;
      }

      .cls-13 {
        fill: #a1c9e5;
      }

      .cls-14 {
        clip-path: url(#clippath-1);
      }

      .cls-6 {
        stroke-width: 1.8px;
      }

      .cls-6, .cls-12 {
        stroke: #005886;
      }

      .cls-7 {
        stroke: #ffe779;
      }

      .cls-8 {
        stroke: #e26e85;
      }

      .cls-15 {
        clip-path: url(#clippath);
      }

      .cls-16 {
        fill: #22272e;
      }

      .cls-17 {
        clip-path: url(#clippath-3);
      }

      .cls-10 {
        stroke: #fff;
      }

      .cls-11 {
        stroke: #6bbcf9;
        stroke-miterlimit: 10;
      }

      .cls-18 {
        fill: #e26e85;
      }

      .cls-19 {
        fill: #f4c2c9;
      }

      .cls-20 {
        fill: #045887;
      }

      .cls-21 {
        fill: #98c0e5;
      }
    </style>
    <clipPath id="clippath">
      <rect class="cls-9" width="523" height="626" rx="25.5" ry="25.5"/>
    </clipPath>
    <clipPath id="clippath-1">
      <path class="cls-9" d="m511.13,503.77L.65,489.14c-23.76-.69-43.29-18.85-45.65-42.51l-24.64-243.46c-2.75-27.59,18.65-51.64,46.34-52.03l568.2-7.85c28.67-.39,51.15,24.64,47.61,53.11l-33.08,265.94c-3.04,24.15-23.95,42.11-48.3,41.43Z"/>
    </clipPath>
    <clipPath id="clippath-2">
      <path class="cls-9" d="m511.13,503.77L.65,489.14c-23.76-.69-43.29-18.85-45.65-42.51l-24.64-243.46c-2.75-27.59,18.65-51.64,46.34-52.03l568.2-7.85c28.67-.39,51.15,24.64,47.61,53.11l-33.08,265.94c-3.04,24.15-23.95,42.11-48.3,41.43Z"/>
    </clipPath>
    <clipPath id="clippath-3">
      <path class="cls-9" d="m244.8,257.85s-21.2,1.18-33.57,5.6c-12.37,4.42-10.11,14.23-11.68,24.54-1.67,10.31-11.68,20.81-6.58,34.85,5.1,14.04,10.11,21.99,7.46,32.79-2.55,10.8-5.1,16.2-4.71,19.24.49,3.04,14.53,12.37,19.93,14.23,5.4,1.87,15.9-5.6,15.9-5.6,0,0,5.4,7.07,13.25,8.64,7.85,1.67,39.66-6.58,46.92-14.73,0,0-4.71-9.13-4.91-20.12-.2-10.99,6.18-24.64,8.54-32.2,2.26-7.56,15.61-36.71,10.41-46.43-3.73-6.97-31.61-22.68-60.96-20.81Z"/>
    </clipPath>
  </defs>
  <g id="illustration">
    <g class="cls-15">
      <g>
        <g class="cls-14">
          <path class="cls-11" d="m94.5,547.94h-407.89c-8.15,0-14.73-6.58-14.73-14.73v-231.38c0-8.15,6.58-14.73,14.73-14.73H94.5c8.15,0,14.73,6.58,14.73,14.73v231.38c0,8.15-6.58,14.73-14.73,14.73Z"/>
          <path class="cls-11" d="m633.54,532.43H222.12c-8.15,0-14.73-6.58-14.73-14.73V179.71c0-8.15,6.58-14.73,14.73-14.73h411.42c8.15,0,14.73,6.58,14.73,14.73v337.99c0,8.15-6.58,14.73-14.73,14.73Z"/>
          <path class="cls-11" d="m91.36,336H2.81c-2.26,0-4.12-1.87-4.12-4.12v-26.9c0-2.26,1.87-4.12,4.12-4.12h88.55c2.26,0,4.12,1.87,4.12,4.12v26.9c.1,2.26-1.77,4.12-4.12,4.12Z"/>
          <path class="cls-13" d="m57.29,310.28h-20.42c-.79,0-1.47-.69-1.47-1.47h0c0-.79.69-1.47,1.47-1.47h20.42c.79,0,1.47.69,1.47,1.47h0c0,.79-.69,1.47-1.47,1.47Z"/>
          <path class="cls-11" d="m91.36,380.96H2.81c-2.26,0-4.12-1.87-4.12-4.12v-26.9c0-2.26,1.87-4.12,4.12-4.12h88.55c2.26,0,4.12,1.87,4.12,4.12v26.9c.1,2.26-1.77,4.12-4.12,4.12Z"/>
          <path class="cls-13" d="m57.29,355.24h-20.42c-.79,0-1.47-.69-1.47-1.47h0c0-.79.69-1.47,1.47-1.47h20.42c.79,0,1.47.69,1.47,1.47h0c0,.88-.69,1.47-1.47,1.47Z"/>
          <path class="cls-11" d="m546.07,412.67h-88.55c-2.26,0-4.12-1.87-4.12-4.12v-26.9c0-2.26,1.87-4.12,4.12-4.12h88.55c2.26,0,4.12,1.87,4.12,4.12v26.9c.1,2.26-1.77,4.12-4.12,4.12Z"/>
          <path class="cls-13" d="m512.01,387.04h-20.42c-.79,0-1.47-.69-1.47-1.47h0c0-.79.69-1.47,1.47-1.47h20.42c.79,0,1.47.69,1.47,1.47h0c0,.79-.69,1.47-1.47,1.47Z"/>
          <path class="cls-11" d="m432.4,412.67h-88.55c-2.26,0-4.12-1.87-4.12-4.12v-26.9c0-2.26,1.87-4.12,4.12-4.12h88.55c2.26,0,4.12,1.87,4.12,4.12v26.9c0,2.26-1.87,4.12-4.12,4.12Z"/>
          <path class="cls-13" d="m398.33,387.04h-20.42c-.79,0-1.47-.69-1.47-1.47h0c0-.79.69-1.47,1.47-1.47h20.42c.79,0,1.47.69,1.47,1.47h0c0,.79-.69,1.47-1.47,1.47Z"/>
          <path class="cls-11" d="m674.97,267.87H228.3c-2.45,0-4.52-2.06-4.52-4.52v-78.24c0-2.45,2.06-4.52,4.52-4.52h446.67c2.45,0,4.52,2.06,4.52,4.52v78.24c0,2.45-1.96,4.52-4.52,4.52Z"/>
          <path class="cls-11" d="m674.97,364.96H228.3c-2.45,0-4.52-2.06-4.52-4.52v-78.24c0-2.45,2.06-4.52,4.52-4.52h446.67c2.45,0,4.52,2.06,4.52,4.52v78.24c0,2.55-1.96,4.52-4.52,4.52Z"/>
          <rect class="cls-11" x="253.93" y="218.49" width="9.72" height="49.38"/>
          <rect class="cls-11" x="263.55" y="231.94" width="10.11" height="35.93"/>
          <rect class="cls-11" x="490.41" y="334.54" width="49.38" height="9.72" transform="translate(36.36 728.4) rotate(-72.48)"/>
          <rect class="cls-11" x="415.71" y="218.49" width="9.72" height="49.38"/>
          <rect class="cls-11" x="425.43" y="231.94" width="10.11" height="35.93"/>
          <rect class="cls-11" x="319.7" y="218.49" width="9.72" height="49.38"/>
          <rect class="cls-11" x="283.08" y="237.53" width="49.38" height="9.72" transform="translate(-16.05 462.89) rotate(-72.48)"/>
          <rect class="cls-11" x="329.42" y="231.94" width="10.11" height="35.93"/>
          <path class="cls-13" d="m517.21,224.97l1.08-14.63c.1-.98-.69-1.77-1.67-1.77h-8.44c-.98,0-1.67.79-1.67,1.77l1.08,14.63s-8.84,5.69-8.74,10.41c.1,3.63,2.26,21.01,3.24,28.67.29,2.16,2.06,3.73,4.22,3.73h12.17c2.16,0,3.93-1.57,4.22-3.73.98-7.66,3.14-25.03,3.24-28.67.1-4.81-8.74-10.41-8.74-10.41Z"/>
          <line class="cls-11" x1="-71.11" y1="457.63" x2="867.18" y2="457.63"/>
        </g>
        <g class="cls-4">
          <polygon class="cls-3" points="15.18 467.64 15.18 585.74 23.13 585.74 25.68 467.64 15.18 467.64"/>
          <polygon class="cls-21" points="25.68 467.64 15.18 467.64 15.18 480.5 25.39 480.5 25.68 467.64"/>
          <polygon class="cls-3" points="486.88 467.64 486.88 585.74 478.83 585.74 476.38 467.64 486.88 467.64"/>
          <polygon class="cls-21" points="476.38 467.64 486.88 467.64 486.88 480.5 476.67 480.5 476.38 467.64"/>
          <polygon class="cls-2" points="520.85 462.83 -18.79 462.83 38.64 437.7 463.32 437.7 520.85 462.83"/>
          <rect class="cls-3" x="-18.79" y="462.83" width="539.63" height="7.56"/>
        </g>
        <path class="cls-20" d="m44.93,405.01l-12.47,7.17c-1.87,1.08-4.32.49-5.4-1.47l-35.73-61.65c-1.08-1.87-.49-4.32,1.47-5.4l12.47-7.17c1.87-1.08,4.32-.49,5.4,1.47l35.73,61.65c1.08,1.87.39,4.32-1.47,5.4Z"/>
        <path class="cls-3" d="m36.19,396.27c-1.08-1.87-3.53-2.55-5.4-1.47-1.87,1.08-2.55,3.53-1.47,5.4s3.53,2.55,5.4,1.47c1.87-1.08,2.55-3.44,1.47-5.4Z"/>
        <line class="cls-10" x1="19.79" y1="386.46" x2="28.92" y2="381.15"/>
        <line class="cls-10" x1="17.24" y1="382.14" x2="26.47" y2="376.83"/>
        <path class="cls-2" d="m63.77,362.89l-8.05,34.06c-.29.98,4.42,3.44,10.7,5.6,6.18,2.16,11.58,3.14,11.88,2.26l14.82-31.71-29.35-10.21Z"/>
        <path class="cls-7" d="m85.47,381.64l5.5,1.87c2.45.88,3.53,3.63,2.36,5.89l-4.61,8.84c-.98,1.87-3.14,2.65-5.1,1.96l-5.99-2.06"/>
        <path class="cls-21" d="m93.13,373.2c-.39,1.18-7.36-.1-15.41-2.95-8.15-2.85-14.33-6.09-13.94-7.36.39-1.18,7.36.1,15.41,2.95,8.15,2.85,14.33,6.09,13.94,7.36Z"/>
        <path class="cls-3" d="m145.35,196.3l-112.6,29.84c-4.12,1.08-8.15-1.67-8.64-5.89l-14.04-121.43c-.29-2.95,2.06-5.5,5.01-5.2l114.46,7.95c3.24.2,5.89,2.65,6.38,5.89l12.76,83.64c.49,2.26-1.08,4.61-3.34,5.2Z"/>
        <path class="cls-20" d="m150.55,196.7l-113.78,30.14c-4.12,1.08-8.25-1.77-8.74-5.99l-14.14-122.71c-.29-2.95,2.06-5.5,5.1-5.3l115.74,7.95c3.24.2,5.99,2.65,6.48,5.89l12.96,84.52c.2,2.55-1.28,4.81-3.63,5.5Z"/>
        <path class="cls-21" d="m61.52,116.1l-27.78-.39c-.59,0-.98-.39-1.08-.98l-.39-3.14c-.1-.69.49-1.28,1.08-1.28l27.88.79c.59,0,.98.39,1.08.98l.39,2.85c0,.59-.49,1.18-1.18,1.18Z"/>
        <line class="cls-10" x1="34.03" y1="126.51" x2="87.83" y2="125.82"/>
        <line class="cls-10" x1="35.4" y1="137.4" x2="69.47" y2="136.03"/>
        <path class="cls-2" d="m48.17,204.55l-3.24.69c-.69.2-1.37-.29-1.47-1.08l-3.24-27.19c-.1-.69.39-1.28,1.08-1.37l3.24-.49c.69-.1,1.28.39,1.37,1.08l3.34,27c-.1.69-.49,1.28-1.08,1.37Z"/>
        <path class="cls-21" d="m59.65,200.72l-5.4-43.19c-.1-.69.39-1.28,1.08-1.37l2.75-.29c.69-.1,1.28.39,1.28,1.08l5.4,42.8c.1.59-.29,1.18-.98,1.37l-2.85.59c-.49.2-1.18-.29-1.28-.98Z"/>
        <path class="cls-2" d="m74.67,197.48l-2.06-15.9c-.1-.69.39-1.28.98-1.37l2.36-.39c.69-.1,1.28.39,1.37,1.08l2.06,15.81c.1.59-.29,1.18-.98,1.37l-2.36.49c-.69.1-1.37-.39-1.37-1.08Z"/>
        <path class="cls-19" d="m91.95,195.13l-2.06.39c-.69.2-1.37-.29-1.47-.98l-1.18-8.54c-.1-.69.39-1.28.98-1.37l2.06-.39c.69-.1,1.37.39,1.37,1.08l1.18,8.54c.1.59-.29,1.18-.88,1.28Z"/>
        <path class="cls-21" d="m132,183.25l-8.44-18.95,7.26-16.79c3.34,3.53,5.79,8.84,6.77,14.82,1.08,8.54-1.18,16.69-5.6,20.91Z"/>
        <path class="cls-19" d="m130.72,147.51l-7.26,16.79-14.23-11.39c2.06-5.79,6.09-9.82,11.09-10.11,3.73-.29,7.46,1.47,10.41,4.71Z"/>
        <path class="cls-2" d="m132,183.25c-1.57,1.47-3.34,2.45-5.3,2.85-8.25,1.77-16.79-7.07-18.55-19.73-.69-5.01-.2-9.72,1.08-13.55l14.23,11.39,8.54,19.04Z"/>
        <path class="cls-2" d="m227.13,99.61c4.71,9.13,10.6,18.16,14.14,23.27,1.57,2.26,4.61,2.75,6.77,1.18,4.42-3.14,10.31-6.28,14.43-8.34,2.45-1.28,3.63-4.22,2.55-6.77-2.65-6.18-5.4-14.43-7.66-21.7-3.04-9.62-13.84-14.23-22.87-9.72h0c-8.25,4.02-11.58,13.94-7.36,22.09Z"/>
        <path class="cls-19" d="m259.72,110.31c1.47,0,2.85.59,3.63,1.77,1.57,2.26,4.52,6.09,7.66,8.34,4.61,3.24,21.4,6.09,22.78,8.54,1.37,2.45-2.65,3.24-5.4,2.95-2.85-.2-5.1-.59-5.69.59-.59,1.18.2,6.09,4.02,9.52,3.73,3.44,10.7,7.07,10.99,10.21.29,3.14-7.46.1-10.9-2.06-3.53-2.06-4.42-2.55-4.42-2.55,0,0-.49.98-3.24,1.96-1.57.49-3.24-.79-4.71-.49-1.47.29-8.05,3.63-11.19,2.06-2.26-1.18-7.26-12.57-9.72-15.61-1.77-2.26-5.99-8.74-8.05-11.98-.88-1.28-.88-3.04-.1-4.32,1.67-3.24,5.99-8.64,14.33-8.93Z"/>
        <path class="cls-8" d="m282.3,147.71s-3.83-1.96-5.4-3.53c-.88-.88-1.57-2.16-1.57-2.16"/>
        <path class="cls-8" d="m274.34,149.08s-2.36-.98-3.24-1.67c-.88-.79-2.16-2.85-2.16-2.85"/>
        <path class="cls-8" d="m268.65,151.05s-1.77-.69-2.75-1.57c-.69-.59-2.06-2.36-2.06-2.36"/>
        <path class="cls-21" d="m194.73,177.26c.29-.79,1.28-.79,1.57,0,.49,1.47,1.08,3.04,1.77,3.73.59.59,2.26,1.28,3.73,1.77.79.29.79,1.28,0,1.57-1.47.49-3.04,1.08-3.73,1.77-.59.59-1.28,2.26-1.77,3.73-.29.79-1.28.79-1.57,0-.49-1.47-1.08-3.04-1.77-3.73-.59-.59-2.26-1.28-3.73-1.77-.79-.29-.79-1.28,0-1.57,1.47-.49,3.04-1.08,3.73-1.77s1.28-2.26,1.77-3.73Z"/>
        <path class="cls-21" d="m206.61,120.62c.2-.59.98-.59,1.18,0,.39,1.08.79,2.26,1.28,2.65.49.49,1.57.88,2.65,1.28.59.2.59.98,0,1.18-1.08.39-2.26.79-2.65,1.28-.49.49-.88,1.57-1.28,2.65-.2.59-.98.59-1.18,0-.39-1.08-.79-2.26-1.28-2.65-.49-.49-1.57-.88-2.65-1.28-.59-.2-.59-.98,0-1.18,1.08-.39,2.26-.79,2.65-1.28.49-.49.98-1.67,1.28-2.65Z"/>
        <path class="cls-21" d="m299.57,169.4c.2-.59.98-.59,1.18,0,.39,1.08.79,2.26,1.28,2.65s1.57.88,2.65,1.28c.59.2.59.98,0,1.18-1.08.39-2.26.79-2.65,1.28-.49.49-.88,1.57-1.28,2.65-.2.59-.98.59-1.18,0-.39-1.08-.79-2.26-1.28-2.65-.49-.49-1.57-.88-2.65-1.28-.59-.2-.59-.98,0-1.18,1.08-.39,2.26-.79,2.65-1.28.49-.39.98-1.57,1.28-2.65Z"/>
        <path class="cls-2" d="m216.52,152.62c.2-.49.79-.49.88,0,.29.88.69,1.77.98,2.16.39.39,1.28.79,2.16.98.49.2.49.79,0,.88-.88.29-1.77.69-2.16.98-.39.39-.79,1.28-.98,2.16-.2.49-.79.49-.88,0-.29-.88-.69-1.77-.98-2.16-.39-.39-1.28-.79-2.16-.98-.49-.2-.49-.79,0-.88.88-.29,1.77-.69,2.16-.98.29-.29.69-1.28.98-2.16Z"/>
        <path class="cls-2" d="m307.43,195.62c.29-.79,1.28-.79,1.57,0,.49,1.47,1.08,3.04,1.77,3.73.59.59,2.26,1.28,3.73,1.77.79.29.79,1.28,0,1.57-1.47.49-3.04,1.08-3.73,1.77-.59.59-1.28,2.26-1.77,3.73-.29.79-1.28.79-1.57,0-.49-1.47-1.08-3.04-1.77-3.73-.59-.59-2.26-1.28-3.73-1.77-.79-.29-.79-1.28,0-1.57,1.47-.49,3.04-1.08,3.73-1.77.59-.69,1.28-2.26,1.77-3.73Z"/>
        <path class="cls-20" d="m473.33,176.08s-1.37,1.37,1.18,11.78c2.55,10.41,8.34,18.36,8.34,18.36,0,0,7.46-6.28,5.2-17.08-2.16-10.8-14.73-13.06-14.73-13.06Z"/>
        <path class="cls-19" d="m474.8,206.71s-1.96.59-6.58,5.4c-4.61,4.81-11.39,7.26-19.44,10.9-8.05,3.63-11.98-13.25-9.91-21.79,1.96-8.54,10.8-14.43,10.8-14.43l17.18,2.36s5.69-6.77,7.95-2.36c2.16,4.42,1.96,14.33,0,19.93Z"/>
        <path class="cls-20" d="m460.08,238.02l-58.51,13.45c-2.55.59-5.1-.98-5.69-3.53l-16.59-71.86c-.59-2.55.98-5.1,3.53-5.69l58.51-13.45c2.55-.59,5.1.98,5.69,3.53l16.49,71.86c.69,2.55-.88,5.1-3.44,5.69Z"/>
        <path class="cls-2" d="m435.44,177.55l-38.09,8.74c-1.28.29-2.45-.49-2.75-1.77h0c-.29-1.28.49-2.45,1.77-2.75l38.09-8.74c1.28-.29,2.45.49,2.75,1.77h0c.2,1.18-.59,2.45-1.77,2.75Z"/>
        <line class="cls-10" x1="397.25" y1="196.4" x2="439.86" y2="186.58"/>
        <line class="cls-10" x1="398.92" y1="203.57" x2="441.53" y2="193.75"/>
        <path class="cls-2" d="m424.35,231.84l-15.71,3.63c-1.28.29-2.45-.49-2.75-1.77l-3.63-15.71c-.29-1.28.49-2.45,1.77-2.75l15.71-3.63c1.28-.29,2.45.49,2.75,1.77l3.63,15.71c.2,1.18-.59,2.45-1.77,2.75Z"/>
        <line class="cls-10" x1="428.27" y1="209.56" x2="444.27" y2="205.83"/>
        <line class="cls-10" x1="430.04" y1="217.31" x2="446.14" y2="213.68"/>
        <line class="cls-10" x1="431.81" y1="225.16" x2="441.53" y2="222.91"/>
        <path class="cls-21" d="m423.07,163.42l-20.81,4.81c-1.47.29-2.75-.98-2.45-2.45l.2-.98c.2-.79.79-1.37,1.57-1.57l19.93-4.61c.79-.2,1.57.1,2.06.69l.59.79c.98,1.28.39,3.04-1.08,3.34Z"/>
        <path class="cls-19" d="m468.23,183.15s-2.45,1.28-7.17,0c-4.71-1.28-5.5-2.45-10.41-3.73s-11.68.1-12.86,2.16c-1.18,2.06,1.96,3.34,6.18,3.83s6.18,8.54,12.96,11.58c11.29,5.01,21.3-10.31,11.29-13.84Z"/>
        <path class="cls-8" d="m437.8,181.58c-1.18,2.06,1.96,3.34,6.18,3.83,4.22.49,6.18,8.54,12.96,11.58,2.36,1.08,4.61,1.18,6.68.79"/>
        <path class="cls-1" d="m475.69,178.63s-5.2,3.34-7.46,4.52c0,0,4.42,4.32,6.18,12.07s.39,11.49.39,11.49c0,0,5.79-.59,8.64-2.65,0,0,2.75-4.52.49-13.35-2.26-8.84-8.25-12.07-8.25-12.07Z"/>
        <path class="cls-21" d="m537.34,166.66c-3.93-12.96-19.24-18.26-30.33-10.5-6.48,4.52-13.25,8.93-18.65,11.88l-15.02,8.15s8.54,8.44,9.82,17.77c1.28,9.33-.29,12.37-.29,12.37,0,0,23.46-5.79,44.18-15.9,8.74-4.42,13.15-14.43,10.31-23.76h0Z"/>
        <path class="cls-20" d="m480.89,199.15c0-.69-.49-1.18-1.18-1.18s-1.18.49-1.18,1.18.49,1.18,1.18,1.18,1.18-.49,1.18-1.18Z"/>
        <polygon class="cls-3" points="349.15 380.37 418.55 372.22 417.38 384.79 403.73 386.75 402.36 389.3 349.15 380.37"/>
        <path class="cls-20" d="m402.36,387.93l18.06-71.56c.59-2.45,2.75-4.42,5.2-4.71l92.77-13.84c1.96-.29,3.63,1.57,3.04,3.53l-18.95,64.1c-.69,2.16-2.45,3.93-4.71,4.42l-92.18,21.5c-1.96.39-3.73-1.37-3.24-3.44Z"/>
        <path class="cls-3" d="m473.33,342.18c-.98,3.53-4.22,6.97-7.46,7.66-3.14.69-5.01-1.67-4.02-5.2.98-3.53,4.22-6.97,7.46-7.66,3.14-.69,5.01,1.67,4.02,5.2Z"/>
        <path class="cls-20" d="m403.73,391.07c-.29-.2-40.54-5.5-51.73-7.07-1.67-.2-2.85-1.57-2.85-3.24v-.39l54.58,6.38v4.32h0Z"/>
        <path class="cls-10" d="m488.16,256.19h30.24c1.37,0,2.55,1.18,2.45,2.65l-1.57,18.95c-.1,1.67-1.37,2.95-3.04,3.14l-30.43,3.34c-1.47.2-2.75-1.08-2.65-2.55l1.67-22.28c0-1.87,1.57-3.24,3.34-3.24Z"/>
        <path class="cls-10" d="m486.19,256.87l17.67,9.52c1.18.59,2.55.49,3.63-.29l12.57-9.23"/>
        <path class="cls-20" d="m318.23,160.67l-3.14,3.44c-.49.49-.49,1.37,0,1.96h0c.49.49,1.18.59,1.77.29l3.73-2.26-2.36-3.44Z"/>
        <path class="cls-20" d="m346.89,169.01l.88,4.61c.1.69-.29,1.47-.98,1.67h0c-.69.2-1.37-.1-1.67-.79l-1.96-3.93,3.73-1.57Z"/>
        <circle class="cls-21" cx="336.39" cy="151.64" r="21.4"/>
        <circle class="cls-2" cx="336.37" cy="151.66" r="13.74" transform="translate(-31.46 180.79) rotate(-28.8)"/>
        <polyline class="cls-10" points="340.22 156.54 336.39 151.64 338.45 144.76"/>
        <path class="cls-21" d="m322.74,130.92c-.59.2-1.28-.1-1.47-.79-.49-2.85,1.08-5.69,3.93-6.77,2.85-1.08,5.89,0,7.46,2.45.39.59.1,1.28-.59,1.57l-9.33,3.53Z"/>
        <path class="cls-21" d="m358.97,141.53c.39.49,1.18.59,1.67.1,1.96-2.16,2.16-5.4.29-7.85-1.87-2.45-5.01-3.14-7.56-1.87-.59.29-.79,1.08-.39,1.57l5.99,8.05Z"/>
        <path class="cls-21" d="m346.11,128.67l-5.6-1.57c-.88-.29-1.47-1.18-1.18-2.16h0c.29-.88,1.18-1.47,2.16-1.18l5.6,1.57c.88.29,1.47,1.18,1.18,2.16h0c-.29.88-1.28,1.47-2.16,1.18Z"/>
        <rect class="cls-21" x="340.05" y="127.36" width="5.5" height="4.22" transform="translate(122.82 422.53) rotate(-73.8)"/>
        <path class="cls-20" d="m107.95,294.37l.88,9.03c.1.88-.39,1.77-1.28,2.16-2.75,1.28-4.42,4.12-4.12,7.07l1.08,10.01c.29,3.04,2.55,5.5,5.5,6.09.88.2,1.57.98,1.67,1.87l.88,9.03c.2,1.67-1.57,2.85-3.04,2.06l-2.16-1.08c-4.71-2.36-7.95-7.07-8.44-12.37l-2.06-19.93c-.59-5.3,1.67-10.5,5.79-13.84l1.96-1.57c1.18-.98,3.14-.2,3.34,1.47Z"/>
        <path class="cls-1" d="m153.79,103.63c1.77,11.98-4.91,22.87-16.1,24.44-12.86,1.77-26.31-9.33-28.08-24.64-1.67-15.02,8.84-25.33,21.7-23.56,11.29,1.57,20.81,11.98,22.48,23.76Z"/>
        <path class="cls-2" d="m158.41,101.57c1.77,12.37-5.01,23.66-16.59,25.23-13.35,1.87-27.19-9.62-28.96-25.43-1.77-15.51,9.13-26.11,22.38-24.35,11.58,1.67,21.4,12.47,23.17,24.54Z"/>
        <path class="cls-20" d="m142.31,94.7c.39,3.04-1.47,5.4-4.22,5.4s-5.6-2.65-5.99-5.79,1.67-5.5,4.52-5.3c2.75.2,5.3,2.75,5.69,5.69Z"/>
        <path class="cls-20" d="m144.96,113.94l-10.11.69c-2.45.2-4.71-1.87-5.1-4.61h0c-.79-5.99,3.14-10.7,8.34-10.6h0c4.91.1,9.33,4.52,10.11,9.82h0c.2,2.55-1.18,4.61-3.24,4.71Z"/>
        <path class="cls-20" d="m460.57,278.57c-1.47-1.57-3.93-1.67-5.5-.29-1.57,1.47-1.67,3.93-.29,5.5,1.37,1.57,3.93,1.67,5.5.29,1.67-1.47,1.77-3.93.29-5.5Z"/>
        <path class="cls-21" d="m455.47,269.63l-.69-.79c-2.26-2.45-6.09-2.65-8.64-.39h0c-2.45,2.26-2.65,6.09-.39,8.64l.69.79c.79.88,1.37,1.87,1.67,3.04.2.88.49,1.87.69,2.85.49,2.06,3.04,2.85,4.71,1.37l4.32-3.93,4.32-3.93c1.57-1.47,1.08-4.02-.98-4.81-.98-.29-1.87-.69-2.75-.98-1.18-.39-2.16-.98-2.95-1.87Z"/>
        <path class="cls-20" d="m377.52,285.05s2.36,11.19,0,24.74l31.81-6.87s-7.07-11.78-8.93-22.58l-22.87,4.71Z"/>
        <line class="cls-10" x1="378.21" y1="290.15" x2="401.57" y2="285.24"/>
        <line class="cls-10" x1="383.7" y1="294.77" x2="398.82" y2="291.13"/>
        <line class="cls-10" x1="384" y1="299.48" x2="394.11" y2="297.12"/>
        <path class="cls-21" d="m452.72,393.03l21.4-4.81s.29,9.82,15.41,15.61c0,0-16.79,12.76-21.99,16.1.1-.1-12.47-6.58-14.82-26.9Z"/>
        <line class="cls-12" x1="453.99" y1="399.51" x2="475.49" y2="392.54"/>
        <line class="cls-12" x1="461.06" y1="403.54" x2="474.51" y2="397.35"/>
        <line class="cls-12" x1="463.32" y1="407.66" x2="476.77" y2="400.4"/>
        <line class="cls-12" x1="466.26" y1="411.59" x2="474.02" y2="406.87"/>
        <path class="cls-13" d="m113.25,239.99s-2.16.59-5.6.2l1.77-2.75c-3.83.1-13.06-4.91-14.04-9.52-.1-.59-.1-1.18.1-1.57h0v-.1c1.47-2.95,9.23-2.26,14.92,3.34,6.77,6.58,2.85,10.41,2.85,10.41Z"/>
        <path class="cls-21" d="m109.52,237.44l-1.77,2.75c-2.16-.29-4.91-.98-7.85-2.65-3.73-2.06-5.5-4.71-6.38-6.77,1.08-2.45,1.87-4.12,2.06-4.52-.2.49-.2.98-.1,1.57.98,4.71,10.21,9.72,14.04,9.62Z"/>
        <path class="cls-19" d="m54.94,267.18s4.52,2.06,8.74,1.47c4.22-.59,12.47-2.95,14.14-2.06,1.67.88,4.52.98,3.63,3.83-.79,2.85-2.55,6.18-6.28,6.38-3.73.29-7.46,3.14-13.65,1.37-6.18-1.77-9.82-2.65-10.01-5.1-.1-2.55,3.44-5.89,3.44-5.89Z"/>
        <path class="cls-1" d="m113.25,239.99c-1.57,4.61-22.09,31.61-31.81,45.75-9.72,14.14-26.21,54.19-34.46,52.52-8.25-1.67-18.46-9.72-16.69-14.33,1.87-4.61,22.68-17.77,38.58-40.45,15.9-22.68,15.51-38.38,20.32-51.24,2.06-5.5,3.53-5.1,3.53-5.1,0,0-.1,1.57.69,3.73.79,2.06,2.55,4.71,6.38,6.77,2.95,1.67,5.69,2.36,7.85,2.65,3.44.39,5.6-.29,5.6-.29Z"/>
        <path class="cls-5" d="m77.91,280.63s3.93-7.26,4.91-11.68"/>
        <path class="cls-5" d="m81.64,281.61s2.65-5.01,4.02-6.28"/>
        <path class="cls-5" d="m67.21,300.66s-1.87,4.91-3.93,8.34"/>
        <path class="cls-5" d="m61.71,299.28s-3.63,5.69-10.21,10.99"/>
        <path class="cls-19" d="m70.06,273.27s6.09,3.93,9.52,5.3c3.53,1.37,8.05-.1,8.44-.1s2.26,2.95.59,5.01c-1.67,2.06-3.53,2.36-3.73,3.04-.2.69.29,4.61-.79,5.99-.98,1.37-3.14,2.16-3.83,3.04-.59.88-1.37,5.3-2.45,5.99s-2.45,2.95-5.2,3.34-13.55-3.93-23.56-11.68c-6.38-4.91-10.5-6.68-10.5-6.68,0,0,4.42-19.34,12.47-17.57,8.15,1.77,19.04,4.32,19.04,4.32Z"/>
        <path class="cls-8" d="m70.06,273.27s6.09,3.93,9.52,5.3c3.53,1.37,8.05-.1,8.44-.1"/>
        <path class="cls-21" d="m45.81,260.7s1.08-.88,2.36.1,6.09,4.81,6.68,6.38c.69,1.57-2.65,11.29-7.85,17.28-5.1,5.99-7.95,5.99-8.25,5.89s-7.56-3.44-8.54-4.71-.59-2.65-.59-2.65c0,0,13.84-22.38,16.2-22.28Z"/>
        <path class="cls-2" d="m-17.71,226.74c-6.68,8.15-5.89,20.22,1.87,27.39,2.26,2.06,4.81,4.42,7.66,6.97,15.31,13.74,39.07,22.28,39.07,22.28,12.96-5.99,14.92-22.68,14.92-22.68-11.68-7.36-23.27-21.11-31.81-33.08-7.66-10.6-23.36-10.99-31.71-.88h0Z"/>
        <path class="cls-8" d="m84.98,286.62s-2.65,1.28-4.32,1.47-4.02,0-4.02,0"/>
        <path class="cls-8" d="m80.86,295.26s-1.18.98-2.85,1.28c-1.67.2-3.04-.59-3.04-.59"/>
        <path class="cls-8" d="m77.03,302.42s-2.36.79-3.63-.39"/>
        <path class="cls-20" d="m340.61,399.71c-18.75.39-48.2,7.46-66.07,14.73-17.77,7.26-29.94,14.04-29.94,14.04,0,0,4.22-2.36,9.23,7.26,5.01,9.62,3.24,20.81,3.24,20.81,2.55-.69,63.42-2.55,82.85-5.1,19.44-2.55,41.92-9.62,40.54-28.57-1.37-18.95-18.06-24.15-40.94-28.37-22.97-4.22-35.64-2.45-37.01-2.85-1.37-.29-5.79-2.16-8.15-5.01-2.36-2.85-4.81-10.6-4.81-10.6,0,0-59.29-3.73-65.28,6.28-5.89,10.01,20.91,38.68,20.91,38.68l95.42-21.3Z"/>
        <path class="cls-20" d="m199.25,374.87s-3.24,7.07-4.42,9.62c-1.18,2.55-28.37,3.53-40.54,3.73-12.17.2-36.03,5.1-37.89,22.68-2.16,20.03,14.63,29.35,44.57,31.51,33.67,2.45,64.89,1.67,71.47,2.36,6.58.69,24.74-7.46,26.8-15.02,2.06-7.56,30.63-13.35,30.63-13.35,0,0,6.28-31.41-4.02-37.7-10.31-6.38-86.58-3.83-86.58-3.83Z"/>
        <path class="cls-10" d="m259.23,422.68s-55.76-32.1-100.03-30.24"/>
        <path class="cls-20" d="m244.6,428.57s-2.75,1.18-1.18,10.6c1.57,9.42,10.21,19.44,13.65,17.47,3.44-1.96,1.67-19.04-2.26-24.74-3.83-5.6-10.21-3.34-10.21-3.34Z"/>
        <path class="cls-21" d="m238.22,431.71s-5.4,6.58-7.85,8.44c-2.45,1.87-13.45,2.65-17.47,8.93-4.02,6.28,5.2,20.71,12.66,18.36-2.06,1.28-3.83,2.45-5.2,3.34-6.68,4.52-18.85,11.29-27.49,1.37-7.26-8.44-4.71-18.65.59-25.43,5.3-6.68,18.95-7.56,22.09-8.44,3.14-.98,10.31-6.09,13.45-7.95,2.65-1.57,4.61.49,9.23,1.37Z"/>
        <path class="cls-19" d="m257.26,453.41c-.39.1-7.46,1.28-10.41,1.87-2.36.49-13.55,7.07-21.4,12.07-7.46,2.36-16.69-12.07-12.66-18.36,4.02-6.28,15.02-7.07,17.47-8.93,2.45-1.87,7.85-8.44,7.85-8.44.69.1,1.47.2,2.26.29,6.28.49,9.52-1.67,9.52-1.67,1.18,1.08,2.45,2.85,3.73,5.4,3.53,6.58,3.83,13.74,3.63,17.77Z"/>
        <path class="cls-10" d="m340.61,399.71c-18.75.39-48.2,7.46-66.07,14.73-17.77,7.26-29.94,14.04-29.94,14.04"/>
        <path class="cls-10" d="m120.42,401.08c1.18-.59,2.95-.88,5.4-.1,5.3,1.77,7.07,13.45,4.42,20.71-2.65,7.36-8.54,6.97-10.5,4.91"/>
        <path class="cls-10" d="m377.03,411.59s-4.91-5.6-10.7,1.37c-6.38,7.56-3.04,20.32,2.06,23.36,5.2,3.04,8.05,0,8.05,0"/>
        <path class="cls-12" d="m162.73,273.07c0,.59-.49,1.08-1.08,1.08s-1.08-.49-1.08-1.08.49-1.08,1.08-1.08,1.08.49,1.08,1.08Z"/>
        <path class="cls-19" d="m184.13,254.71c-2.06,6.87-4.22,9.82-4.02,16.1-12.47,3.63-20.71-4.12-20.71-4.12.59-2.65.88-4.71.49-5.99-1.18-4.71-7.56-6.87-11.98-12.76-4.42-5.89-4.81-16.3-2.65-17.57.98-.59,1.96-.39,3.44,4.52.88,2.85,2.16,5.4,2.45,5.79-2.06-4.71-2.95-20.22,2.75-17.87,1.87.79-.29,4.12,1.96,10.11,2.06,5.69,5.89,7.85,5.89,7.85,0,0-.69-4.61,1.87-8.25,2.16-3.04,7.66-6.48,8.64-3.24,1.08,3.14-3.93,4.32-4.32,8.34-.59,4.81,4.81,8.54,8.44,5.4s1.57-6.68,0-8.93c-1.57-2.16-4.02-5.01-2.26-6.28,1.77-1.18,6.18.2,9.33,5.6,3.04,5.3,2.75,14.43.69,21.3Z"/>
        <path class="cls-21" d="m204.06,325.1s-22.09,27.88-36.62,34.16c-14.53,6.28-24.35,1.87-27.19-13.35-2.85-15.22,6.18-42.41,10.11-52.42,2.85-7.46,7.36-19.24,9.03-26.7,0,0,8.34,7.66,20.71,4.12.1,5.99-2.65,28.08-2.95,30.14.1-.69,1.28-3.93,9.52-15.51,9.52-13.25,19.04-19.04,19.04-19.04,0,0,8.05,3.83,10.41,21.79,2.26,18.06-12.07,36.81-12.07,36.81Z"/>
        <path class="cls-12" d="m177.16,301.05s-.88,25.13-4.12,33.28"/>
        <path class="cls-8" d="m161.65,240.87s.39,2.75,1.57,4.32"/>
        <path class="cls-12" d="m157.13,274.54s5.6,8.05,22.38,5.69"/>
        <path class="cls-12" d="m143.09,354.45s-2.55-8.74,6.87-10.8c9.52-2.06,20.91,11.58,13.65,16.98"/>
        <path class="cls-8" d="m151.05,240.87s1.08,2.45,3.44,4.81c.98.98,2.36,1.96,2.95,3.24"/>
        <path class="cls-16" d="m268.26,181.48c11.19,2.85,16.49,9.23,16,25.33s-2.65,21.89,5.01,30.82c7.66,8.84,9.72,21.5-4.81,29.45-14.53,7.95-46.34,10.01-62.14,0-15.81-10.01-17.67-20.71-12.96-31.22,4.71-10.5,17.28-17.38,14.53-24.93-2.75-7.66.59.69.59.69,0,0-8.25-5.99-7.56-17.96.59-11.98,15.31-16.49,22.97-16.88,3.93-.2,8.15,2.26,13.94,3.24,5.79.79,11.58.79,14.43,1.47Z"/>
        <path class="cls-2" d="m244.8,257.85s-21.2,1.18-33.57,5.6c-12.37,4.42-10.11,14.23-11.68,24.54-1.67,10.31-11.68,20.81-6.58,34.85,5.1,14.04,10.11,21.99,7.46,32.79-2.55,10.8-5.1,16.2-4.71,19.24.49,3.04,14.53,12.37,19.93,14.23,5.4,1.87,15.9-5.6,15.9-5.6,0,0,5.4,7.07,13.25,8.64,7.85,1.67,39.66-6.58,46.92-14.73,0,0-4.71-9.13-4.91-20.12-.2-10.99,6.18-24.64,8.54-32.2,2.26-7.56,15.61-36.71,10.41-46.43-3.73-6.97-31.61-22.68-60.96-20.81Z"/>
        <g class="cls-17">
          <path class="cls-1" d="m191.39,386.55l.98,1.18c.69.88.49,2.06-.29,2.75l-1.18.98c-.88.69-2.06.49-2.75-.29l-.98-1.18c-.69-.88-.49-2.06.29-2.75l1.18-.98c.88-.69,2.06-.59,2.75.29Z"/>
          <path class="cls-1" d="m193.45,368.78l.98,1.18c.69.88.49,2.06-.29,2.75l-1.18.98c-.88.69-2.06.49-2.75-.29l-.98-1.18c-.69-.88-.49-2.06.29-2.75l1.18-.98c.88-.69,2.16-.49,2.75.29Z"/>
          <path class="cls-1" d="m195.61,351.11l.98,1.18c.69.88.49,2.06-.29,2.75l-1.18.98c-.88.69-2.06.49-2.75-.29l-.98-1.18c-.69-.88-.49-2.06.29-2.75l1.18-.98c.79-.79,2.06-.59,2.75.29Z"/>
          <path class="cls-1" d="m197.68,333.35l.98,1.18c.69.88.49,2.06-.29,2.75l-1.18.98c-.88.69-2.06.49-2.75-.29l-.98-1.18c-.69-.88-.49-2.06.29-2.75l1.18-.98c.79-.69,2.06-.59,2.75.29Z"/>
          <path class="cls-1" d="m199.74,315.58l.98,1.18c.69.88.49,2.06-.29,2.75l-1.18.98c-.88.69-2.06.49-2.75-.29l-.98-1.18c-.69-.88-.49-2.06.29-2.75l1.18-.98c.88-.69,2.06-.49,2.75.29Z"/>
          <path class="cls-1" d="m207.39,388.42l.98,1.18c.69.88.49,2.06-.29,2.75l-1.18.98c-.88.69-2.06.49-2.75-.29l-.98-1.18c-.69-.88-.49-2.06.29-2.75l1.18-.98c.88-.69,2.06-.59,2.75.29Z"/>
          <path class="cls-1" d="m209.46,370.65l.98,1.18c.69.88.49,2.06-.29,2.75l-1.18.98c-.88.69-2.06.49-2.75-.29l-.98-1.18c-.69-.88-.49-2.06.29-2.75l1.18-.98c.88-.69,2.06-.49,2.75.29Z"/>
          <path class="cls-1" d="m211.52,352.98l.98,1.18c.69.88.49,2.06-.29,2.75l-1.18.98c-.88.69-2.06.49-2.75-.29l-.98-1.18c-.69-.88-.49-2.06.29-2.75l1.18-.98c.88-.69,2.16-.59,2.75.29Z"/>
          <path class="cls-1" d="m213.68,335.21l.98,1.18c.69.88.49,2.06-.29,2.75l-1.18.98c-.88.69-2.06.49-2.75-.29l-.98-1.18c-.69-.88-.49-2.06.29-2.75l1.18-.98c.79-.69,2.06-.59,2.75.29Z"/>
          <path class="cls-1" d="m215.74,317.44l.98,1.18c.69.88.49,2.06-.29,2.75l-1.18.98c-.88.69-2.06.49-2.75-.29l-.98-1.18c-.69-.88-.49-2.06.29-2.75l1.18-.98c.79-.69,2.06-.49,2.75.29Z"/>
          <path class="cls-1" d="m223.4,390.28l.98,1.18c.69.88.49,2.06-.29,2.75l-1.18.98c-.88.69-2.06.49-2.75-.29l-.98-1.18c-.69-.88-.49-2.06.29-2.75l1.18-.98c.79-.69,2.06-.59,2.75.29Z"/>
          <path class="cls-1" d="m225.46,372.52l.98,1.18c.69.88.49,2.06-.29,2.75l-1.18.98c-.88.69-2.06.49-2.75-.29l-.98-1.18c-.69-.88-.49-2.06.29-2.75l1.18-.98c.79-.69,2.06-.49,2.75.29Z"/>
          <path class="cls-1" d="m227.52,354.84l.98,1.18c.69.88.49,2.06-.29,2.75l-1.18.98c-.88.69-2.06.49-2.75-.29l-.98-1.18c-.69-.88-.49-2.06.29-2.75l1.18-.98c.88-.69,2.06-.59,2.75.29Z"/>
          <path class="cls-1" d="m229.58,337.08l.98,1.18c.69.88.49,2.06-.29,2.75l-1.18.98c-.88.69-2.06.49-2.75-.29l-.98-1.18c-.69-.88-.49-2.06.29-2.75l1.18-.98c.88-.69,2.06-.59,2.75.29Z"/>
          <path class="cls-1" d="m231.64,319.31l.98,1.18c.69.88.49,2.06-.29,2.75l-1.18.98c-.88.69-2.06.49-2.75-.29l-.98-1.18c-.69-.88-.49-2.06.29-2.75l1.18-.98c.88-.69,2.16-.49,2.75.29Z"/>
          <path class="cls-1" d="m239.3,392.15l.98,1.18c.69.88.49,2.06-.29,2.75l-1.18.98c-.88.69-2.06.49-2.75-.29l-.98-1.18c-.69-.88-.49-2.06.29-2.75l1.18-.98c.88-.69,2.06-.49,2.75.29Z"/>
          <path class="cls-1" d="m241.46,374.48l.98,1.18c.69.88.49,2.06-.29,2.75l-1.18.98c-.88.69-2.06.49-2.75-.29l-.98-1.18c-.69-.88-.49-2.06.29-2.75l1.18-.98c.79-.79,2.06-.59,2.75.29Z"/>
          <path class="cls-1" d="m243.52,356.71l.98,1.18c.69.88.49,2.06-.29,2.75l-1.18.98c-.88.69-2.06.49-2.75-.29l-.98-1.18c-.69-.88-.49-2.06.29-2.75l1.18-.98c.79-.69,2.06-.59,2.75.29Z"/>
          <path class="cls-1" d="m245.58,338.94l.98,1.18c.69.88.49,2.06-.29,2.75l-1.18.98c-.88.69-2.06.49-2.75-.29l-.98-1.18c-.69-.88-.49-2.06.29-2.75l1.18-.98c.79-.69,2.06-.49,2.75.29Z"/>
          <path class="cls-1" d="m247.64,321.27l.98,1.18c.69.88.49,2.06-.29,2.75l-1.18.98c-.88.69-2.06.49-2.75-.29l-.98-1.18c-.69-.88-.49-2.06.29-2.75l1.18-.98c.88-.79,2.06-.59,2.75.29Z"/>
          <path class="cls-1" d="m255.3,394.01l.98,1.18c.69.88.49,2.06-.29,2.75l-1.18.98c-.88.69-2.06.49-2.75-.29l-.98-1.18c-.69-.88-.49-2.06.29-2.75l1.18-.98c.88-.69,2.06-.49,2.75.29Z"/>
          <path class="cls-1" d="m257.36,376.34l.98,1.18c.69.88.49,2.06-.29,2.75l-1.18.98c-.88.69-2.06.49-2.75-.29l-.98-1.18c-.69-.88-.49-2.06.29-2.75l1.18-.98c.88-.79,2.06-.59,2.75.29Z"/>
          <path class="cls-1" d="m259.42,358.58l.98,1.18c.69.88.49,2.06-.29,2.75l-1.18.98c-.88.69-2.06.49-2.75-.29l-.98-1.18c-.69-.88-.49-2.06.29-2.75l1.18-.98c.88-.69,2.16-.59,2.75.29Z"/>
          <path class="cls-1" d="m261.58,340.81l.98,1.18c.69.88.49,2.06-.29,2.75l-1.18.98c-.88.69-2.06.49-2.75-.29l-.98-1.18c-.69-.88-.49-2.06.29-2.75l1.18-.98c.79-.69,2.06-.49,2.75.29Z"/>
          <path class="cls-1" d="m263.64,323.14l.98,1.18c.69.88.49,2.06-.29,2.75l-1.18.98c-.88.69-2.06.49-2.75-.29l-.98-1.18c-.69-.88-.49-2.06.29-2.75l1.18-.98c.79-.69,2.06-.59,2.75.29Z"/>
          <path class="cls-1" d="m271.3,395.88l.98,1.18c.69.88.49,2.06-.29,2.75l-1.18.98c-.88.69-2.06.49-2.75-.29l-.98-1.18c-.69-.88-.49-2.06.29-2.75l1.18-.98c.79-.69,2.06-.49,2.75.29Z"/>
          <path class="cls-1" d="m273.36,378.21l.98,1.18c.69.88.49,2.06-.29,2.75l-1.18.98c-.88.69-2.06.49-2.75-.29l-.98-1.18c-.69-.88-.49-2.06.29-2.75l1.18-.98c.79-.69,2.06-.59,2.75.29Z"/>
          <path class="cls-1" d="m275.42,360.44l.98,1.18c.69.88.49,2.06-.29,2.75l-1.18.98c-.88.69-2.06.49-2.75-.29l-.98-1.18c-.69-.88-.49-2.06.29-2.75l1.18-.98c.88-.69,2.06-.59,2.75.29Z"/>
          <path class="cls-1" d="m277.49,342.67l.98,1.18c.69.88.49,2.06-.29,2.75l-1.18.98c-.88.69-2.06.49-2.75-.29l-.98-1.18c-.69-.88-.49-2.06.29-2.75l1.18-.98c.88-.69,2.06-.49,2.75.29Z"/>
          <path class="cls-1" d="m279.55,325l.98,1.18c.69.88.49,2.06-.29,2.75l-1.18.98c-.88.69-2.06.49-2.75-.29l-.98-1.18c-.69-.88-.49-2.06.29-2.75l1.18-.98c.88-.69,2.16-.59,2.75.29Z"/>
          <path class="cls-1" d="m287.2,397.74l.98,1.18c.69.88.49,2.06-.29,2.75l-1.18.98c-.88.69-2.06.49-2.75-.29l-.98-1.18c-.69-.88-.49-2.06.29-2.75l1.18-.98c.88-.69,2.16-.49,2.75.29Z"/>
          <path class="cls-1" d="m289.36,380.07l.98,1.18c.69.88.49,2.06-.29,2.75l-1.18.98c-.88.69-2.06.49-2.75-.29l-.98-1.18c-.69-.88-.49-2.06.29-2.75l1.18-.98c.79-.69,2.06-.59,2.75.29Z"/>
          <path class="cls-1" d="m291.43,362.31l.98,1.18c.69.88.49,2.06-.29,2.75l-1.18.98c-.88.69-2.06.49-2.75-.29l-.98-1.18c-.69-.88-.49-2.06.29-2.75l1.18-.98c.79-.69,2.06-.59,2.75.29Z"/>
          <path class="cls-1" d="m293.49,344.54l.98,1.18c.69.88.49,2.06-.29,2.75l-1.18.98c-.88.69-2.06.49-2.75-.29l-.98-1.18c-.69-.88-.49-2.06.29-2.75l1.18-.98c.88-.69,2.06-.49,2.75.29Z"/>
          <path class="cls-1" d="m295.55,326.87l.98,1.18c.69.88.49,2.06-.29,2.75l-1.18.98c-.88.69-2.06.49-2.75-.29l-.98-1.18c-.69-.88-.49-2.06.29-2.75l1.18-.98c.88-.69,2.06-.59,2.75.29Z"/>
          <path class="cls-1" d="m201.8,297.91l.98,1.18c.69.88.49,2.06-.29,2.75l-1.18.98c-.88.69-2.06.49-2.75-.29l-.98-1.18c-.69-.88-.49-2.06.29-2.75l1.18-.98c.88-.79,2.06-.59,2.75.29Z"/>
          <path class="cls-1" d="m203.86,280.14l.98,1.18c.69.88.49,2.06-.29,2.75l-1.18.98c-.88.69-2.06.49-2.75-.29l-.98-1.18c-.69-.88-.49-2.06.29-2.75l1.18-.98c.88-.69,2.16-.59,2.75.29Z"/>
          <path class="cls-1" d="m206.02,262.37l.98,1.18c.69.88.49,2.06-.29,2.75l-1.18.98c-.88.69-2.06.49-2.75-.29l-.98-1.18c-.69-.88-.49-2.06.29-2.75l1.18-.98c.79-.69,2.06-.49,2.75.29Z"/>
          <path class="cls-1" d="m208.08,244.7l.98,1.18c.69.88.49,2.06-.29,2.75l-1.18.98c-.88.69-2.06.49-2.75-.29l-.98-1.18c-.69-.88-.49-2.06.29-2.75l1.18-.98c.79-.69,2.06-.59,2.75.29Z"/>
          <path class="cls-1" d="m217.8,299.77l.98,1.18c.69.88.49,2.06-.29,2.75l-1.18.98c-.88.69-2.06.49-2.75-.29l-.98-1.18c-.69-.88-.49-2.06.29-2.75l1.18-.98c.88-.69,2.06-.59,2.75.29Z"/>
          <path class="cls-1" d="m219.86,282l.98,1.18c.69.88.49,2.06-.29,2.75l-1.18.98c-.88.69-2.06.49-2.75-.29l-.98-1.18c-.69-.88-.49-2.06.29-2.75l1.18-.98c.88-.69,2.06-.59,2.75.29Z"/>
          <path class="cls-1" d="m221.92,264.24l.98,1.18c.69.88.49,2.06-.29,2.75l-1.18.98c-.88.69-2.06.49-2.75-.29l-.98-1.18c-.69-.88-.49-2.06.29-2.75l1.18-.98c.88-.69,2.06-.49,2.75.29Z"/>
          <path class="cls-1" d="m224.08,246.57l.98,1.18c.69.88.49,2.06-.29,2.75l-1.18.98c-.88.69-2.06.49-2.75-.29l-.98-1.18c-.69-.88-.49-2.06.29-2.75l1.18-.98c.79-.69,2.06-.59,2.75.29Z"/>
          <path class="cls-1" d="m233.8,301.64l.98,1.18c.69.88.49,2.06-.29,2.75l-1.18.98c-.88.69-2.06.49-2.75-.29l-.98-1.18c-.69-.88-.49-2.06.29-2.75l1.18-.98c.79-.69,2.06-.59,2.75.29Z"/>
          <path class="cls-1" d="m235.86,283.87l.98,1.18c.69.88.49,2.06-.29,2.75l-1.18.98c-.88.69-2.06.49-2.75-.29l-.98-1.18c-.69-.88-.49-2.06.29-2.75l1.18-.98c.79-.69,2.06-.59,2.75.29Z"/>
          <path class="cls-1" d="m237.92,266.1l.98,1.18c.69.88.49,2.06-.29,2.75l-1.18.98c-.88.69-2.06.49-2.75-.29l-.98-1.18c-.69-.88-.49-2.06.29-2.75l1.18-.98c.88-.69,2.06-.49,2.75.29Z"/>
          <path class="cls-1" d="m239.99,248.43l.98,1.18c.69.88.49,2.06-.29,2.75l-1.18.98c-.88.69-2.06.49-2.75-.29l-.98-1.18c-.69-.88-.49-2.06.29-2.75l1.18-.98c.88-.69,2.06-.59,2.75.29Z"/>
          <path class="cls-1" d="m249.7,303.5l.98,1.18c.69.88.49,2.06-.29,2.75l-1.18.98c-.88.69-2.06.49-2.75-.29l-.98-1.18c-.69-.88-.49-2.06.29-2.75l1.18-.98c.88-.69,2.06-.59,2.75.29Z"/>
          <path class="cls-1" d="m251.86,285.73l.98,1.18c.69.88.49,2.06-.29,2.75l-1.18.98c-.88.69-2.06.49-2.75-.29l-.98-1.18c-.69-.88-.49-2.06.29-2.75l1.18-.98c.79-.69,2.06-.49,2.75.29Z"/>
          <path class="cls-1" d="m253.93,268.06l.98,1.18c.69.88.49,2.06-.29,2.75l-1.18.98c-.88.69-2.06.49-2.75-.29l-.98-1.18c-.69-.88-.49-2.06.29-2.75l1.18-.98c.79-.79,2.06-.59,2.75.29Z"/>
          <path class="cls-1" d="m255.99,250.3l.98,1.18c.69.88.49,2.06-.29,2.75l-1.18.98c-.88.69-2.06.49-2.75-.29l-.98-1.18c-.69-.88-.49-2.06.29-2.75l1.18-.98c.79-.69,2.06-.59,2.75.29Z"/>
          <path class="cls-1" d="m265.71,305.37l.98,1.18c.69.88.49,2.06-.29,2.75l-1.18.98c-.88.69-2.06.49-2.75-.29l-.98-1.18c-.69-.88-.49-2.06.29-2.75l1.18-.98c.88-.69,2.06-.59,2.75.29Z"/>
          <path class="cls-1" d="m267.77,287.6l.98,1.18c.69.88.49,2.06-.29,2.75l-1.18.98c-.88.69-2.06.49-2.75-.29l-.98-1.18c-.69-.88-.49-2.06.29-2.75l1.18-.98c.88-.69,2.06-.49,2.75.29Z"/>
          <path class="cls-1" d="m269.83,269.93l.98,1.18c.69.88.49,2.06-.29,2.75l-1.18.98c-.88.69-2.06.49-2.75-.29l-.98-1.18c-.69-.88-.49-2.06.29-2.75l1.18-.98c.88-.69,2.16-.59,2.75.29Z"/>
          <path class="cls-1" d="m271.99,252.16l.98,1.18c.69.88.49,2.06-.29,2.75l-1.18.98c-.88.69-2.06.49-2.75-.29l-.98-1.18c-.69-.88-.49-2.06.29-2.75l1.18-.98c.79-.69,2.06-.59,2.75.29Z"/>
          <path class="cls-1" d="m281.71,307.23l.98,1.18c.69.88.49,2.06-.29,2.75l-1.18.98c-.88.69-2.06.49-2.75-.29l-.98-1.18c-.69-.88-.49-2.06.29-2.75l1.18-.98c.79-.69,2.06-.59,2.75.29Z"/>
          <path class="cls-1" d="m283.77,289.46l.98,1.18c.69.88.49,2.06-.29,2.75l-1.18.98c-.88.69-2.06.49-2.75-.29l-.98-1.18c-.69-.88-.49-2.06.29-2.75l1.18-.98c.79-.69,2.06-.49,2.75.29Z"/>
          <path class="cls-1" d="m285.83,271.79l.98,1.18c.69.88.49,2.06-.29,2.75l-1.18.98c-.88.69-2.06.49-2.75-.29l-.98-1.18c-.69-.88-.49-2.06.29-2.75l1.18-.98c.88-.69,2.06-.59,2.75.29Z"/>
          <path class="cls-1" d="m287.89,254.03l.98,1.18c.69.88.49,2.06-.29,2.75l-1.18.98c-.88.69-2.06.49-2.75-.29l-.98-1.18c-.69-.88-.49-2.06.29-2.75l1.18-.98c.88-.69,2.06-.59,2.75.29Z"/>
          <path class="cls-1" d="m297.61,309.1l.98,1.18c.69.88.49,2.06-.29,2.75l-1.18.98c-.88.69-2.06.49-2.75-.29l-.98-1.18c-.69-.88-.49-2.06.29-2.75l1.18-.98c.88-.69,2.16-.59,2.75.29Z"/>
          <path class="cls-1" d="m299.77,291.43l.98,1.18c.69.88.49,2.06-.29,2.75l-1.18.98c-.88.69-2.06.49-2.75-.29l-.98-1.18c-.69-.88-.49-2.06.29-2.75l1.18-.98c.79-.79,2.06-.59,2.75.29Z"/>
          <path class="cls-1" d="m301.83,273.66l.98,1.18c.69.88.49,2.06-.29,2.75l-1.18.98c-.88.69-2.06.49-2.75-.29l-.98-1.18c-.69-.88-.49-2.06.29-2.75l1.18-.98c.79-.69,2.06-.59,2.75.29Z"/>
          <path class="cls-1" d="m303.89,255.89l.98,1.18c.69.88.49,2.06-.29,2.75l-1.18.98c-.88.69-2.06.49-2.75-.29l-.98-1.18c-.69-.88-.49-2.06.29-2.75l1.18-.98c.88-.69,2.06-.49,2.75.29Z"/>
        </g>
        <path class="cls-21" d="m306.15,279.75s10.11,10.11,18.06,26.51c0,0,.49-33.97,1.18-36.32,0,0,10.5,2.55,21.11-1.67,0,0,2.85,26.21,7.07,46.14s8.93,49.67-5.4,53.6c-14.23,4.02-27.39-5.1-44.76-28.37-17.28-23.17-15.9-34.85-15.9-40.74-.1-6.97,9.33-24.84,18.65-19.14Z"/>
        <path class="cls-12" d="m324.21,306.35s-.69,21.11,1.87,34.46"/>
        <path class="cls-12" d="m324.8,279.16s12.57,3.93,22.58-2.45"/>
        <path class="cls-12" d="m343.55,274.15c0,.59-.49,1.08-1.08,1.08s-1.08-.49-1.08-1.08.49-1.08,1.08-1.08c.69,0,1.08.49,1.08,1.08Z"/>
        <path class="cls-19" d="m345.71,268.65s-.98-6.97,3.73-9.23,9.03-1.18,13.84-4.71c4.81-3.44,12.96-14.73,12.66-17.18-.39-2.45-2.06-1.37-5.3,1.28-3.14,2.65-4.71,3.24-4.71,3.24,0,0,1.96-6.68,1.08-11.58-.98-4.91-4.22-5.5-5.01-5.01s0,2.55-.2,6.48c-.2,3.83-1.37,7.17-4.81,9.62,0,0,.79-3.14-.69-6.87-1.57-3.73-4.22-6.18-6.28-5.6-2.06.59-1.37,2.16-.39,4.32,1.08,2.16,2.55,6.09-1.57,10.21-4.12,4.12-10.8,0-8.54-5.5s5.69-6.77,7.46-8.25c1.77-1.47,1.28-4.12-2.45-3.53s-10.11,5.1-13.84,10.11c-3.73,4.91-4.81,11.78-4.91,18.46-.1,6.68-.39,15.22-.39,15.22,0,0,2.45,3.04,7.85,3.04,5.4-.1,12.47-2.06,12.47-4.52Z"/>
        <path class="cls-8" d="m365.94,242.15s-1.67,4.61-4.02,8.34"/>
        <path class="cls-8" d="m356.9,241.56s-.39,3.93-3.14,7.66"/>
        <path class="cls-12" d="m333.74,367.61s-2.45-3.93,3.53-9.92c5.99-5.99,18.75-5.3,19.14.88"/>
        <path class="cls-1" d="m238.42,256.48s-5.5-.29-8.93,7.17c-3.44,7.46-2.45,22.78,1.28,25.13s13.74-7.76,13.74-7.76c0,0,8.44,11.39,14.53,10.9,6.09-.49,13.74-11.39,13.25-23.36-.49-11.98-5.4-13.35-8.05-13.65-2.55-.49-25.82,1.57-25.82,1.57Z"/>
        <path class="cls-1" d="m244.5,280.92s-19.34,21.4-19.54,25.43c-.2,4.02,6.38,5.3,8.15,4.42,1.77-.98,13.35-30.14,11.39-29.84Z"/>
        <path class="cls-1" d="m244.31,283.57s3.34,23.76,5.5,27.49c2.16,3.73,9.03-1.87,8.25-5.1-.79-3.24-10.11-22.19-13.55-24.93-3.44-2.85-.2,2.55-.2,2.55Z"/>
        <path class="cls-19" d="m268.26,235.57s-2.16,13.45-.59,23.56c0,0-9.33,20.71-23.07,20.71-6.77,0-8.93-13.94-7.76-19.44l2.06-15.31s13.74-23.76,29.35-9.52Z"/>
        <path class="cls-18" d="m256.97,249.8c-5.89,3.53-12.37,5.3-19.24,3.93l-.79,5.79c7.46-1.47,15.02-3.63,20.03-9.72Z"/>
        <path class="cls-19" d="m225.46,206.61s.49,7.66-.79,20.12-.79,20.62,9.82,25.92,27.78.49,34.06-14.63c6.28-15.12,14.63-43.88-7.95-48.2-22.58-4.32-35.44,1.08-35.14,16.79Z"/>
        <path class="cls-16" d="m241.16,196.7s4.32,14.53,13.94,18.26c9.72,3.73,8.15,12.76,12.96,11.68s8.54-5.01,11.78-1.18c3.24,3.73,3.53-29.84-13.06-35.64-16.59-5.79-34.16-6.09-39.37-.79-5.1,5.3-3.34,22.28-3.34,22.28,0,0,10.6-2.45,17.08-14.63Z"/>
        <path class="cls-19" d="m269.14,226.74s2.26-5.6,7.07-4.61c4.71.98,4.42,16.2-7.85,15.41"/>
        <path class="cls-16" d="m234.78,221.53c.59,1.28.59,2.75.2,4.12-.2.69-.49,1.37-.88,1.96-.2.29-.39.59-.59.88-.1.2-.29.49-.39.69-.39.88-.2,1.87.39,2.85.69.88,1.67,1.77,2.95,2.06-.69.29-1.37.2-2.06,0s-1.37-.59-1.87-1.08c-.59-.49-.98-1.18-1.28-1.96-.2-.79-.1-1.67.2-2.45.2-.39.39-.69.59-.98s.39-.49.59-.79c.39-.49.69-.98.98-1.57.59-1.18,1.08-2.36,1.18-3.73Z"/>
        <path class="cls-12" d="m242.05,240.68s4.91,1.37,7.85-3.63"/>
        <path class="cls-12" d="m248.33,221.53s.39,2.16,4.12,2.55c3.14.39,4.61-2.16,4.61-2.16"/>
        <path class="cls-12" d="m233.02,219.96s-2.95,2.36-5.3-.59"/>
        <path class="cls-16" d="m235.76,210.64c.2-1.28-1.28-3.44-3.24-4.02s-5.1,2.16-4.81,3.34c.39,1.18,2.26-.59,4.02-.39,1.57.2,3.83,2.16,4.02,1.08Z"/>
        <path class="cls-16" d="m259.23,212.8c.2-1.28-1.28-3.44-3.24-4.02-1.96-.59-5.1,2.16-4.81,3.34.39,1.18,2.26-.59,4.02-.39,1.67.2,3.93,2.16,4.02,1.08Z"/>
        <path class="cls-16" d="m275.82,226.74c-.98.29-1.77.79-2.06,1.37-.1.29-.2.59-.2.98v1.37c0,.59-.1,1.18-.29,1.67-.2.59-.69,1.18-1.28,1.37-1.18.49-2.26.2-3.24-.29.98-.29,1.96-.49,2.45-.98.49-.39.59-1.08.59-1.96v-1.57c.1-.59.29-1.28.79-1.67,1.08-.69,2.36-.69,3.24-.29Z"/>
        <ellipse class="cls-12" cx="226.14" cy="220.06" rx="8.74" ry="9.52"/>
        <circle class="cls-6" cx="251.36" cy="222.77" r="10.11"/>
        <path class="cls-12" d="m234.88,220.85s1.57-1.67,6.48.39"/>
        <line class="cls-12" x1="261.48" y1="222.81" x2="271.11" y2="223.69"/>
        <path class="cls-2" d="m273.46,235.18l-3.34,5.79c-.39.79.1,1.67.98,1.67h6.68c.88,0,1.37-.88.98-1.67l-3.34-5.79c-.49-.69-1.57-.69-1.96,0Z"/>
        <path class="cls-20" d="m410.21,431.61l2.36,21.79c0,1.57,8.15,2.75,18.16,2.75s18.16-1.28,18.16-2.75l2.36-21.79h-41.03Z"/>
        <path class="cls-2" d="m451.24,431.61c0,1.77-9.23,3.14-20.52,3.14s-20.52-1.37-20.52-3.14,9.23-3.14,20.52-3.14c11.39.1,20.52,1.47,20.52,3.14Z"/>
        <path class="cls-21" d="m425.23,431.61s-10.99-4.32-9.82-12.76c1.28-8.54,9.33,9.03,11.39,6.38s-.59-15.51,3.93-16.69c4.61-1.08,3.34,16.88,3.34,16.88,0,0,4.61-2.26,7.46-5.6,2.85-3.34,6.97,4.12-4.71,11.78-.1,0-5.1,2.55-11.58,0Z"/>
        <path class="cls-2" d="m522.12,425.92c0,2.95-2.36,5.3-5.3,5.3s-5.3-2.36-5.3-5.3,2.36-5.3,5.3-5.3,5.3,2.45,5.3,5.3Z"/>
        <path class="cls-1" d="m144.27,444.87c-2.65.69-5.4,1.96-7.85,4.12-4.22,3.63-10.99,6.18-18.16,5.79-6.87-.29-14.14-3.34-19.63-10.7,23.85,2.55,45.65.79,45.65.79Z"/>
        <path class="cls-20" d="m118.16,454.88c-17.28.29-41.43,0-48.89-.1-8.64.69-18.36-2.65-24.84-13.35,0,0,6.38.98,22.78,1.08,16.39.1,29.45-1.08,29.45-1.08.59.98,1.18,1.87,1.77,2.75,5.6,7.26,12.86,10.31,19.73,10.7Z"/>
      </g>
      <rect class="cls-9" width="523" height="626" rx="25.5" ry="25.5"/>
    </g>
  </g>
</svg>