<?xml version="1.0" encoding="UTF-8"?>
<svg id="Layer_2" data-name="Layer 2" xmlns="http://www.w3.org/2000/svg" xmlns:xlink="http://www.w3.org/1999/xlink" viewBox="0 0 492.44 570.37">
  <defs>
    <style>
      .cls-1 {
        fill: #fff;
      }

      .cls-2 {
        fill: #2fade2;
      }

      .cls-3 {
        fill: #087caf;
      }

      .cls-4 {
        clip-path: url(#clippath-2);
      }

      .cls-5 {
        filter: url(#drop-shadow-1);
      }

      .cls-6 {
        fill: #a1c9e5;
      }

      .cls-7 {
        clip-path: url(#clippath-1);
      }

      .cls-8 {
        stroke: #e26e85;
      }

      .cls-8, .cls-9, .cls-10, .cls-11, .cls-12, .cls-13, .cls-14 {
        fill: none;
      }

      .cls-8, .cls-10, .cls-12, .cls-13, .cls-14 {
        stroke-linecap: round;
        stroke-linejoin: round;
        stroke-width: 1.8px;
      }

      .cls-15 {
        clip-path: url(#clippath);
      }

      .cls-16 {
        fill: #22272e;
      }

      .cls-10 {
        stroke: #fff;
      }

      .cls-11 {
        stroke: #6bbcf9;
        stroke-miterlimit: 10;
      }

      .cls-17 {
        fill: #e26e85;
      }

      .cls-18 {
        fill: #f4c2c9;
      }

      .cls-12 {
        stroke: #005886;
      }

      .cls-19 {
        fill: #045887;
      }

      .cls-20 {
        fill: #98c0e5;
      }

      .cls-13 {
        stroke: #f8ab5d;
      }

      .cls-14 {
        stroke: #000;
      }

      .cls-21 {
        fill: #d0e5f7;
      }
    </style>
    <filter id="drop-shadow-1" filterUnits="userSpaceOnUse">
      <feOffset dx="7" dy="7"/>
      <feGaussianBlur result="blur" stdDeviation="12"/>
      <feFlood flood-color="#000" flood-opacity=".46"/>
      <feComposite in2="blur" operator="in"/>
      <feComposite in="SourceGraphic"/>
    </filter>
    <clipPath id="clippath">
      <path class="cls-9" d="m458.12,164.25s36,79.12,0,240-168.58,119.52-185.38,115.88c-30.25-1.5-256.5-96.38-272.75-286.5C0,40.5,220-51,343.75,28.87c0,0,77.62,41.62,114.38,135.38Z"/>
    </clipPath>
    <clipPath id="clippath-1">
      <path class="cls-9" d="m479.65,439.91l-459.18-13.16c-21.37-.62-38.94-16.95-41.06-38.24l-22.16-219c-2.47-24.81,16.78-46.45,41.68-46.8l511.11-7.06c25.78-.35,46.01,22.16,42.83,47.77l-29.76,239.22c-2.74,21.81-21.55,37.88-43.45,37.26Z"/>
    </clipPath>
    <clipPath id="clippath-2">
      <path class="cls-9" d="m172.18,165.29c1.5-8.48,4.68-21.63,35.32-21.72,26.14-.09,38.24,3.8,44.59,8.65,6.36,4.86,7.06,17.66,5.03,37.71-2.03,20.05-2.38,31.97-1.24,44.42,1.24,12.45,6.18,17.84-.53,24.55,0,0-19.34,6.36-44.06,6.36s-37-6.89-37.53-8.83c-.53-1.94-2.91-2.56-.71-7.59s3.71-22.78,2.3-33.47c-.79-6.27-3.09-15.1-4.06-25.61-.62-7.42-.62-15.63.88-24.46Z"/>
    </clipPath>
  </defs>
  <g id="illustration">
    <g>
      <path class="cls-1" d="m487.03,315.78s-12.8,85.98-130.47,201.44c-117.67,115.46-206.47,8.67-218.58-3.51-24.57-17.7-162.9-220.33-73.18-388.74C169.79-37.13,404.18,5.67,464.63,139.98c0,0,42.53,77.14,22.41,175.8Z"/>
      <g class="cls-5">
        <g class="cls-15">
          <path class="cls-21" d="m458.12,164.25s36,79.12,0,240-168.58,119.52-185.38,115.88c-30.25-1.5-256.5-96.38-272.75-286.5C0,40.5,220-51,343.75,28.87c0,0,77.62,41.62,114.38,135.38Z"/>
          <g>
            <path class="cls-21" d="m479.65,439.91l-459.18-13.16c-21.37-.62-38.94-16.95-41.06-38.24l-22.16-219c-2.47-24.81,16.78-46.45,41.68-46.8l511.11-7.06c25.78-.35,46.01,22.16,42.83,47.77l-29.76,239.22c-2.74,21.81-21.55,37.88-43.45,37.26Z"/>
            <g class="cls-7">
              <path class="cls-11" d="m104.89,479.65h-366.91c-7.33,0-13.25-5.92-13.25-13.25v-208.05c0-7.33,5.92-13.25,13.25-13.25H104.89c7.33,0,13.25,5.92,13.25,13.25v208.05c0,7.33-5.92,13.25-13.25,13.25Z"/>
              <path class="cls-11" d="m589.77,465.7H219.69c-7.33,0-13.25-5.92-13.25-13.25V148.42c0-7.33,5.92-13.25,13.25-13.25h370.08c7.33,0,13.25,5.92,13.25,13.25v304.03c0,7.33-5.92,13.25-13.25,13.25Z"/>
              <path class="cls-11" d="m16.94,182.95H-62.45v-7.86H16.94c.88,0,1.59.71,1.59,1.59v4.59c0,.97-.71,1.68-1.59,1.68Z"/>
              <path class="cls-11" d="m2.54,175.09H-15.38c-1.94,0-3.53-1.41-3.8-3.36l-1.41-12.72c-.26-2.21,1.5-4.24,3.8-4.24H3.96c2.3,0,3.97,1.94,3.8,4.24l-1.41,12.72c-.26,1.94-1.85,3.36-3.8,3.36Z"/>
              <path class="cls-6" d="m-8.58,154.87s-7.06-.71-8.48-10.24c0,0,6.36,1.85,8.39,6.36,0,0,.88-10.07,5.65-11.04,0,0,2.12,7.51-1.24,11.21,0,0,2.56-4.24,9.1-4.15,0,0-1.68,6-8.12,7.77"/>
              <path class="cls-11" d="m475.59,227.81h-17.93c-1.94,0-3.53-1.41-3.8-3.36l-1.41-12.72c-.26-2.21,1.5-4.24,3.8-4.24h20.75c2.3,0,3.97,1.94,3.8,4.24l-1.41,12.72c-.26,1.85-1.85,3.36-3.8,3.36Z"/>
              <path class="cls-6" d="m464.55,207.5s-7.06-.71-8.48-10.24c0,0,6.36,1.85,8.39,6.36,0,0,.88-10.07,5.65-11.04,0,0,2.12,7.51-1.24,11.21,0,0,2.56-4.24,9.1-4.15,0,0-1.68,6-8.12,7.77"/>
              <path class="cls-11" d="m102.06,289H22.41c-2.03,0-3.71-1.68-3.71-3.71v-24.2c0-2.03,1.68-3.71,3.71-3.71h79.65c2.03,0,3.71,1.68,3.71,3.71v24.2c.09,2.03-1.59,3.71-3.71,3.71Z"/>
              <path class="cls-6" d="m71.42,265.95h-18.37c-.71,0-1.32-.62-1.32-1.32h0c0-.71.62-1.32,1.32-1.32h18.37c.71,0,1.32.62,1.32,1.32h0c0,.71-.62,1.32-1.32,1.32Z"/>
              <path class="cls-11" d="m102.06,329.44H22.41c-2.03,0-3.71-1.68-3.71-3.71v-24.2c0-2.03,1.68-3.71,3.71-3.71h79.65c2.03,0,3.71,1.68,3.71,3.71v24.2c.09,2.03-1.59,3.71-3.71,3.71Z"/>
              <path class="cls-6" d="m71.42,306.4h-18.37c-.71,0-1.32-.62-1.32-1.32h0c0-.71.62-1.32,1.32-1.32h18.37c.71,0,1.32.62,1.32,1.32h0c0,.71-.62,1.32-1.32,1.32Z"/>
              <path class="cls-11" d="m511.09,358.05h-79.65c-2.03,0-3.71-1.68-3.71-3.71v-24.2c0-2.03,1.68-3.71,3.71-3.71h79.65c2.03,0,3.71,1.68,3.71,3.71v24.2c.09,2.03-1.59,3.71-3.71,3.71Z"/>
              <path class="cls-6" d="m480.45,334.92h-18.37c-.71,0-1.32-.62-1.32-1.32h0c0-.71.62-1.32,1.32-1.32h18.37c.71,0,1.32.62,1.32,1.32h0c0,.79-.62,1.32-1.32,1.32Z"/>
              <path class="cls-11" d="m408.83,358.05h-79.65c-2.03,0-3.71-1.68-3.71-3.71v-24.2c0-2.03,1.68-3.71,3.71-3.71h79.65c2.03,0,3.71,1.68,3.71,3.71v24.2c0,2.03-1.68,3.71-3.71,3.71Z"/>
              <path class="cls-6" d="m378.19,334.92h-18.37c-.71,0-1.32-.62-1.32-1.32h0c0-.71.62-1.32,1.32-1.32h18.37c.71,0,1.32.62,1.32,1.32h0c0,.79-.62,1.32-1.32,1.32Z"/>
              <path class="cls-11" d="m305.87,358.05h-79.65c-2.03,0-3.71-1.68-3.71-3.71v-24.2c0-2.03,1.68-3.71,3.71-3.71h79.65c2.03,0,3.71,1.68,3.71,3.71v24.2c.09,2.03-1.59,3.71-3.71,3.71Z"/>
              <path class="cls-6" d="m275.23,334.92h-18.37c-.71,0-1.32-.62-1.32-1.32h0c0-.71.62-1.32,1.32-1.32h18.37c.71,0,1.32.62,1.32,1.32h0c0,.79-.62,1.32-1.32,1.32Z"/>
              <path class="cls-11" d="m.51,289h-79.65c-2.03,0-3.71-1.68-3.71-3.71v-24.2c0-2.03,1.68-3.71,3.71-3.71H.51c2.03,0,3.71,1.68,3.71,3.71v24.2c.09,2.03-1.59,3.71-3.71,3.71Z"/>
              <path class="cls-11" d="m.51,329.44h-79.65c-2.03,0-3.71-1.68-3.71-3.71v-24.2c0-2.03,1.68-3.71,3.71-3.71H.51c2.03,0,3.71,1.68,3.71,3.71v24.2c.09,2.03-1.59,3.71-3.71,3.71Z"/>
              <path class="cls-11" d="m627.04,227.81H225.25c-2.21,0-4.06-1.85-4.06-4.06v-70.38c0-2.21,1.85-4.06,4.06-4.06h401.79c2.21,0,4.06,1.85,4.06,4.06v70.38c0,2.21-1.77,4.06-4.06,4.06Z"/>
              <path class="cls-11" d="m627.04,315.14H225.25c-2.21,0-4.06-1.85-4.06-4.06v-70.38c0-2.21,1.85-4.06,4.06-4.06h401.79c2.21,0,4.06,1.85,4.06,4.06v70.38c0,2.21-1.77,4.06-4.06,4.06Z"/>
              <rect class="cls-11" x="248.3" y="183.3" width="8.74" height="44.42"/>
              <rect class="cls-11" x="256.95" y="195.49" width="9.1" height="32.32"/>
              <rect class="cls-11" x="461.03" y="287.69" width="44.42" height="8.74" transform="translate(59.23 664.94) rotate(-72.48)"/>
              <rect class="cls-11" x="393.82" y="183.3" width="8.74" height="44.42"/>
              <rect class="cls-11" x="402.56" y="195.49" width="9.1" height="32.32"/>
              <rect class="cls-11" x="307.46" y="183.3" width="8.74" height="44.42"/>
              <rect class="cls-11" x="274.53" y="200.43" width="44.42" height="8.74" transform="translate(12.09 426.11) rotate(-72.48)"/>
              <rect class="cls-11" x="316.2" y="195.49" width="9.1" height="32.32"/>
              <path class="cls-6" d="m431.88,276.64l.97-13.16c.09-.88-.62-1.59-1.5-1.59h-7.59c-.88,0-1.5.71-1.5,1.59l.97,13.16s-7.95,5.12-7.86,9.36c.09,3.27,2.03,18.9,2.91,25.78.26,1.94,1.85,3.36,3.8,3.36h10.95c1.94,0,3.53-1.41,3.8-3.36.88-6.89,2.83-22.52,2.91-25.78.09-4.24-7.86-9.36-7.86-9.36Z"/>
              <line class="cls-11" x1="-44.08" y1="407.33" x2="799.94" y2="407.33"/>
              <path class="cls-11" d="m51.38,245.11H-15.29c-2.91,0-5.39-2.38-5.39-5.39v-13.95c0-2.91,2.38-5.39,5.39-5.39H51.38c2.91,0,5.39,2.38,5.39,5.39v13.95c0,3-2.38,5.39-5.39,5.39Z"/>
              <path class="cls-11" d="m44.22,238.4H-8.05c0-2.47,1.94-4.42,4.42-4.42h43.36c2.47,0,4.5,1.94,4.5,4.42h0Z"/>
              <rect class="cls-11" x="-.72" y="201.49" width="37.62" height="18.99"/>
            </g>
            <path class="cls-19" d="m321.68,284.5l-34.79-13.25c-.97-.35-1.59-1.32-1.59-2.38h0l55.81-8.12s6.89,11.57,6.18,11.83-25.61,11.92-25.61,11.92Z"/>
            <path class="cls-3" d="m285.3,268.96l37.26,13.07,21.37-10.33s-4.68-10.51-5.21-10.42-53.42,7.68-53.42,7.68Z"/>
            <path class="cls-19" d="m320.97,282.29l12.19-51.75c.62-2.47,2.83-4.33,5.39-4.42l55.9-1.5c1.41,0,2.56,1.32,2.12,2.74l-11.39,39.74c-.53,1.94-2.12,3.44-4.15,3.97l-57.4,13.78c-1.68.35-3.09-.97-2.65-2.56Z"/>
            <ellipse class="cls-3" cx="365.23" cy="251.46" rx="5.3" ry="3.36" transform="translate(20.99 530.95) rotate(-73.62)"/>
            <path class="cls-3" d="m409.81,198.49l-127.87-7.15c-3.27-.18-5.65-3-5.39-6.27l10.95-111.71c.35-3.71,3.36-6.53,6.98-6.89l134.05-10.24c3.62-.26,6.62,2.83,6.09,6.45l-16.78,129.19c-.53,3.89-3.97,6.8-8.04,6.62Z"/>
            <path class="cls-19" d="m406.27,198.49l-128.48-7.15c-3.27-.18-5.74-3-5.39-6.27l10.95-112.24c.35-3.71,3.36-6.62,7.06-6.89l134.66-10.33c3.62-.26,6.62,2.83,6.18,6.45l-16.87,129.81c-.62,3.89-4.15,6.8-8.12,6.62Z"/>
            <polygon class="cls-1" points="403.89 143.12 402.04 157.69 383.84 157.34 385.52 143.03 403.89 143.12"/>
            <polygon class="cls-18" points="367.33 142.94 365.65 156.99 347.11 156.72 348.61 142.94 367.33 142.94"/>
            <polygon class="cls-3" points="383.84 157.34 382.08 171.56 363.98 170.94 365.65 156.99 383.84 157.34"/>
            <path class="cls-3" d="m310.82,79.81l-15.1.88c-.53,0-.97-.44-.97-.97l.26-2.56c.09-.71.71-1.32,1.41-1.41l15.19-.97c.53,0,1.06.44.97.97l-.26,2.65c-.18.79-.71,1.32-1.5,1.41Z"/>
            <path class="cls-3" d="m320.35,110.27l-26.67.79c-1.06,0-1.94-.88-1.85-2.03l1.41-13.95c.09-1.24,1.15-2.12,2.3-2.21l26.84-1.32c1.15-.09,2.03.88,1.85,2.03l-1.59,14.48c0,1.15-1.06,2.12-2.3,2.21Z"/>
            <path class="cls-2" d="m361.5,109.04l-29.23.88c-1.06,0-1.94-.88-1.85-2.03l1.59-14.75c.09-1.24,1.15-2.12,2.3-2.21l29.49-1.41c1.15-.09,2.03.88,1.85,2.03l-1.77,15.28c-.18,1.24-1.15,2.12-2.38,2.21Z"/>
            <path class="cls-18" d="m406.27,107.71l-32.23.97c-1.15,0-1.94-.88-1.85-2.03l1.85-15.54c.18-1.24,1.15-2.12,2.3-2.21l32.41-1.59c1.15-.09,2.03.88,1.85,2.03l-2.03,16.16c-.09,1.24-1.15,2.12-2.3,2.21Z"/>
            <path class="cls-10" d="m327.15,183.74l66.93,3c2.38.09,4.5-1.68,4.86-4.06l7.42-58.46c.35-2.83-1.85-5.3-4.68-5.21l-68.44,1.32c-2.38.09-4.33,1.85-4.59,4.15l-5.92,54.13c-.35,2.56,1.68,4.95,4.42,5.12Z"/>
            <line class="cls-10" x1="328.04" y1="129.26" x2="405.74" y2="128.46"/>
            <line class="cls-10" x1="350.2" y1="129.61" x2="343.93" y2="184.45"/>
            <line class="cls-10" x1="368.92" y1="129.43" x2="362.3" y2="185.33"/>
            <line class="cls-10" x1="387.2" y1="129.35" x2="380.31" y2="186.13"/>
            <line class="cls-10" x1="348.7" y1="142.94" x2="403.89" y2="143.12"/>
            <line class="cls-10" x1="347.11" y1="156.72" x2="402.04" y2="157.69"/>
            <line class="cls-10" x1="345.52" y1="170.41" x2="400.18" y2="172.09"/>
            <path class="cls-3" d="m406.8,71.15c-.18,1.24-1.15,2.3-2.12,2.38-1.06.09-1.77-.88-1.59-2.12.18-1.24,1.15-2.3,2.12-2.38,1.06,0,1.77.88,1.59,2.12Z"/>
            <path class="cls-3" d="m398.15,71.77c-.18,1.24-1.06,2.3-2.12,2.3-1.06.09-1.77-.88-1.59-2.12s1.06-2.3,2.12-2.3c1.06-.09,1.77.88,1.59,2.12Z"/>
            <path class="cls-3" d="m389.67,72.3c-.18,1.24-1.06,2.21-2.12,2.3-.97.09-1.68-.88-1.59-2.03.18-1.24,1.06-2.21,2.12-2.3,1.06-.18,1.68.79,1.59,2.03Z"/>
            <path class="cls-1" d="m135.18,180.65l-82.39,6.53c-2.56.18-4.86-2.12-5.03-5.12l-4.86-76.3c-.18-3,2.03-5.74,4.59-5.47l79.39,7.95c2.56.26,4.59,2.3,4.86,5.03l6.45,63.67c.35,1.85-1.06,3.53-3,3.71Z"/>
            <path class="cls-2" d="m139.15,179.94l-83.36,6.62c-2.65.18-4.95-2.12-5.12-5.12l-4.77-76.74c-.18-3.09,2.12-5.83,4.68-5.56l80.36,7.86c2.65.26,4.59,2.3,4.95,5.03l6.53,64.02c.09,1.94-1.32,3.71-3.27,3.89Z"/>
            <path class="cls-19" d="m84.14,171.03l-19.07.88c-1.32.09-2.56-1.15-2.65-2.65l-3.53-51.83c-.09-1.41.97-2.74,2.21-2.65l18.81,1.32c1.24.09,2.21,1.15,2.3,2.56l3.97,49.8c.09,1.32-.88,2.47-2.03,2.56Z"/>
            <path class="cls-20" d="m85.82,170.23l-19.16.97c-1.32.09-2.56-1.15-2.65-2.65l-3.53-52.01c-.09-1.41.97-2.74,2.21-2.65l18.9,1.32c1.24.09,2.21,1.15,2.3,2.56l3.97,49.98c.09,1.24-.88,2.38-2.03,2.47Z"/>
            <line class="cls-12" x1="70.19" y1="117.87" x2="73.1" y2="118.04"/>
            <line class="cls-12" x1="74.69" y1="118.13" x2="74.95" y2="118.13"/>
            <line class="cls-12" x1="60.74" y1="120.6" x2="84.23" y2="121.93"/>
            <line class="cls-12" x1="63.74" y1="164.49" x2="87.49" y2="163.7"/>
            <path class="cls-20" d="m124.23,118.75l-18.54-1.41c-1.15-.09-2.03.88-1.94,1.94l.62,7.24c.09.88.79,1.68,1.77,1.68l18.54.71c1.15.09,2.03-.88,1.94-2.03l-.62-6.53c-.18-.79-.88-1.5-1.77-1.59Z"/>
            <path class="cls-20" d="m110.1,137.29c.09,1.24-.88,2.21-2.21,2.21s-2.56-1.06-2.65-2.3c-.09-1.24.88-2.21,2.3-2.21,1.32.09,2.47,1.06,2.56,2.3Z"/>
            <line class="cls-10" x1="114.16" y1="137.38" x2="126.79" y2="137.56"/>
            <path class="cls-20" d="m110.81,145.06c.09,1.24-.88,2.21-2.21,2.3-1.32,0-2.56-.97-2.65-2.21-.09-1.24.88-2.3,2.3-2.3,1.24,0,2.47.97,2.56,2.21Z"/>
            <line class="cls-10" x1="114.87" y1="144.98" x2="127.41" y2="144.8"/>
            <path class="cls-20" d="m111.51,152.75c.09,1.24-.88,2.21-2.21,2.3-1.32.09-2.56-.88-2.65-2.12-.09-1.24.88-2.3,2.3-2.3,1.24-.09,2.38.88,2.56,2.12Z"/>
            <line class="cls-10" x1="115.49" y1="152.57" x2="128.03" y2="152.04"/>
            <path class="cls-20" d="m97.38,236.9c-1.15,0,3.97-12.19,9.27-10.51,5.39,1.77-2.56,10.6-9.27,10.51Z"/>
            <path class="cls-20" d="m98,238.58s-5.74-7.24-11.48-5.56c-5.65,1.68,1.41,9.8,11.48,5.56Z"/>
            <path class="cls-20" d="m96.32,231.34s8.57-14.75,4.95-18.28c-6.45-6.27-14.57,12.27-4.95,18.28Z"/>
            <path class="cls-19" d="m110.63,264.89l-12.54,2.83c-3.53.79-7.06-1.06-8.48-4.42l-5.74-13.78c-1.15-2.65.44-5.74,3.27-6.36l22.78-5.12c2.83-.62,5.56,1.41,5.65,4.33l.71,14.84c.35,3.71-2.12,6.89-5.65,7.68Z"/>
            <path class="cls-14" d="m98.8,241.67s-3.97-12.1-2.47-17.75"/>
            <path class="cls-18" d="m143.48,291.65s-.53,6.09-1.94,9.71c-1.41,3.62-3.89,8.04-3.09,14.13.79,6.09,6.62,15.01,8.92,14.75,2.3-.26,1.06-4.15,1.06-4.15,0,0,2.3,3.27,4.5,2.3,2.21-.88-.79-8.04-.79-8.04,0,0,2.74,4.42,5.21,3.89,2.47-.53-2.47-7.51-2.47-7.51,0,0,3.27,3.62,4.15,3.09.88-.53,1.68-.26,0-4.42s1.06-17.66.97-20.75c-.09-3-12.1-5.83-16.51-3Z"/>
            <path class="cls-2" d="m176.24,303.92l17.22,36.03c.71,1.41.09,3.09-1.32,3.8l-51.13,25.78c-1.5.79-3.36.09-3.97-1.5l-19.16-49.27c-.62-1.59.35-3.44,2.03-3.8l53.07-12.54c1.32-.35,2.74.26,3.27,1.5Z"/>
            <path class="cls-20" d="m151.96,344.1l2.83,6.8c.35.88,0,1.85-.88,2.21l-7.24,3.27c-.88.44-1.94,0-2.3-.88l-2.91-7.15c-.35-.88.09-1.85.97-2.21l7.24-2.91c.88-.35,1.85.09,2.3.88Z"/>
            <line class="cls-10" x1="137.56" y1="338.72" x2="130.32" y2="320.79"/>
            <line class="cls-10" x1="142.95" y1="336.77" x2="135.71" y2="319.29"/>
            <path class="cls-18" d="m168.12,337.57l2.65,6c.35.88,0,1.85-.88,2.21l-5.65,2.56c-.88.35-1.85,0-2.3-.88l-2.74-6.27c-.35-.88,0-1.85.88-2.3l5.74-2.3c.97-.26,1.94.18,2.3.97Z"/>
            <line class="cls-10" x1="155.4" y1="332.27" x2="148.34" y2="315.85"/>
            <line class="cls-10" x1="159.99" y1="330.59" x2="152.93" y2="314.61"/>
            <polygon class="cls-14" points="181.36 330.5 185.25 338.8 177.74 342.25 173.77 333.59 181.36 330.5"/>
            <line class="cls-10" x1="170.68" y1="326.79" x2="163.79" y2="311.69"/>
            <line class="cls-10" x1="174.56" y1="325.38" x2="167.76" y2="310.64"/>
            <path class="cls-18" d="m160.7,293.68s.09,2.83,1.41,8.04,1.85,11.39,1.94,13.78c.09,2.38-3.53,1.59-5.56-2.12-2.03-3.71-3-4.77-4.77-5.74-1.85-1.06-3.36-2.03-4.42-5.3-1.06-3.27,8.39-12.27,11.39-8.65Z"/>
            <path class="cls-20" d="m189.57,147.27c-5.03,0-18.63,1.94-30.29,27.99-9.71,21.63-15.37,33.73-16.78,43.53-1.41,9.89-2.56,33.2-1.59,50.33,1.06,17.13,1.77,24.37,1.77,24.37,0,0,7.95,5.21,18.46,0,0,0,2.74-21.02,4.86-33.38,2.03-12.36,2.91-24.81,2.38-30.38,0,0,13.86-24.37,20.05-34.09,6.36-9.71,29.58-48.39,1.15-48.39Z"/>
            <path class="cls-14" d="m142.15,286.88s9.27,5.03,19.87,0"/>
            <path class="cls-14" d="m142.86,216.41c.71-1.77,2.38-4.15,6.18-4.77,6-.88,9.36,5.21,7.95,12.45-1.41,7.24-6.89,10.86-11.3,10.07-2.38-.44-3.53-2.12-3.97-3.27"/>
            <path class="cls-10" d="m257.3,493.6s.35-5.39,5.12-8.83c4.77-3.36,10.24,2.83-2.21,7.86"/>
            <path class="cls-10" d="m261.98,491.92s5.12-2.38,7.77.62c2.56,3-4.86,5.03-8.83,2.38"/>
            <path class="cls-10" d="m180.66,493.6s7.51-8.74,14.04-8.83c6.45,0-.88,7.24-9.1,9.8"/>
            <path class="cls-10" d="m186.31,493.6s9.18-3.53,10.33,0c1.15,3.53-9.71,2.56-9.71,2.56"/>
            <path class="cls-18" d="m235.23,470.64s-.35,15.72,0,20.05,8.3,7.06,14.66,5.03c6.36-2.03,6.53-6.18,6.53-6.18,0,0,1.41-18.99,1.41-22.61s-22.52-3.44-22.61,3.71Z"/>
            <path class="cls-19" d="m235.23,470.64s-.09,3.8-.09,8.21c7.15,2.74,15.89,1.85,22.08.79.35-5.3.71-11.04.71-12.89-.09-3.53-22.61-3.27-22.69,3.89Z"/>
            <path class="cls-19" d="m235.05,488.04s-1.24-.18-2.47,9.18c-1.24,9.36-2.21,15.01,1.5,15.72,3.71.71,38.94,0,42.74,0s6.36-2.03,6.18-4.5c-.18-2.47-9.71-6.36-14.13-9.89-4.5-3.44-10.86-7.77-11.57-10.16-1.24-3.97-3.71-5.47-5.83-.35-1.68,3.97-6.09,4.42-11.57,3.71-3.89-.44-4.86-3.71-4.86-3.71Z"/>
            <path class="cls-10" d="m270.2,499.52s-7.33,1.59-6.27,10.68"/>
            <path class="cls-18" d="m163.26,467.64s-1.94,19.52-1.77,22.16c.18,2.56,8.65,3.44,14.13,2.74,5.56-.71,6.18-2.38,6.18-2.38,0,0,4.33-18.28,4.33-22.43s-21.1-5.21-22.87-.09Z"/>
            <path class="cls-19" d="m163.26,467.64s-.35,3.44-.71,7.68c7.15,3.36,14.48,3.62,21.99,3,.88-4.42,1.68-8.83,1.68-10.6.09-4.24-21.19-5.21-22.96-.09Z"/>
            <path class="cls-19" d="m161.58,484.77s-1.5,4.68-2.03,8.83c-.53,4.15-4.33,17.75-1.77,19.69s39.21,0,42.39,0,7.15-1.94,6.71-5.39-7.24-4.86-12.19-8.3c-4.95-3.44-11.3-9.8-11.3-9.8,0,0,1.06-5.3.18-6.8s-3.62,4.5-5.56,5.21-6.09,1.32-12.72,0c-3.18-.71-3.71-3.44-3.71-3.44Z"/>
            <path class="cls-10" d="m194.7,499.52s-6.18,2.12-6.98,10.68"/>
            <path class="cls-19" d="m255.63,252.71s3.09,10.68,4.86,32.85c1.77,22.16,4.15,62.61,4.86,70.56.71,7.95.71,29.05-1.41,54.57-2.03,25.61-1.06,46.62-.35,51.48.71,4.86-2.74,9.01-6.18,10.33-3.44,1.41-18.99,1.41-22.16,0,0,0-7.59-4.15-6.53-11.39,1.06-7.24,1.41-21.81-2.03-48.74-3.44-26.93,0-46.36,0-46.36,0,0-3.97-12.19-8.48-24.81-1.59-4.5-3.27-9.1-4.77-13.25-2.21-5.92-4.24-10.68-5.47-12.8-4.5-7.59-7.95-40.8-2.74-58.1,5.12-17.13,41.77-17.13,50.42-4.33Z"/>
            <path class="cls-19" d="m174.74,251.65s-9.01,24.2-6.53,51.83c2.47,27.64,7.59,59.78,6.53,62.25-1.06,2.38-4.86,14.84-8.65,42.47-3.8,27.64-12.1,48.74-10.07,53.95,2.03,5.21,7.77,7.95,9.27,8.3,1.5.35,17.4,2.03,21.19,1.41,3.8-.71,9.71-6.89,9.71-14.13s.71-22.78,7.95-47.68c7.24-24.9,9.8-32.23,12.36-43.62,2.56-11.39,4.95-71.79,4.95-71.79,0,0,6.45-30.11-14.04-36.29-20.49-6.36-32.67-6.71-32.67-6.71Z"/>
            <path class="cls-10" d="m194.43,314.08s14.39-2.3,19.6,1.41"/>
            <path class="cls-10" d="m174.21,273.46s8.74,3.09,23.75,4.59c0,0-1.59,15.54-2.56,18.81-1.06,3.27-7.59,6.09-12.54,6.09-4.59,0-9.63-5.03-10.68-8.74-1.32-5.03,2.03-20.75,2.03-20.75Z"/>
            <path class="cls-10" d="m214.92,278.23s14.84,1.59,25.87-2.47c0,0,1.68,16.69,1.41,19.43s-6.45,7.86-11.04,8.92c-3.89.88-10.24-2.03-13.25-4.68-3-2.65-3-21.19-3-21.19Z"/>
            <path class="cls-10" d="m261.37,298.63s-6.98-4.24-7.68-22.96"/>
            <path class="cls-10" d="m218.1,341.28c-1.59-4.5-3.27-9.1-4.77-13.25-2.21-5.92-4.24-10.68-5.47-12.8"/>
            <path class="cls-10" d="m182.6,364.77s10.68-2.38,17.13,0"/>
            <path class="cls-10" d="m226.57,366.09s5.3-2.12,10.77-1.24"/>
            <path class="cls-10" d="m166.44,473.56s-.35,3.09-.35,3.8"/>
            <path class="cls-10" d="m173.24,475.06s-.18,3.27-.35,3.89"/>
            <path class="cls-10" d="m181.89,475.41s-.44,3.09-.53,3.53"/>
            <path class="cls-10" d="m238.49,476.38v4.15"/>
            <path class="cls-10" d="m246.44,476.65s-.26,3.53-.53,4.33"/>
            <path class="cls-10" d="m254.48,476.65s-.18,2.65-.26,3.8"/>
            <ellipse class="cls-14" cx="235.76" cy="110.89" rx="6.36" ry="7.68"/>
            <path class="cls-18" d="m235.67,93.58s2.3,4.06,1.59,12.8c-.79,8.83,1.24,15.98.18,21.72-1.15,5.83-5.74,8.65-8.21,9.36-2.38.71-14.75,2.38-20.84-5.74-6.09-8.12-11.66-32.05-1.77-36.65,9.89-4.5,24.9-6.18,29.05-1.5Z"/>
            <path class="cls-18" d="m237.35,128.11c1.15-5.83-.97-12.89-.18-21.72.79-8.83-1.59-12.8-1.59-12.8-4.15-4.68-19.07-3-29.05,1.59-7.51,3.44-6.09,18.01-2.38,28.35,7.15,7.95,17.4,12.98,28.35,11.3.26,0,.62,0,1.15-.09,1.68-1.5,3.18-3.62,3.71-6.62Z"/>
            <path class="cls-17" d="m204.23,123.52c1.24,3.36,2.65,6.27,4.15,8.3,6.09,8.12,18.37,6.36,20.84,5.74,1.15-.35,2.91-1.24,4.5-2.65-.53-.09-9.89,5.83-29.49-11.39Z"/>
            <line class="cls-14" x1="231.52" y1="110.8" x2="242.12" y2="110.45"/>
            <path class="cls-18" d="m218.89,132.35s4.59,1.68,7.33,4.68c0,0-.88,5.12-.53,7.68.35,2.56-3.36,8.04-11.39,7.59s-14.92-6.53-14.92-6.53c0,0,.97-11.13,2.3-14.39,1.41-3.36,17.22.97,17.22.97Z"/>
            <path class="cls-8" d="m223.84,134.91s0,.09,0,0c1.5,1.06,2.21,2.83,2.03,4.59-.18,1.68-.35,3.8-.18,5.12"/>
            <path class="cls-16" d="m230.9,111.33s1.94-1.41,2.56-3.71c.62-2.3.97-4.06.97-4.06,0,0,1.24,1.15,2.83,1.77,1.68.62,6-3.97,6.62-10.24.62-6.27-2.3-12.8-9.45-15.54-2.74-1.06-6.89-1.24-11.04-.97-5.83.35-11.39,2.3-16.34,5.39-1.06.62-2.38,1.24-3.89,1.41-5.12.71-8.3,2.74-11.3,9.89-3,7.06-3.36,12.63.71,21.19,4.06,8.57,5.3,9.1,5.92,12.63.71,3.53-.18,7.51,2.65,6.89,7.77-1.77,15.72.44,17.57-.71,1.94-1.15,8.04-12.1,8.74-17.4.71-5.39,2.3-7.15,3.44-6.53Z"/>
            <path class="cls-18" d="m232.05,111.86s-1.85-4.95-5.39-3.44c-4.77,2.03-1.85,10.42,2.74,11.83"/>
            <path d="m226.84,112.74c-.09-.35-.18-.79,0-1.24.09-.18.18-.44.44-.62.18-.18.53-.35.79-.35.09,0,.35,0,.53.09s.35.18.44.35c.09.09.18.26.26.35.09.09.09.26.18.35.18.44.18.79.18,1.15.09.71,0,1.41.09,1.85,0,.35.44.79,1.24.97-.26.26-.71.44-1.15.35s-.97-.35-1.24-.79c-.44-.88-.44-1.59-.53-2.3,0-.35-.09-.71-.09-.88v-.26s.18,0,.09,0c-.09-.09-.26-.09-.53.09-.35.26-.53.53-.71.88Z"/>
            <path class="cls-20" d="m198.58,144.71s.79-5.65,1.32-6.62c.53-.88,13.78-1.94,21.37,0,7.59,1.94,6.89,8.39,6.89,8.39,0,0-13.69-1.59-29.58-1.77Z"/>
            <path class="cls-2" d="m172.18,165.29c1.5-8.48,4.68-21.63,35.32-21.72,26.14-.09,38.24,3.8,44.59,8.65,6.36,4.86,7.06,17.66,5.03,37.71-2.03,20.05-2.38,31.97-1.24,44.42,1.24,12.45,6.18,17.84-.53,24.55,0,0-19.34,6.36-44.06,6.36s-37-6.89-37.53-8.83c-.53-1.94-2.91-2.56-.71-7.59s3.71-22.78,2.3-33.47c-1.41-10.68-6.89-28.79-3.18-50.07Z"/>
            <g class="cls-4">
              <rect class="cls-1" x="176.86" y="265.01" width="4.5" height="4.5" transform="translate(-137.13 208.08) rotate(-45.57)"/>
              <rect class="cls-1" x="176.7" y="250.37" width="4.5" height="4.5" transform="translate(-126.72 203.58) rotate(-45.57)"/>
              <rect class="cls-1" x="176.48" y="235.67" width="4.5" height="4.5" transform="translate(-116.29 199.01) rotate(-45.57)"/>
              <rect class="cls-1" x="176.38" y="220.97" width="4.5" height="4.5" transform="translate(-105.82 194.53) rotate(-45.57)"/>
              <rect class="cls-1" x="176.22" y="206.33" width="4.5" height="4.5" transform="translate(-95.41 190.02) rotate(-45.57)"/>
              <rect class="cls-1" x="190" y="264.89" width="4.5" height="4.5" transform="translate(-133.1 217.43) rotate(-45.57)"/>
              <rect class="cls-1" x="189.9" y="250.19" width="4.5" height="4.5" transform="translate(-122.63 212.95) rotate(-45.57)"/>
              <rect class="cls-1" x="189.74" y="235.55" width="4.5" height="4.5" transform="translate(-112.22 208.44) rotate(-45.57)"/>
              <rect class="cls-1" x="189.58" y="220.91" width="4.5" height="4.5" transform="translate(-101.82 203.94) rotate(-45.57)"/>
              <rect class="cls-1" x="189.49" y="206.2" width="4.5" height="4.5" transform="translate(-91.34 199.46) rotate(-45.57)"/>
              <rect class="cls-1" x="203.26" y="264.76" width="4.5" height="4.5" transform="translate(-129.03 226.86) rotate(-45.57)"/>
              <rect class="cls-1" x="203.11" y="250.12" width="4.5" height="4.5" transform="translate(-118.62 222.36) rotate(-45.57)"/>
              <rect class="cls-1" x="202.95" y="235.36" width="4.5" height="4.5" transform="translate(-108.13 217.81) rotate(-45.57)"/>
              <rect class="cls-1" x="202.79" y="220.72" width="4.5" height="4.5" transform="translate(-97.72 213.31) rotate(-45.57)"/>
              <rect class="cls-1" x="202.63" y="206.08" width="4.5" height="4.5" transform="translate(-87.31 208.8) rotate(-45.57)"/>
              <rect class="cls-1" x="216.41" y="264.64" width="4.5" height="4.5" transform="translate(-125 236.21) rotate(-45.57)"/>
              <rect class="cls-1" x="216.31" y="249.93" width="4.5" height="4.5" transform="translate(-114.53 231.73) rotate(-45.57)"/>
              <rect class="cls-1" x="216.15" y="235.29" width="4.5" height="4.5" transform="translate(-104.12 227.22) rotate(-45.57)"/>
              <rect class="cls-1" x="215.99" y="220.65" width="4.5" height="4.5" transform="translate(-93.71 222.72) rotate(-45.57)"/>
              <rect class="cls-1" x="215.89" y="205.95" width="4.5" height="4.5" transform="translate(-83.24 218.24) rotate(-45.57)"/>
              <rect class="cls-1" x="229.67" y="264.51" width="4.5" height="4.5" transform="translate(-120.93 245.64) rotate(-45.57)"/>
              <rect class="cls-1" x="229.51" y="249.87" width="4.5" height="4.5" transform="translate(-110.52 241.14) rotate(-45.57)"/>
              <rect class="cls-1" x="229.35" y="235.11" width="4.5" height="4.5" transform="translate(-100.03 236.6) rotate(-45.57)"/>
              <rect class="cls-1" x="229.19" y="220.47" width="4.5" height="4.5" transform="translate(-89.62 232.09) rotate(-45.57)"/>
              <rect class="cls-1" x="229.03" y="205.83" width="4.5" height="4.5" transform="translate(-79.21 227.59) rotate(-45.57)"/>
              <rect class="cls-1" x="242.87" y="264.32" width="4.5" height="4.5" transform="translate(-116.83 255.02) rotate(-45.57)"/>
              <rect class="cls-1" x="242.71" y="249.68" width="4.5" height="4.5" transform="translate(-106.43 250.51) rotate(-45.57)"/>
              <rect class="cls-1" x="242.55" y="235.04" width="4.5" height="4.5" transform="translate(-96.02 246.01) rotate(-45.57)"/>
              <rect class="cls-1" x="242.46" y="220.34" width="4.5" height="4.5" transform="translate(-85.55 241.53) rotate(-45.57)"/>
              <rect class="cls-1" x="242.3" y="205.7" width="4.5" height="4.5" transform="translate(-75.14 237.02) rotate(-45.57)"/>
              <rect class="cls-1" x="256.08" y="264.26" width="4.5" height="4.5" transform="translate(-112.83 264.43) rotate(-45.57)"/>
              <rect class="cls-1" x="255.98" y="249.56" width="4.5" height="4.5" transform="translate(-102.36 259.95) rotate(-45.57)"/>
              <rect class="cls-1" x="255.76" y="234.85" width="4.5" height="4.5" transform="translate(-91.93 255.38) rotate(-45.57)"/>
              <rect class="cls-1" x="255.6" y="220.22" width="4.5" height="4.5" transform="translate(-81.52 250.87) rotate(-45.57)"/>
              <rect class="cls-1" x="255.5" y="205.51" width="4.5" height="4.5" transform="translate(-71.05 246.39) rotate(-45.57)"/>
              <rect class="cls-1" x="176.06" y="191.69" width="4.5" height="4.5" transform="translate(-85.01 185.52) rotate(-45.57)"/>
              <rect class="cls-1" x="175.97" y="176.99" width="4.5" height="4.5" transform="translate(-74.54 181.04) rotate(-45.57)"/>
              <rect class="cls-1" x="175.81" y="162.35" width="4.5" height="4.5" transform="translate(-64.13 176.53) rotate(-45.57)"/>
              <rect class="cls-1" x="175.65" y="147.71" width="4.5" height="4.5" transform="translate(-53.72 172.03) rotate(-45.57)"/>
              <rect class="cls-1" x="189.27" y="191.5" width="4.5" height="4.5" transform="translate(-80.91 194.89) rotate(-45.57)"/>
              <rect class="cls-1" x="189.11" y="176.86" width="4.5" height="4.5" transform="translate(-70.51 190.38) rotate(-45.57)"/>
              <rect class="cls-1" x="189.01" y="162.16" width="4.5" height="4.5" transform="translate(-60.04 185.9) rotate(-45.57)"/>
              <rect class="cls-1" x="188.85" y="147.52" width="4.5" height="4.5" transform="translate(-49.63 181.4) rotate(-45.57)"/>
              <rect class="cls-1" x="202.53" y="191.38" width="4.5" height="4.5" transform="translate(-76.84 204.32) rotate(-45.57)"/>
              <rect class="cls-1" x="202.37" y="176.74" width="4.5" height="4.5" transform="translate(-66.44 199.82) rotate(-45.57)"/>
              <rect class="cls-1" x="202.21" y="162.1" width="4.5" height="4.5" transform="translate(-56.03 195.31) rotate(-45.57)"/>
              <rect class="cls-1" x="202.12" y="147.39" width="4.5" height="4.5" transform="translate(-45.56 190.83) rotate(-45.57)"/>
              <rect class="cls-1" x="215.73" y="191.31" width="4.5" height="4.5" transform="translate(-72.84 213.73) rotate(-45.57)"/>
              <rect class="cls-1" x="215.57" y="176.55" width="4.5" height="4.5" transform="translate(-62.34 209.19) rotate(-45.57)"/>
              <rect class="cls-1" x="215.42" y="161.91" width="4.5" height="4.5" transform="translate(-51.93 204.69) rotate(-45.57)"/>
              <rect class="cls-1" x="215.26" y="147.27" width="4.5" height="4.5" transform="translate(-41.53 200.18) rotate(-45.57)"/>
              <rect class="cls-1" x="228.94" y="191.12" width="4.5" height="4.5" transform="translate(-68.74 223.11) rotate(-45.57)"/>
              <rect class="cls-1" x="228.78" y="176.48" width="4.5" height="4.5" transform="translate(-58.34 218.6) rotate(-45.57)"/>
              <rect class="cls-1" x="228.62" y="161.85" width="4.5" height="4.5" transform="translate(-47.93 214.1) rotate(-45.57)"/>
              <rect class="cls-1" x="228.52" y="147.14" width="4.5" height="4.5" transform="translate(-37.46 209.62) rotate(-45.57)"/>
              <rect class="cls-1" x="242.14" y="191.06" width="4.5" height="4.5" transform="translate(-64.74 232.52) rotate(-45.57)"/>
              <rect class="cls-1" x="241.98" y="176.3" width="4.5" height="4.5" transform="translate(-54.24 227.97) rotate(-45.57)"/>
              <rect class="cls-1" x="241.82" y="161.66" width="4.5" height="4.5" transform="translate(-43.83 223.47) rotate(-45.57)"/>
              <rect class="cls-1" x="241.66" y="147.02" width="4.5" height="4.5" transform="translate(-33.43 218.96) rotate(-45.57)"/>
              <rect class="cls-1" x="255.34" y="190.87" width="4.5" height="4.5" transform="translate(-60.64 241.89) rotate(-45.57)"/>
              <rect class="cls-1" x="255.18" y="176.23" width="4.5" height="4.5" transform="translate(-50.23 237.38) rotate(-45.57)"/>
              <rect class="cls-1" x="255.09" y="161.53" width="4.5" height="4.5" transform="translate(-39.76 232.9) rotate(-45.57)"/>
              <rect class="cls-1" x="254.93" y="146.89" width="4.5" height="4.5" transform="translate(-29.36 228.4) rotate(-45.57)"/>
            </g>
            <path class="cls-18" d="m292.01,143.65s2.03-6.62,1.77-9.01c-.26-2.38-2.21-7.68-3.09-9.63s-.18-7.42-.35-10.16,3-2.03,3.89.71,1.94,3.97,1.94,3.97c0,0,3.44-7.95,3.97-10.16.53-2.21,1.94-9.27,4.06-10.95,2.03-1.77,2.91.09,1.77,4.86-.79,3.27-.71,5.12-.71,5.39s2.56.71,3.62,2.21c.44.62.79,2.91.79,2.91.18.09,1.06-.09,2.12.53.62.35,1.32,1.5,1.94,2.03.62.62,1.24,1.24,1.68,1.94.79,1.15,1.41,3.44-.97,13.16-1.32,5.3-3.71,7.15-5.47,19.52-2.03,12.36-18.72.53-16.95-7.33Z"/>
            <path class="cls-3" d="m293.42,137.73c-.53,2.74-1.41,5.83-1.41,5.83-1.77,7.86,14.92,19.69,16.78,7.33.44-3.18.97-5.74,1.41-7.77-4.33-4.5-10.07-7.06-16.78-5.39Z"/>
            <ellipse class="cls-1" cx="304.37" cy="141.55" rx="3.97" ry="4.33" transform="translate(-31.3 143.93) rotate(-25.35)"/>
            <path class="cls-20" d="m249.44,150.54s6.98,0,16.87,13.33c9.89,13.33,11.92,16.78,11.92,16.78,0,0,2.03-7.42,6.18-17.84,2.91-7.33,4.77-14.31,5.65-17.75.35-1.59,1.68-2.91,3.27-3.27,3.62-.79,10.16-.88,15.72,7.24.62.97.88,2.12.71,3.18-.88,5.12-3.44,20.93-5.56,36.29-2.56,18.63-3.97,34.35-16.6,35.94-9.1,1.15-22.34-10.77-31.61-20.05-3.62-3.62-6.62-6.89-8.48-8.83-4.68-4.77-12.01-14.04-12.01-27.37,0-14.66,10.86-18.54,13.95-17.66Z"/>
            <path class="cls-13" d="m255.98,204.49c-3.62-3.62-6.62-6.89-8.48-8.83-4.68-4.77-12.01-14.04-12.01-27.37"/>
            <path class="cls-14" d="m278.23,180.56s11.39,14.84,14.13,21.99"/>
            <path class="cls-14" d="m281.94,223.66c-.62-.44-1.32-1.32-1.24-3.18.18-3.36,3.53-8.74,9.89-10.07,5.39-1.15,8.12.53,8.65,2.3"/>
            <path class="cls-14" d="m289.36,147.71s11.3-4.95,19.69,8.57"/>
            <path class="cls-8" d="m305.08,108.59s-.18,3-.26,3.53c-.09.62-.88,3.8-.97,5.03"/>
            <path class="cls-8" d="m309.49,113.72v2.56c0,.88-.44,3-.44,3"/>
            <path class="cls-8" d="m313.29,116.45s.26,1.32.26,2.38-.44,3.44-.44,3.44"/>
            <path class="cls-8" d="m296.07,119.46s-.53,1.32-1.15,2.03"/>
            <path class="cls-20" d="m251.39,22.59s-5.39,21.46,2.56,35.94c.62,1.15,2.03,1.59,3.18.97l10.77-6-4.33-32.5-12.19,1.59Z"/>
            <path class="cls-2" d="m253.77,23.03s-5.12,21.28,7.24,36.82c.71.88,2.03,1.15,3.09.53l13.51-8.12-11.13-32.5c-.09.09-10.95.62-12.72,3.27Z"/>
            <polygon class="cls-3" points="251.39 22.59 256.51 23.65 285.38 12.52 279.91 11.64 251.39 22.59"/>
            <path class="cls-20" d="m285.38,12.52s.44,14.13,17.4,24.81c1.5.97,1.5,3.09,0,3.97l-27.02,15.98c-.71.44-1.59.44-2.3.09-17.22-9.1-16.95-33.82-16.95-33.82l28.88-11.04Z"/>
            <path class="cls-2" d="m277.97,30.36c-.18-.26-.44-.44-.79-.71-.71-.35-1.41-.26-2.12,0-1.15.53-1.68,1.41-1.59,2.74.09.71.35,1.77.97,3.09.18-.62.53-1.15,1.06-1.68.44-.44,1.15-.88,1.85-1.24,1.68-.71,3.27-.97,4.86-.62,1.59.35,2.91,1.15,3.89,2.47.97,1.32,1.32,2.83,1.06,4.5s-1.5,3.18-3.89,4.42c-2.47,1.24-5.03,1.24-7.24,0-1.77-.97-3.18-2.56-4.33-4.77-.71-1.24-1.15-2.3-1.41-3.18-.53-1.5-.62-2.83-.44-3.89.18-.97.53-1.85,1.15-2.56.62-.79,1.5-1.32,2.65-1.85,1.68-.71,3.18-.88,4.5-.62,1.41.26,2.47.88,3.36,2.03-1.41.79-2.12,1.15-3.53,1.85Zm.97,10.86c.88.26,1.85.18,2.74-.18.88-.44,1.32-1.06,1.5-1.77s-.09-1.5-.62-2.3c-.62-.88-1.32-1.41-2.12-1.59-.79-.18-1.68-.18-2.38.18-.62.26-1.15.71-1.41,1.24-.44.79-.35,1.68.26,2.74.44.79,1.15,1.32,2.03,1.68Z"/>
            <path class="cls-18" d="m162.55,76.36h29.14l3,1.94c.97.62,2.21-.09,2.21-1.24v-20.57c0-2.12-1.68-3.8-3.8-3.8h-30.55c-2.12,0-3.8,1.68-3.8,3.8v16.07c0,2.12,1.68,3.8,3.8,3.8Z"/>
            <polyline class="cls-12" points="167.41 60.91 168.91 62.41 171.82 59.5"/>
            <line class="cls-12" x1="176.33" y1="61.35" x2="186.57" y2="61.35"/>
            <polyline class="cls-12" points="167.41 68.06 168.91 69.56 171.82 66.65"/>
            <line class="cls-12" x1="176.33" y1="68.5" x2="186.57" y2="68.5"/>
            <path class="cls-19" d="m299.07,332.09l-2.65,2.83c-.44.44-.44,1.15,0,1.59h0c.35.44.97.53,1.5.18l3.09-1.85-1.94-2.74Z"/>
            <path class="cls-19" d="m322.65,338.98l.71,3.8c.09.62-.26,1.15-.88,1.32h0c-.53.18-1.06-.09-1.32-.62l-1.59-3.27,3.09-1.24Z"/>
            <circle class="cls-20" cx="314" cy="324.68" r="17.57"/>
            <circle class="cls-2" cx="314" cy="324.68" r="11.3"/>
            <polyline class="cls-10" points="317.17 328.74 314 324.68 315.67 319.02"/>
            <path class="cls-20" d="m302.78,307.72c-.53.18-1.06-.09-1.15-.62-.35-2.3.88-4.68,3.18-5.56s4.86,0,6.09,2.03c.26.44.09,1.06-.44,1.24l-7.68,2.91Z"/>
            <path class="cls-20" d="m332.54,316.37c.35.44.97.53,1.32.09,1.59-1.77,1.77-4.42.26-6.45-1.5-1.94-4.06-2.56-6.27-1.5-.53.26-.62.88-.26,1.32l4.95,6.53Z"/>
            <path class="cls-20" d="m321.94,305.78l-4.59-1.32c-.79-.18-1.15-.97-.97-1.77h0c.18-.79.97-1.15,1.77-.97l4.59,1.32c.79.18,1.15.97.97,1.77h0c-.18.79-.97,1.24-1.77.97Z"/>
            <rect class="cls-20" x="317" y="304.81" width="4.5" height="3.44" transform="translate(-64.18 527.59) rotate(-73.8)"/>
            <path class="cls-19" d="m411.75,373.04l-35.07-2.17c-2.44-.18-4.25-2.26-4.07-4.7l5.33-71.95c.18-2.44,2.17-4.43,4.7-4.61l35.89-2.17c2.62-.18,4.79,2.08,4.61,4.7l-5.97,76.29c-.36,2.8-2.71,4.79-5.42,4.61Z"/>
            <path class="cls-19" d="m409.31,373.04l-35.07-2.17c-2.44-.18-4.25-2.26-4.07-4.7l5.33-71.95c.18-2.44,2.17-4.43,4.7-4.61l35.89-2.17c2.62-.18,4.79,2.08,4.61,4.7l-5.97,76.29c-.36,2.8-2.71,4.79-5.42,4.61Z"/>
            <path class="cls-3" d="m398.56,295.85l-6.69.36c-.54,0-.9-.36-.9-.9h0c0-.54.45-.99.99-.99l6.69-.36c.54,0,.9.36.9.9h0c0,.54-.45.99-.99.99Z"/>
            <path class="cls-3" d="m402.44,295.67h-.18c-.54,0-.9-.36-.9-.9h0c0-.54.54-.99,1.08-1.08h.18c.54,0,.9.36.9.9h0c-.09.54-.54,1.08-1.08,1.08Z"/>
            <path class="cls-3" d="m391.96,307.87l-8.95.27c-.9,0-1.63-.72-1.54-1.72h0c.09-.99.9-1.72,1.81-1.81l8.95-.36c.9,0,1.63.72,1.54,1.72h0c0,.99-.81,1.81-1.81,1.9Z"/>
            <path class="cls-3" d="m389.61,338.97l-8.86-.09c-.9,0-1.54-.81-1.54-1.72h0c.09-.9.9-1.72,1.81-1.72l8.86.09c.9,0,1.63.81,1.54,1.72h0c-.09.99-.9,1.72-1.81,1.72Z"/>
            <path class="cls-3" d="m387.71,364.1l-8.86-.45c-.9,0-1.54-.81-1.54-1.81h0c.09-.9.81-1.72,1.72-1.63l8.86.36c.9,0,1.63.81,1.54,1.81h0c0,.99-.81,1.72-1.72,1.72Z"/>
            <path class="cls-3" d="m408.32,327.85l-26.39.09c-1.08,0-1.99-.9-1.9-2.08l.81-11.48c.09-.99.9-1.72,1.81-1.72l26.48-.72c1.08,0,1.99.9,1.9,2.08l-.9,12.02c0,.99-.81,1.81-1.81,1.81Z"/>
            <path class="cls-2" d="m388.97,354.42l-9.04-.36c-1.08,0-1.9-.99-1.81-2.08l.54-6.87c.09-.99.9-1.81,1.9-1.72l9.13.18c1.08,0,1.9.99,1.9,2.08l-.54,7.05c-.18.99-.99,1.72-2.08,1.72Z"/>
            <path class="cls-18" d="m406.15,354.97l-9.67-.36c-1.08,0-1.9-.99-1.81-2.08l.54-7.14c.09-.99.9-1.81,1.9-1.72l9.76.18c1.08,0,1.9.99,1.9,2.08l-.54,7.32c-.18.99-1.08,1.81-2.08,1.72Z"/>
          </g>
        </g>
      </g>
    </g>
  </g>
</svg>