<?xml version="1.0" encoding="UTF-8"?>
<svg id="Layer_2" data-name="Layer 2" xmlns="http://www.w3.org/2000/svg" xmlns:xlink="http://www.w3.org/1999/xlink" viewBox="0 0 492.44 570.37">
  <defs>
    <style>
      .cls-1 {
        stroke-width: 1.8px;
      }

      .cls-1, .cls-2, .cls-3, .cls-4, .cls-5, .cls-6, .cls-7, .cls-8 {
        fill: none;
      }

      .cls-1, .cls-2, .cls-4, .cls-6, .cls-7, .cls-8 {
        stroke-linecap: round;
        stroke-linejoin: round;
      }

      .cls-1, .cls-4, .cls-6 {
        stroke: #fff;
      }

      .cls-9 {
        fill: #fff;
      }

      .cls-10 {
        fill: #2fade2;
      }

      .cls-11 {
        fill: #087caf;
      }

      .cls-12 {
        clip-path: url(#clippath-2);
      }

      .cls-13 {
        filter: url(#drop-shadow-1);
      }

      .cls-14 {
        fill: #a1c9e5;
      }

      .cls-15 {
        clip-path: url(#clippath-1);
      }

      .cls-2 {
        stroke: #e26e85;
      }

      .cls-2, .cls-4, .cls-7 {
        stroke-width: 1.8px;
      }

      .cls-16 {
        clip-path: url(#clippath);
      }

      .cls-17 {
        fill: #22272e;
      }

      .cls-5 {
        stroke: #6bbcf9;
        stroke-miterlimit: 10;
      }

      .cls-18 {
        fill: #e26e85;
      }

      .cls-19 {
        fill: #f4c2c9;
      }

      .cls-6 {
        stroke-width: .5px;
      }

      .cls-7, .cls-8 {
        stroke: #005886;
      }

      .cls-20 {
        fill: #045887;
      }

      .cls-21 {
        fill: #98c0e5;
      }

      .cls-8 {
        stroke-width: 1.8px;
      }

      .cls-22 {
        fill: #d0e5f7;
      }
    </style>
    <filter id="drop-shadow-1" filterUnits="userSpaceOnUse">
      <feOffset dx="7" dy="7"/>
      <feGaussianBlur result="blur" stdDeviation="12"/>
      <feFlood flood-color="#000" flood-opacity=".46"/>
      <feComposite in2="blur" operator="in"/>
      <feComposite in="SourceGraphic"/>
    </filter>
    <clipPath id="clippath">
      <path class="cls-3" d="m458.12,164.25s36,79.12,0,240-168.58,119.52-185.38,115.88c-30.25-1.5-256.5-96.38-272.75-286.5C0,40.5,220-51,343.75,28.87c0,0,77.62,41.62,114.38,135.38Z"/>
    </clipPath>
    <clipPath id="clippath-1">
      <path class="cls-3" d="m493.51,410.89l-470.03-13.47c-21.87-.63-39.86-17.35-42.03-39.14l-22.69-224.17c-2.53-25.4,17.17-47.55,42.66-47.91l523.18-7.23c26.39-.36,47.09,22.69,43.84,48.9l-30.46,244.87c-2.8,22.24-22.06,38.78-44.47,38.14Z"/>
    </clipPath>
    <clipPath id="clippath-2">
      <path class="cls-3" d="m92.72,144.96c1.99-5.88,9.58-9.4,15.73-8.86,6.33.54,18.44.72,30.1,4.34,19.89,6.15,24.68,9.76,25.85,10.85,6.6,6.33,5.97,15.73,2.17,41.67-2.44,17.08-4.52,21.42-3.98,29.83.54,8.32,2.08,23.32,3.07,26.39.99,3.07-1.54,8.41-3.71,10.3-2.17,1.9-19.71,5.88-35.98,5.51-16.18-.36-41.85-4.79-45.92-7.5-4.07-2.71-6.96-7.41-6.06-11.48.81-4.07,1.81-9.85,4.34-18.44,2.53-8.59,2.71-19.8,6.69-37.78,3.07-13.29,3.53-32.54,7.68-44.83Z"/>
    </clipPath>
  </defs>
  <g id="illustration">
    <g>
      <path class="cls-9" d="m487.03,315.78s-12.8,85.98-130.47,201.44c-117.67,115.46-206.47,8.67-218.58-3.51-24.57-17.7-162.9-220.33-73.18-388.74C169.79-37.13,404.18,5.67,464.63,139.98c0,0,42.53,77.14,22.41,175.8Z"/>
      <g class="cls-13">
        <g class="cls-16">
          <path class="cls-22" d="m458.12,164.25s36,79.12,0,240-168.58,119.52-185.38,115.88c-30.25-1.5-256.5-96.38-272.75-286.5C0,40.5,220-51,343.75,28.87c0,0,77.62,41.62,114.38,135.38Z"/>
          <g>
            <path class="cls-22" d="m493.51,410.89l-470.03-13.47c-21.87-.63-39.86-17.35-42.03-39.14l-22.69-224.17c-2.53-25.4,17.17-47.55,42.66-47.91l523.18-7.23c26.39-.36,47.09,22.69,43.84,48.9l-30.46,244.87c-2.8,22.24-22.06,38.78-44.47,38.14Z"/>
            <g class="cls-15">
              <path class="cls-5" d="m352.77,421.55l1.63,36.61c0,7.5-6.06,13.56-13.56,13.56H-34.82c-7.5,0-13.56-6.06-13.56-13.56v-213.05c0-7.5,6.06-13.56,13.56-13.56h375.57c7.5,0,13.56,6.06,13.56,13.56v144.08"/>
              <path class="cls-5" d="m436.93,390.1v-209.8c0-7.5,6.06-13.56,13.56-13.56h112.08c7.5,0,13.56,6.06,13.56,13.56v311.21c0,7.5-6.06,13.56-13.56,13.56h-112.08c-7.5,0-13.56-6.06-13.56-13.56v-67.7"/>
              <path class="cls-5" d="m35.77,168.01H-45.49v-8.04H35.77c.9,0,1.63.72,1.63,1.63v4.7c.09.9-.63,1.72-1.63,1.72Z"/>
              <path class="cls-5" d="m23.39,231.55H5.04c-1.99,0-3.62-1.45-3.89-3.43l-1.45-13.02c-.27-2.26,1.54-4.34,3.89-4.34h21.24c2.35,0,4.07,1.99,3.89,4.34l-1.45,13.02c-.18,1.99-1.9,3.43-3.89,3.43Z"/>
              <path class="cls-14" d="m12.09,210.85s-7.23-.72-8.68-10.49c0,0,6.51,1.9,8.59,6.51,0,0,.9-10.3,5.78-11.3,0,0,2.17,7.68-1.27,11.48,0,0,2.62-4.34,9.31-4.25,0,0-1.72,6.15-8.32,7.95"/>
              <path class="cls-5" d="m337.95,276.48h-81.53c-2.08,0-3.8-1.72-3.8-3.8v-24.77c0-2.08,1.72-3.8,3.8-3.8h81.53c2.08,0,3.8,1.72,3.8,3.8v24.77c0,2.08-1.72,3.8-3.8,3.8Z"/>
              <path class="cls-14" d="m306.49,252.88h-18.8c-.72,0-1.36-.63-1.36-1.36h0c0-.72.63-1.36,1.36-1.36h18.8c.72,0,1.36.63,1.36,1.36h0c0,.72-.54,1.36-1.36,1.36Z"/>
              <path class="cls-5" d="m337.95,317.96h-81.53c-2.08,0-3.8-1.72-3.8-3.8v-24.77c0-2.08,1.72-3.8,3.8-3.8h81.53c2.08,0,3.8,1.72,3.8,3.8v24.77c0,2.08-1.72,3.8-3.8,3.8Z"/>
              <path class="cls-14" d="m306.49,294.28h-18.8c-.72,0-1.36-.63-1.36-1.36h0c0-.72.63-1.36,1.36-1.36h18.8c.72,0,1.36.63,1.36,1.36h0c0,.72-.54,1.36-1.36,1.36Z"/>
              <path class="cls-5" d="m234,276.48h-81.53c-2.08,0-3.8-1.72-3.8-3.8v-24.77c0-2.08,1.72-3.8,3.8-3.8h81.53c2.08,0,3.8,1.72,3.8,3.8v24.77c0,2.08-1.72,3.8-3.8,3.8Z"/>
              <path class="cls-14" d="m202.63,252.88h-18.8c-.72,0-1.36-.63-1.36-1.36h0c0-.72.63-1.36,1.36-1.36h18.8c.72,0,1.36.63,1.36,1.36h0c0,.72-.63,1.36-1.36,1.36Z"/>
              <path class="cls-5" d="m234,317.96h-81.53c-2.08,0-3.8-1.72-3.8-3.8v-24.77c0-2.08,1.72-3.8,3.8-3.8h81.53c2.08,0,3.8,1.72,3.8,3.8v24.77c0,2.08-1.72,3.8-3.8,3.8Z"/>
              <path class="cls-14" d="m202.63,294.28h-18.8c-.72,0-1.36-.63-1.36-1.36h0c0-.72.63-1.36,1.36-1.36h18.8c.72,0,1.36.63,1.36,1.36h0c0,.72-.63,1.36-1.36,1.36Z"/>
              <path class="cls-5" d="m337.95,358.46h-81.53c-2.08,0-3.8-1.72-3.8-3.8v-24.77c0-2.08,1.72-3.8,3.8-3.8h81.53c2.08,0,3.8,1.72,3.8,3.8v24.77c0,2.08-1.72,3.8-3.8,3.8Z"/>
              <path class="cls-14" d="m306.49,334.87h-18.8c-.72,0-1.36-.63-1.36-1.36h0c0-.72.63-1.36,1.36-1.36h18.8c.72,0,1.36.63,1.36,1.36h0c0,.72-.54,1.36-1.36,1.36Z"/>
              <path class="cls-5" d="m234,358.46h-81.53c-2.08,0-3.8-1.72-3.8-3.8v-24.77c0-2.08,1.72-3.8,3.8-3.8h81.53c2.08,0,3.8,1.72,3.8,3.8v24.77c0,2.08-1.72,3.8-3.8,3.8Z"/>
              <path class="cls-14" d="m202.63,334.87h-18.8c-.72,0-1.36-.63-1.36-1.36h0c0-.72.63-1.36,1.36-1.36h18.8c.72,0,1.36.63,1.36,1.36h0c0,.72-.63,1.36-1.36,1.36Z"/>
              <path class="cls-5" d="m600.71,261.47h-144.53c-2.26,0-4.16-1.9-4.16-4.16v-72.04c0-2.26,1.9-4.16,4.16-4.16h144.53c2.26,0,4.16,1.9,4.16,4.16v72.04c0,2.35-1.81,4.16-4.16,4.16Z"/>
              <path class="cls-5" d="m600.71,350.96h-144.53c-2.26,0-4.16-1.9-4.16-4.16v-72.04c0-2.26,1.9-4.16,4.16-4.16h144.53c2.26,0,4.16,1.9,4.16,4.16v72.04c0,2.26-1.81,4.16-4.16,4.16Z"/>
              <rect class="cls-5" x="479.77" y="216" width="8.95" height="45.47"/>
              <rect class="cls-5" x="488.63" y="228.48" width="9.31" height="33.08"/>
              <rect class="cls-5" x="-5.9" y="114.5" width="8.95" height="45.47"/>
              <rect class="cls-5" x="2.96" y="126.88" width="9.31" height="33.08"/>
              <path class="cls-14" d="m483.12,311.46l.99-13.47c.09-.9-.63-1.63-1.54-1.63h-7.68c-.9,0-1.54.72-1.54,1.63l.99,13.47s-8.14,5.24-8.04,9.58c.09,3.34,2.08,19.34,2.98,26.39.27,1.99,1.9,3.43,3.89,3.43h11.21c1.99,0,3.62-1.45,3.89-3.43.9-7.05,2.89-23.05,2.98-26.39,0-4.34-8.14-9.58-8.14-9.58Z"/>
              <line class="cls-5" x1="-36.09" y1="384.94" x2="599.36" y2="391.9"/>
            </g>
            <path class="cls-9" d="m298.45,63.24c-3.53,7.5-11.66,12.47-17.35,10.94-4.97-1.36-5.88-7.23-2.71-13.11,3.07-5.6,9.22-10.12,14.55-10.21,5.88-.18,8.77,5.24,5.51,12.38Z"/>
            <path class="cls-10" d="m296.73,61.71c-3.53,7.5-11.66,12.47-17.35,10.94-4.97-1.36-5.88-7.23-2.71-13.11,3.07-5.6,9.22-10.12,14.55-10.21,5.88-.18,8.77,5.24,5.51,12.38Z"/>
            <path class="cls-9" d="m293.84,61.35c-2.62,5.6-8.77,9.4-13.11,8.41-3.89-.9-4.79-5.42-2.35-10.03,2.35-4.43,7.32-7.95,11.39-7.95,4.61.09,6.6,4.25,4.07,9.58Z"/>
            <path class="cls-10" d="m282.09,66.14l.36-.63c.09-.27.09-.45-.09-.54-.45-.09-.81-.36-.99-.63-.09-.09-.09-.36.09-.63l.09-.09c.18-.27.54-.36.63-.18.27.27.63.54,1.18.63.9.18,1.81-.36,2.26-1.27.45-.81.18-1.45-.54-1.99-.99-.72-1.36-1.45-.72-2.71.54-1.08,1.54-1.9,2.71-2.08.18,0,.36-.18.54-.45l.36-.63c.09-.27.36-.45.63-.45h0c.18,0,.27.18.18.45l-.27.54c-.09.27-.09.45.18.45.36.09.63.18.81.36.18.09.09.36-.09.63l-.09.09c-.18.27-.54.36-.63.18-.27-.18-.54-.36-1.08-.36-.99-.09-1.63.54-1.99,1.18-.36.72-.09,1.18.72,1.81.99.72,1.36,1.63.63,2.98-.54,1.18-1.72,2.08-3.07,2.26-.18,0-.45.18-.54.45l-.36.72c-.09.27-.45.45-.63.45h0c-.36,0-.45-.27-.27-.54Z"/>
            <path class="cls-20" d="m463.23,224.77l-35.07-2.17c-2.44-.18-4.25-2.26-4.07-4.7l5.33-71.95c.18-2.44,2.17-4.43,4.7-4.61l35.89-2.17c2.62-.18,4.79,2.08,4.61,4.7l-5.97,76.29c-.36,2.8-2.71,4.79-5.42,4.61Z"/>
            <path class="cls-20" d="m460.79,224.77l-35.07-2.17c-2.44-.18-4.25-2.26-4.07-4.7l5.33-71.95c.18-2.44,2.17-4.43,4.7-4.61l35.89-2.17c2.62-.18,4.79,2.08,4.61,4.7l-5.97,76.29c-.36,2.8-2.71,4.79-5.42,4.61Z"/>
            <path class="cls-11" d="m450.03,147.58l-6.69.36c-.54,0-.9-.36-.9-.9h0c0-.54.45-.99.99-.99l6.69-.36c.54,0,.9.36.9.9h0c0,.54-.45.99-.99.99Z"/>
            <path class="cls-11" d="m453.92,147.4h-.18c-.54,0-.9-.36-.9-.9h0c0-.54.54-.99,1.08-1.08h.18c.54,0,.9.36.9.9h0c-.09.54-.54,1.08-1.08,1.08Z"/>
            <path class="cls-11" d="m443.44,159.6l-8.95.27c-.9,0-1.63-.72-1.54-1.72h0c.09-.99.9-1.72,1.81-1.81l8.95-.36c.9,0,1.63.72,1.54,1.72h0c0,.99-.81,1.81-1.81,1.9Z"/>
            <path class="cls-11" d="m441.09,190.69l-8.86-.09c-.9,0-1.54-.81-1.54-1.72h0c.09-.9.9-1.72,1.81-1.72l8.86.09c.9,0,1.63.81,1.54,1.72h0c-.09.99-.9,1.72-1.81,1.72Z"/>
            <path class="cls-11" d="m439.19,215.82l-8.86-.45c-.9,0-1.54-.81-1.54-1.81h0c.09-.9.81-1.72,1.72-1.63l8.86.36c.9,0,1.63.81,1.54,1.81h0c0,.99-.81,1.72-1.72,1.72Z"/>
            <path class="cls-11" d="m459.8,179.58l-26.39.09c-1.08,0-1.99-.9-1.9-2.08l.81-11.48c.09-.99.9-1.72,1.81-1.72l26.48-.72c1.08,0,1.99.9,1.9,2.08l-.9,12.02c0,.99-.81,1.81-1.81,1.81Z"/>
            <path class="cls-10" d="m440.45,206.15l-9.04-.36c-1.08,0-1.9-.99-1.81-2.08l.54-6.87c.09-.99.9-1.81,1.9-1.72l9.13.18c1.08,0,1.9.99,1.9,2.08l-.54,7.05c-.18.99-.99,1.72-2.08,1.72Z"/>
            <path class="cls-19" d="m457.63,206.69l-9.67-.36c-1.08,0-1.9-.99-1.81-2.08l.54-7.14c.09-.99.9-1.81,1.9-1.72l9.76.18c1.08,0,1.9.99,1.9,2.08l-.54,7.32c-.18.99-1.08,1.81-2.08,1.72Z"/>
            <path class="cls-20" d="m241.23,113.5l-29.38,1.36c-2.35.09-3.98-1.81-3.71-4.25l4.88-48.81c.27-2.53,2.35-4.79,4.7-5.06l29.92-3.89c2.62-.36,4.43,1.54,4.16,4.16l-5.51,51.61c-.18,2.53-2.53,4.7-5.06,4.88Z"/>
            <path class="cls-20" d="m239.06,112.51l-29.38,1.36c-2.35.09-3.98-1.81-3.71-4.25l4.88-48.81c.27-2.53,2.35-4.79,4.7-5.06l29.92-3.89c2.62-.36,4.43,1.54,4.16,4.16l-5.51,51.61c-.27,2.62-2.53,4.79-5.06,4.88Z"/>
            <path class="cls-19" d="m240.42,68.31l-22.87,2.44c-.72.09-1.36-.54-1.27-1.27l.54-5.6c.09-.54.45-.99.99-.99l22.96-2.71c.72-.09,1.36.54,1.27,1.27l-.63,5.88c0,.54-.45.99-.99.99Z"/>
            <path class="cls-11" d="m219.18,83.85l-2.98.27c-.72.09-1.36-.54-1.27-1.27l.36-3.25c.09-.54.45-.99.99-.99l2.98-.27c.72-.09,1.36.54,1.27,1.27l-.36,3.25c0,.54-.45.9-.99.99Z"/>
            <path class="cls-11" d="m238.97,82.14l-3.25.27c-.72.09-1.36-.54-1.27-1.27l.36-3.43c.09-.54.45-.99.99-.99l3.25-.36c.72-.09,1.36.54,1.27,1.27l-.36,3.43c0,.54-.45.99-.99,1.08Z"/>
            <path class="cls-11" d="m228.94,82.95l-3.07.27c-.72.09-1.36-.54-1.27-1.27l.36-3.34c.09-.54.45-.99.99-.99l3.07-.27c.72-.09,1.36.54,1.27,1.27l-.36,3.34c0,.54-.45.99-.99.99Z"/>
            <path class="cls-11" d="m218,94.97l-2.98.18c-.72.09-1.27-.54-1.27-1.27l.36-3.25c.09-.54.54-.99,1.08-.99l2.98-.27c.72-.09,1.36.54,1.27,1.27l-.36,3.25c-.09.63-.54,1.08-1.08,1.08Z"/>
            <path class="cls-11" d="m237.8,93.62l-3.25.27c-.72.09-1.27-.54-1.27-1.27l.36-3.34c.09-.54.54-.99,1.08-.99l3.25-.27c.72-.09,1.36.54,1.27,1.27l-.36,3.43c-.09.36-.54.81-1.08.9Z"/>
            <path class="cls-11" d="m227.76,94.34l-3.07.18c-.72.09-1.27-.54-1.27-1.27l.36-3.34c.09-.54.54-.99,1.08-.99l3.07-.27c.72-.09,1.36.54,1.27,1.27l-.36,3.34c-.09.54-.54.99-1.08,1.08Z"/>
            <path class="cls-11" d="m216.83,106.09l-2.89.18c-.72,0-1.27-.54-1.18-1.27l.36-3.25c.09-.54.54-.99,1.08-.99l2.89-.18c.72-.09,1.27.54,1.18,1.27l-.36,3.25c0,.54-.54.99-1.08.99Z"/>
            <path class="cls-10" d="m236.53,105l-3.25.18c-.72,0-1.27-.54-1.18-1.27l.36-3.34c.09-.54.54-.99,1.08-.99l3.25-.18c.72-.09,1.27.54,1.18,1.27l-.36,3.43c-.09.45-.54.9-1.08.9Z"/>
            <path class="cls-10" d="m226.59,105.55l-3.07.18c-.72,0-1.27-.54-1.18-1.27l.36-3.25c.09-.54.54-.99,1.08-.99l3.07-.18c.72-.09,1.27.54,1.18,1.27l-.36,3.34c-.09.45-.54.9-1.08.9Z"/>
            <path class="cls-9" d="m269.7,112.96l141.55-14.64c2.62-.27,4.79,1.9,4.61,4.52l-12.11,137.76c-.27,3.43-3.25,5.97-6.6,5.78l-137.48-7.41c-2.35-.09-4.07-2.17-3.98-4.43l8.32-115.61c.27-3.16,2.62-5.6,5.69-5.97Z"/>
            <path class="cls-10" d="m264.55,111.42l143.18-14.82c2.62-.27,4.88,1.9,4.61,4.61l-12.2,139.29c-.27,3.43-3.25,6.06-6.69,5.78l-139.11-7.5c-2.35-.09-4.16-2.17-3.98-4.52l8.41-116.97c.36-3.07,2.71-5.51,5.79-5.88Z"/>
            <g>
              <path class="cls-6" d="m266.53,143.4v67.06c0,.18-.01.36,0,.55.07.96.42,1.29,1.4,1.32,37.23,1.27,79.64,2.71,128.39,4.37v-93.81c0-1.17-.49-1.54-1.96-1.47-.28.01-.56.05-.84.08-47.61,4.86-89.14,9.11-125.68,12.84q-1.31.13-1.31,1.41c0,2.52,0,5.04,0,7.56"/>
              <path class="cls-6" d="m391.02,168.14c0-4.88-.03-9.76.02-14.65,0-.89-.3-1.11-1.41-1.05-37.42,2.2-71,4.15-101.33,5.92-.2.01-.43-.08-.7.23v1.31c0,3.72.02,7.43-.01,11.15,0,.98-.05,1.14,1.22,1.1,12.23-.44,24.97-.88,38.26-1.34,19.81-.69,40.89-1.43,63.39-2.21"/>
              <path class="cls-6" d="m287.61,155.37c.19.57.71.33,1.11.3,11.42-.71,23.29-1.45,35.64-2.23,20.27-1.27,41.9-2.63,65.01-4.07,1.74-.11,1.68-.04,1.66-1.44-.01-.85-.03-1.7,0-2.55.03-.59-.25-.82-.98-.71-.23.03-.46.03-.69.05-37.51,2.6-71.17,4.93-101.55,7.04"/>
              <path class="cls-6" d="m396.18,132.07c-49.25,4.27-92.04,7.98-129.56,11.23"/>
              <path class="cls-6" d="m266.72,138.1c37.49-3.59,80.25-7.69,129.46-12.4"/>
              <path class="cls-6" d="m392.69,131.15c.61-1.29.14-2.54.26-3.81.03-.27-.28-.43-.68-.38-.32.04-.65.06-.97.09-39.61,3.74-74.95,7.08-106.68,10.08-1.25.12-1.25.07-1.18,1.24.05.81-.26,1.68.18,2.42"/>
              <path class="cls-6" d="m390.75,171.7c-38.07,1.16-72.18,2.2-102.93,3.13"/>
              <path class="cls-6" d="m390.47,176.36c-37.87.9-71.83,1.7-102.46,2.43"/>
              <path class="cls-6" d="m269.53,145.53c0,.82.03,1.65,0,2.47-.04.76.34,1,1.05.93.13-.01.25-.02.38-.03,12.85-.98,26.28-2.01,40.34-3.08q1.63-.12,1.63-1.6v-2.27"/>
              <path class="cls-6" d="m312.48,141.59c-14.87,1.24-29.05,2.41-42.57,3.54"/>
              <path class="cls-6" d="m268.4,142.14c1.72.04,3.46-.24,5.21-.38,1.15-.09,2.31-.1,3.53-.42.25-.97.11-1.96.11-2.95,0-.57-.5-.51-.95-.47-2.59.25-5.16.49-7.71.73"/>
              <path class="cls-6" d="m390.47,135.12c-7.24.6-14.34,1.19-21.29,1.77-1.45.12-1.55.2-1.55,1.42,0,.93-.11,1.87.12,2.78"/>
              <path class="cls-6" d="m391.02,135.51c0,.92,0,1.85,0,2.77,0,1.26-.22,1.46-1.79,1.58-6.32.48-12.52.96-18.62,1.42l-2.08.16"/>
              <path class="cls-6" d="m280.48,139.02c.17,0,.34-.01.5-.22-.26-.36-.6-.48-1.08-.1-.37.3-.51.71-.37,1.05.2.51.76.46,1.25.35.18-.04.33-.26.49-.4"/>
              <path class="cls-6" d="m275.72,139.83c-.74.07-1.47.13-2.21.2"/>
              <path class="cls-6" d="m271.8,140.19l-1.99.18"/>
              <path class="cls-6" d="m270.28,139.59c-.8.8-.8.81,0,1.47"/>
              <path class="cls-6" d="m275.24,139.13c.29.07.45.27.56.52.08.43-.45.59-.56.96"/>
              <path class="cls-6" d="m325.37,131.28c.61-.23,1.21-.3,1.82-.18"/>
              <path class="cls-6" d="m278.53,137.71c-.49.23-.62.6-.59,1.08.04.55.04,1.11,0,1.67-.05.64.22.92.88.85,1.01-.09,2.02-.17,3.03-.27.63-.06.97-.37.89-1.01-.03-.24,0-.5,0-.75.03-2,.14-2.03-1.97-1.78-.72.08-1.43.14-2.15.21"/>
              <path class="cls-6" d="m288.01,181.25c-.58.16-.4.6-.4.95,0,4.06,0,8.12,0,12.23,4.68.01,9.44.03,14.27.04,0-4.31-.01-8.56,0-12.82,0-.78-.54-.66-1.06-.66-2.85.05-5.68.11-8.47.16-1.42.03-2.84.06-4.25.08"/>
              <path class="cls-6" d="m304.31,180.93c-.49.11-.42.46-.42.78,0,4.08,0,8.15,0,12.23,0,.17-.02.34.26.53,4.76.01,9.75.03,14.88.04v-13.88c-4.98.1-9.83.19-14.61.29"/>
              <path class="cls-6" d="m321.99,180.58c-.66.16-.44.64-.44,1.01-.01,4.3,0,8.59,0,12.93,5.24.01,10.56.03,16.1.04v-.97c0-4.1-.03-8.2.02-12.29,0-.82-.26-1.05-1.2-1.02-4.86.13-9.64.21-14.36.3"/>
            </g>
            <path class="cls-20" d="m103.93,454.73c-.36,1.18-1.18,5.88-1.81,10.21-10.76,1.81-19.98-2.44-19.98-2.44.45-4.52.9-9.22.9-9.22,0-2.53,21.6-.72,20.88,1.45Z"/>
            <path class="cls-19" d="m102.12,464.85c-.54,3.8-1.08,7.14-1.08,7.14,0,0-2.44,5.69-8.59,5.69s-11.12-5.15-11.03-7.32c.09-.99.36-4.43.72-7.95,0,0,9.13,4.25,19.98,2.44Z"/>
            <path class="cls-20" d="m81.51,468.65s1.72,1.9,2.8,2.8c.99.9,4.07-1.9,8.41-1.36,4.34.54,5.69,2.26,5.69,2.26,0,0,1.81-.36,2.8-1.18,0,0,0,3.07,1.36,6.6,1.36,3.53,8.23,13.83,8.23,15.82s-.45,3.53-1.9,4.16c-1.45.63-11.03.72-19.07.9-8.04.18-14.28.63-15.19-2.53-.9-3.16,2.8-13.02,4.34-19.07,1.54-6.15,1.27-8.32,2.53-8.41Z"/>
            <path class="cls-4" d="m82.87,485.37s9.67-5.15,18.89,0"/>
            <path class="cls-4" d="m84.68,480.31s7.5-2.44,15.37,0"/>
            <path class="cls-20" d="m197.75,460.96c-10.3,3.53-20.97,1.36-20.88,1.45-.36-5.06-.81-10.39-.81-10.39,1.36-3.16,20.79-4.61,20.97-3.25,0,.72.36,6.69.72,12.2Z"/>
            <path class="cls-19" d="m198.3,470.54s-1.36,4.25-7.23,6.42c-5.88,2.17-13.38-3.71-13.47-5.42-.09-.72-.36-4.88-.72-9.13,0-.09,10.58,2.08,20.88-1.45.27,4.97.54,9.58.54,9.58Z"/>
            <path class="cls-20" d="m177.42,470.27c-.63,0-1.08.9-1.45,6.6-.36,5.69-2.17,18.26,0,20.16,2.17,1.9,45.47,1.36,50.44.99,4.97-.36,7.68-3.62,6.15-5.79s-12.2-6.15-21.6-12.47c-9.4-6.33-11.66-7.68-12.75-9.22,0,0,.54-5.15-2.26-4.34-2.8.81-4.7,7.5-8.32,8.41-3.53.81-4.07-4.7-10.21-4.34Z"/>
            <path class="cls-4" d="m213.03,479.94s-2.44-.72-7.95,5.15"/>
            <path class="cls-4" d="m207.06,476.06s-4.34-.18-9.31,6.24"/>
            <line class="cls-4" x1="85.58" y1="463.67" x2="86.12" y2="460.06"/>
            <line class="cls-4" x1="91.82" y1="465.03" x2="92.36" y2="461.41"/>
            <line class="cls-4" x1="98.69" y1="465.3" x2="99.32" y2="462.05"/>
            <line class="cls-4" x1="180.94" y1="462.86" x2="180.67" y2="459.06"/>
            <line class="cls-4" x1="188.44" y1="462.77" x2="188.17" y2="458.61"/>
            <line class="cls-4" x1="195.22" y1="461.69" x2="194.95" y2="457.8"/>
            <path class="cls-20" d="m79.52,252.34s-2.26,9.31-2.53,21.69c-.27,12.38,9.4,51.16,12.93,64.27,3.53,13.2,2.8,15.19,2.26,17.72s-5.97,22.6-7.77,43.39c-1.81,20.79-8.32,37.51-7.59,43.93.99,8.68,4.7,11.21,6.24,12.2,1.54.99,14.19,5.06,22.78,3.07,0,0,9.13-5.79,10.85-13.92,1.81-8.14.72-17.99,6.6-44.56,5.78-26.57,8.59-37.51,9.4-48.09.45-6.33.54-24.41.63-38.24.09-9.4.09-16.9.18-17.63.27-1.81,4.7.27,7.05-5.51.99-2.62,1.54-7.59,1.63-12.93.18-6.78-.27-14.19-1.18-18.26-1.45-7.5-60.02-15.1-61.47-7.14Z"/>
            <path class="cls-20" d="m203.54,444.96c-1.54,3.8-4.34,8.14-6.87,9.13-2.53.99-13.92,2.53-19.71,1.99,0,0-9.67-2.8-10.67-10.12-.99-7.32.72-15.46-2.53-31.91-3.25-16.45-6.06-45.56-6.87-54.14-.72-8.59-18.53-34.17-26.85-49.62-8.32-15.46-17.26-43.75-9.85-50.35,7.41-6.69,33.9-9.58,41.76-4.25,0,0,9.13,22.24,18.26,48.81,8.41,24.41,10.12,32.63,11.3,39.68.09.63.18,1.27.36,1.9.36,2.17.81,7.77,1.45,15,1.45,18.35,3.16,46.82,3.89,53.33.99,9.04,7.86,26.76,6.33,30.55Z"/>
            <path class="cls-4" d="m128.42,297.54s9.58-3.53,18.08-4.88"/>
            <ellipse class="cls-1" cx="115.07" cy="358.13" rx="12.11" ry="11.93" transform="translate(-258.63 401.09) rotate(-78.74)"/>
            <path class="cls-4" d="m193.32,360.99c-2.17,2.71-5.51,4.43-9.22,4.43-6.6,0-11.93-5.33-11.93-12.02s5.33-12.02,11.84-12.02c2.8,0,5.42.99,7.5,2.71"/>
            <path class="cls-4" d="m81.6,295.1s10.03-8.14,10.12-23.14c0,0-6.33-.36-10.12-1.27"/>
            <path class="cls-4" d="m133.31,313.81c.09-9.4.09-16.9.18-17.63.27-1.81,4.7.27,7.05-5.51.99-2.62,1.54-7.59,1.63-12.93"/>
            <path class="cls-21" d="m159.97,148.84s7.41.36,19.34,24.22c11.93,23.77,16.18,32.45,16.18,32.45,0,0,7.86-1.9,20.7-3.98,12.84-2.08,30.91-4.7,30.91-4.7,0,0,4.88.09,6.96,7.05,1.45,5.06-.81,8.68-2.17,10.3-.45.54-.99.99-1.72,1.27-5.51,2.35-37.69,15.91-48.63,18.26-12.02,2.53-17.9,2.17-28.56-12.47-10.67-14.64-19.07-26.03-22.96-31.91-3.89-6.15-6.69-39.59,9.94-40.49Z"/>
            <path class="cls-7" d="m180.31,229.56s-.63-4.79,8.68-4.79,14.1,6.96,11.84,8.95"/>
            <path class="cls-7" d="m195.49,205.43s-3.89,1.81-4.7,4.52"/>
            <path class="cls-19" d="m247.56,197.56s3.98-1.45,4.97-1.99c.99-.54,3.16-4.34,4.97-6.69,1.81-2.35,6.96-3.71,8.41-3.43,1.45.27,1.99,1.18,1.99,1.18,0,0,4.52-1.63,7.59-2.89,3.07-1.27,8.77-4.07,9.58-1.81.45,1.36-3.07,3.34-5.51,4.7-2.98,1.72-4.97,2.98-4.97,2.98,0,0,1.45.72,1.81,2.62.36,1.9,1.36,3.98-.45,6.87-.54.81,1.54,3.07-.09,5.15-2.8,3.34-9.58,5.06-13.2,6.15-3.71,1.08-12.11,1.63-12.11,1.63,0,0-2.71-.63-3.89-6.51s.9-7.95.9-7.95Z"/>
            <path class="cls-2" d="m267.9,186.63s.63,1.63,1.36,4.07c.72,2.44,1.27,4.34-.63,4.43-1.9.09-3.62-2.8-4.34-4.25"/>
            <path class="cls-2" d="m265.55,192.95s2.08,4.16-2.71,7.77"/>
            <line class="cls-2" x1="274.68" y1="189.61" x2="269.61" y2="191.96"/>
            <path class="cls-2" d="m267.08,194.58s-.9,1.45,0,2.26c.9.81,5.88-.99,9.49-3.07"/>
            <path class="cls-2" d="m267.9,197.02s-1.54.81-.81,2.44,4.61.99,8.86-.36"/>
            <path class="cls-2" d="m268.71,200.46s-2.26.27-1.08,2.53c.72,1.36,5.06.9,5.97,1.27"/>
            <path class="cls-7" d="m242.32,198.38c-.72,1.27-1.63,3.71-.99,8.04.72,5.51,3.89,8.23,5.6,9.31"/>
            <path class="cls-19" d="m130.68,115.76s-2.89,14.55-4.52,18.53c-1.63,3.98,7.23,10.21,16.09,10.58,8.86.36,7.95-4.79,7.95-4.79l2.62-14.46c0,.09-18.98-13.2-22.15-9.85Z"/>
            <path class="cls-18" d="m134.66,120.1c-1.27,11.03,6.69,16.36,15.55,20.52v-.54l1.45-7.68c-6.6-2.17-12.38-6.87-16.99-12.29Z"/>
            <path class="cls-10" d="m92.72,144.96c1.99-5.88,9.58-9.4,15.73-8.86,6.33.54,18.44.72,30.1,4.34,19.89,6.15,24.68,9.76,25.85,10.85,6.6,6.33,5.97,15.73,2.17,41.67-2.44,17.08-4.52,21.42-3.98,29.83.54,8.32,2.08,23.32,3.07,26.39.99,3.07-1.54,8.41-3.71,10.3-2.17,1.9-19.71,5.88-35.98,5.51-16.18-.36-41.85-4.79-45.92-7.5-4.07-2.71-6.96-7.41-6.06-11.48.81-4.07,1.81-9.85,4.34-18.44,2.53-8.59,2.71-19.8,6.69-37.78,3.07-13.29,3.53-32.54,7.68-44.83Z"/>
            <g class="cls-12">
              <ellipse class="cls-9" cx="164.95" cy="123.61" rx="4.43" ry="2.17" transform="translate(-37.88 86.88) rotate(-26.58)"/>
              <ellipse class="cls-9" cx="179.87" cy="133.75" rx="4.43" ry="2.17" transform="translate(-40.84 94.63) rotate(-26.58)"/>
              <ellipse class="cls-9" cx="146.7" cy="132.76" rx="4.43" ry="2.17" transform="translate(-43.9 79.68) rotate(-26.58)"/>
              <ellipse class="cls-9" cx="161.7" cy="142.86" rx="4.43" ry="2.17" transform="translate(-46.84 87.46) rotate(-26.58)"/>
              <ellipse class="cls-9" cx="178.69" cy="151.09" rx="4.43" ry="2.17" transform="translate(-48.72 95.94) rotate(-26.58)"/>
              <ellipse class="cls-9" cx="193.61" cy="161.23" rx="4.43" ry="2.17" transform="translate(-51.68 103.68) rotate(-26.58)"/>
              <ellipse class="cls-9" cx="160.45" cy="160.24" rx="4.43" ry="2.17" transform="translate(-54.74 88.74) rotate(-26.58)"/>
              <ellipse class="cls-9" cx="175.44" cy="170.34" rx="4.43" ry="2.17" transform="translate(-57.68 96.52) rotate(-26.58)"/>
              <ellipse class="cls-9" cx="128.54" cy="141.87" rx="4.43" ry="2.17" transform="translate(-49.9 72.52) rotate(-26.58)"/>
              <ellipse class="cls-9" cx="143.46" cy="152.01" rx="4.43" ry="2.17" transform="translate(-52.86 80.27) rotate(-26.58)"/>
              <ellipse class="cls-9" cx="110.25" cy="150.94" rx="4.43" ry="2.17" transform="translate(-55.89 65.29) rotate(-26.58)"/>
              <ellipse class="cls-9" cx="125.25" cy="161.04" rx="4.43" ry="2.17" transform="translate(-58.82 73.07) rotate(-26.58)"/>
              <ellipse class="cls-9" cx="142.24" cy="169.27" rx="4.43" ry="2.17" transform="translate(-60.71 81.55) rotate(-26.58)"/>
              <ellipse class="cls-9" cx="157.2" cy="179.49" rx="4.43" ry="2.17" transform="translate(-63.7 89.32) rotate(-26.58)"/>
              <ellipse class="cls-9" cx="124" cy="178.42" rx="4.43" ry="2.17" transform="translate(-66.73 74.35) rotate(-26.58)"/>
              <ellipse class="cls-9" cx="138.99" cy="188.52" rx="4.43" ry="2.17" transform="translate(-69.67 82.13) rotate(-26.58)"/>
              <ellipse class="cls-9" cx="192.8" cy="179.29" rx="4.43" ry="2.17" transform="translate(-59.85 105.23) rotate(-26.58)"/>
              <ellipse class="cls-9" cx="207.72" cy="189.43" rx="4.43" ry="2.17" transform="translate(-62.81 112.98) rotate(-26.58)"/>
              <ellipse class="cls-9" cx="174.52" cy="188.36" rx="4.43" ry="2.17" transform="translate(-65.84 98.01) rotate(-26.58)"/>
              <ellipse class="cls-9" cx="189.52" cy="198.46" rx="4.43" ry="2.17" transform="translate(-68.78 105.79) rotate(-26.58)"/>
              <ellipse class="cls-9" cx="206.55" cy="206.77" rx="4.43" ry="2.17" transform="translate(-70.69 114.29) rotate(-26.58)"/>
              <ellipse class="cls-9" cx="221.46" cy="216.91" rx="4.43" ry="2.17" transform="translate(-73.65 122.03) rotate(-26.58)"/>
              <ellipse class="cls-9" cx="188.26" cy="215.84" rx="4.43" ry="2.17" transform="translate(-76.68 107.06) rotate(-26.58)"/>
              <ellipse class="cls-9" cx="203.26" cy="225.94" rx="4.43" ry="2.17" transform="translate(-79.62 114.84) rotate(-26.58)"/>
              <ellipse class="cls-9" cx="156.35" cy="197.47" rx="4.43" ry="2.17" transform="translate(-71.84 90.84) rotate(-26.58)"/>
              <ellipse class="cls-9" cx="171.27" cy="207.61" rx="4.43" ry="2.17" transform="translate(-74.8 98.59) rotate(-26.58)"/>
              <ellipse class="cls-9" cx="138.11" cy="206.62" rx="4.43" ry="2.17" transform="translate(-77.86 83.64) rotate(-26.58)"/>
              <ellipse class="cls-9" cx="153.11" cy="216.72" rx="4.43" ry="2.17" transform="translate(-80.8 91.42) rotate(-26.58)"/>
              <ellipse class="cls-9" cx="170.1" cy="224.95" rx="4.43" ry="2.17" transform="translate(-82.68 99.9) rotate(-26.58)"/>
              <ellipse class="cls-9" cx="185.01" cy="235.09" rx="4.43" ry="2.17" transform="translate(-85.64 107.64) rotate(-26.58)"/>
              <ellipse class="cls-9" cx="166.85" cy="244.2" rx="4.43" ry="2.17" transform="translate(-91.64 100.48) rotate(-26.58)"/>
              <ellipse class="cls-9" cx="91.91" cy="160.14" rx="4.43" ry="2.17" transform="translate(-61.94 58.06) rotate(-26.58)"/>
              <ellipse class="cls-9" cx="106.83" cy="170.28" rx="4.43" ry="2.17" transform="translate(-64.91 65.81) rotate(-26.58)"/>
              <ellipse class="cls-9" cx="73.75" cy="169.25" rx="4.43" ry="2.17" transform="translate(-67.94 50.89) rotate(-26.58)"/>
              <ellipse class="cls-9" cx="88.66" cy="179.39" rx="4.43" ry="2.17" transform="translate(-70.9 58.64) rotate(-26.58)"/>
              <ellipse class="cls-9" cx="105.65" cy="187.62" rx="4.43" ry="2.17" transform="translate(-72.79 67.11) rotate(-26.58)"/>
              <ellipse class="cls-9" cx="120.65" cy="197.72" rx="4.43" ry="2.17" transform="translate(-75.73 74.89) rotate(-26.58)"/>
              <ellipse class="cls-9" cx="87.49" cy="196.73" rx="4.43" ry="2.17" transform="translate(-78.79 59.95) rotate(-26.58)"/>
              <ellipse class="cls-9" cx="102.41" cy="206.87" rx="4.43" ry="2.17" transform="translate(-81.75 67.69) rotate(-26.58)"/>
              <ellipse class="cls-9" cx="55.5" cy="178.4" rx="4.43" ry="2.17" transform="translate(-73.97 43.7) rotate(-26.58)"/>
              <ellipse class="cls-9" cx="70.5" cy="188.5" rx="4.43" ry="2.17" transform="translate(-76.9 51.47) rotate(-26.58)"/>
              <ellipse class="cls-9" cx="37.3" cy="187.43" rx="4.43" ry="2.17" transform="translate(-79.93 36.5) rotate(-26.58)"/>
              <ellipse class="cls-9" cx="52.25" cy="197.65" rx="4.43" ry="2.17" transform="translate(-82.92 44.28) rotate(-26.58)"/>
              <ellipse class="cls-9" cx="69.24" cy="205.88" rx="4.43" ry="2.17" transform="translate(-84.81 52.75) rotate(-26.58)"/>
              <ellipse class="cls-9" cx="84.24" cy="215.98" rx="4.43" ry="2.17" transform="translate(-87.75 60.53) rotate(-26.58)"/>
              <ellipse class="cls-9" cx="51.04" cy="214.91" rx="4.43" ry="2.17" transform="translate(-90.78 45.56) rotate(-26.58)"/>
              <ellipse class="cls-9" cx="65.96" cy="225.05" rx="4.43" ry="2.17" transform="translate(-93.74 53.31) rotate(-26.58)"/>
              <ellipse class="cls-9" cx="101.6" cy="224.93" rx="4.43" ry="2.17" transform="translate(-89.91 69.24) rotate(-26.58)"/>
              <ellipse class="cls-9" cx="148.51" cy="253.4" rx="4.43" ry="2.17" transform="translate(-97.7 93.24) rotate(-26.58)"/>
              <ellipse class="cls-9" cx="115.3" cy="252.33" rx="4.43" ry="2.17" transform="translate(-100.73 78.27) rotate(-26.58)"/>
              <ellipse class="cls-9" cx="130.26" cy="262.55" rx="4.43" ry="2.17" transform="translate(-103.72 86.05) rotate(-26.58)"/>
              <ellipse class="cls-9" cx="83.32" cy="234" rx="4.43" ry="2.17" transform="translate(-95.9 62.02) rotate(-26.58)"/>
              <ellipse class="cls-9" cx="98.31" cy="244.1" rx="4.43" ry="2.17" transform="translate(-98.84 69.8) rotate(-26.58)"/>
              <ellipse class="cls-9" cx="65.15" cy="243.11" rx="4.43" ry="2.17" transform="translate(-101.9 54.85) rotate(-26.58)"/>
              <ellipse class="cls-9" cx="80.07" cy="253.25" rx="4.43" ry="2.17" transform="translate(-104.86 62.6) rotate(-26.58)"/>
              <ellipse class="cls-9" cx="97.06" cy="261.48" rx="4.43" ry="2.17" transform="translate(-106.75 71.07) rotate(-26.58)"/>
              <ellipse class="cls-9" cx="112.06" cy="271.58" rx="4.43" ry="2.17" transform="translate(-109.69 78.85) rotate(-26.58)"/>
              <ellipse class="cls-9" cx="78.89" cy="270.59" rx="4.43" ry="2.17" transform="translate(-112.75 63.91) rotate(-26.58)"/>
              <ellipse class="cls-9" cx="93.81" cy="280.73" rx="4.43" ry="2.17" transform="translate(-115.71 71.66) rotate(-26.58)"/>
            </g>
            <path class="cls-4" d="m117.58,211.21c5.06,1.08,16.63,3.25,30.55,3.53,1.36,0,2.53,1.08,2.71,2.44.27,2.35,1.36,6.15,4.61,9.76.45.45.72,1.08.72,1.81.09,3.8.27,16.63-2.26,18.62-2.89,2.17-33.63,4.16-52.7-1.18-1.27-.36-2.17-1.45-2.17-2.71.09-3.71.27-11.48.9-16.36.18-.99.81-1.81,1.72-2.26,2.98-1.36,9.85-4.97,12.29-11.75.72-1.45,2.17-2.26,3.62-1.9Z"/>
            <path class="cls-21" d="m124.99,132.12c.36-.9,1.54-1.08,2.26-.45,1.72,1.81,5.42,4.52,12.11,5.78,10.21,1.9,11.21.36,11.21.36,0,0,1.63.54,1.81,1.9s-.27,4.79-.72,6.51c-.54,1.72-8.14,1.9-14.19.63-5.6-1.18-10.58-3.62-14.19-7.32-.63-.63-.81-1.54-.45-2.35.54-1.36,1.45-3.34,2.17-5.06Z"/>
            <path class="cls-19" d="m169.55,98.59c0,1.81,0,6.69-1.81,11.39-1.81,4.7-4.79,17.81-10.67,22.06-5.88,4.25-18.71,3.43-24.32-7.5-5.6-10.85-3.8-22.42-.9-31.64,2.89-9.22,14.82-12.56,25.22-8.77,10.49,3.8,12.47,10.39,12.47,14.46Z"/>
            <path class="cls-17" d="m131.59,104.91s.63.72,1.54,2.62c.81,1.9,2.53.81,3.16-2.62s2.08-5.88,3.16-5.69c1.08.27,4.88.72,7.14-3.34,2.26-4.16,3.25-3.53,3.25-3.53,0,0,1.81-4.34,6.51,1.9,4.7,6.24,7.68,11.12,13.29,10.12,5.6-.99,10.58-10.12,6.33-18.89-4.34-8.77-17.63-10.85-27.57-8.23-9.94,2.62-15.1.45-21.06,5.51-5.97,5.06-4.52,10.39-4.88,16.36-.36,5.97-3.43,9.13.63,14.46,4.07,5.33,2.98,10.3,5.24,13.29,0,0,2.44-7.86,2.17-13.56-.27-5.69,1.08-8.41,1.08-8.41Z"/>
            <path class="cls-7" d="m158.43,109.89c-.18,4.79-4.07,8.59-8.68,8.59s-8.5-3.89-8.41-8.77c0-4.97,4.07-9.04,8.86-8.95,4.79.09,8.41,4.25,8.23,9.13Z"/>
            <ellipse class="cls-8" cx="166.89" cy="113.64" rx="8.14" ry="5.69" transform="translate(11.13 242.1) rotate(-73.76)"/>
            <path class="cls-7" d="m161.6,111.78s-.09-1.81-3.25-.81"/>
            <line class="cls-7" x1="142.07" y1="106" x2="131.59" y2="104.1"/>
            <path class="cls-19" d="m132.49,106.54s-.81-4.79-4.7-4.88c-3.89,0-6.24,11.84,3.43,13.47"/>
            <path class="cls-17" d="m127.16,105.37c.81-.18,1.81,0,2.44.9.27.45.36.99.36,1.54,0,.27-.09.45-.09.72,0,.18-.09.36-.09.54-.09.36-.09.63-.09.9s0,.45.18.63c.27.45.99.81,1.72,1.27-.81.18-1.72.36-2.62-.27-.45-.27-.72-.9-.81-1.36-.09-.54,0-.99.09-1.45.09-.18.09-.45.18-.63,0-.18.09-.27.09-.45.09-.27.09-.54,0-.72-.09-.63-.63-1.18-1.36-1.63Z"/>
            <path class="cls-17" d="m160.33,110.34c.09,1.08.27,2.08.63,2.98.18.45.36.81.63,1.18.18.27.72.9.81,1.54.36,1.36-.09,2.62-.72,3.53-.36.45-.72.9-1.27,1.18-.45.27-1.08.54-1.63.45.9-.63,1.36-1.45,1.72-2.35.36-.81.45-1.72.27-2.44-.09-.36-.27-.54-.63-1.18-.27-.54-.45-1.08-.54-1.72,0-1.08.18-2.26.72-3.16Z"/>
            <path class="cls-7" d="m151.29,124.71s-3.98.09-5.97-3.98"/>
            <path class="cls-17" d="m147.59,111.6h0c-.72-.18-1.18-.9-.99-1.63l.36-1.36c.18-.72.9-1.18,1.63-.99h0c.72.18,1.18.9.99,1.63l-.36,1.36c-.18.72-.9,1.18-1.63.99Z"/>
            <path class="cls-17" d="m161.96,115.31h0c-.72-.18-1.18-.9-.99-1.63l.36-1.36c.18-.72.9-1.18,1.63-.99h0c.72.18,1.18.9.99,1.63l-.36,1.36c-.18.72-.9,1.18-1.63.99Z"/>
            <path class="cls-17" d="m151.2,105.37c-.99.18-1.45-1.18-2.89-1.08-2.26.09-3.53.54-3.71-.45-.09-.72,1.63-2.08,3.8-2.17,3.16,0,4.61,3.43,2.8,3.71Z"/>
            <path class="cls-17" d="m161.96,108.08c.63.54,1.54-.45,2.44.18,1.36.81,1.81,1.54,2.26.9.36-.54,0-2.17-1.27-2.98-2.08-1.45-4.79.9-3.43,1.9Z"/>
            <path class="cls-19" d="m48.07,259.21s-1.18,2.53-1.18,4.07,1.27,15.73.9,18.53c-.45,2.8-1.27,8.32-1.81,9.13s-3.8-1.72-3.89-10.21c-.09-8.5-2.98-20.16-.54-21.51s5.78-1.08,6.51,0Z"/>
            <path class="cls-20" d="m-11.14,301.15l21.69-34.17c.99-1.54,3.07-2.08,4.7-.99l51.07,32.45c1.54.99,2.08,3.07.99,4.7l-21.69,34.17c-.99,1.54-3.07,2.08-4.7.99l-51.07-32.45c-1.54-.99-1.99-3.07-.99-4.7Z"/>
            <path class="cls-21" d="m48.79,327.27l10.85-16.99c.45-.81,1.63-.81,2.17-.09l1.72,2.26c.36.45.36.99.09,1.54l-9.76,15.37c-.27.45-.81.72-1.36.54l-2.8-.54c-.9-.27-1.36-1.27-.9-2.08Z"/>
            <path class="cls-19" d="m45.63,258.31s-.54,15.73-.63,19.07c-.09,3.25.09,9.94-.72,13.11-.81,3.16-2.17,11.12-4.61,11.66-2.44.54.18-9.76.18-11.75s-1.08-6.78-1.08-6.78c0,0-.9,4.97-1.54,7.14-.63,2.17-4.79,8.95-6.42,8.68-1.72-.27.36-5.33,1.63-8.41,1.18-2.8,1.63-8.68,1.63-8.68,0,0-1.36,3.43-2.44,5.24s-4.79,7.41-6.33,7.14c-1.63-.27.99-5.97,2.53-8.59,1.54-2.62,1.63-4.52,1.63-4.52,0,0-2.44,2.44-3.98,3.62-1.54,1.18-6.96,3.8-7.41,2.44-.36-1.36,1.99-2.8,4.25-4.88,2.26-1.99,4.7-6.24,5.24-6.96.54-.63-.99-7.05,1.45-11.3,2.44-4.25,3.89-5.97,4.52-8.86.54-2.8,11.84.54,12.11,2.62Z"/>
            <path class="cls-21" d="m102.12,136.1s-10.3-.99-22.69,14.55c-12.38,15.55-24.59,28.56-28.02,34.71-3.43,6.24-11.03,29.2-14.82,47.36-3.8,18.17-4.16,21.42-4.07,23.41.09,1.81,9.22,4.34,15.19,4.25,1.08,0,2.08-.63,2.44-1.63,2.35-5.51,10.58-24.32,13.83-31.18,3.8-8.04,8.23-19.98,8.77-20.79s25.22-25.94,29.83-32.54c4.61-6.51,9.04-17.26,8.04-26.67-1.08-10.21-6.33-11.57-8.5-11.48Z"/>
            <path class="cls-7" d="m52.68,183.28s2.8-3.89,6.33-.36c3.71,3.71,2.08,11.75-3.07,16.81-4.25,4.16-10.3,2.44-9.76-1.45"/>
            <path class="cls-7" d="m33.79,251.8c2.44,1.18,9.76,4.43,16.9,3.53"/>
            <path class="cls-20" d="m270.43,277.47l15.19-49.71c.45-1.36,1.72-2.26,3.16-2.26l89.85,2.53c1.54,0,2.53,1.45,2.17,2.89l-17.63,60.65c-.45,1.54-1.99,2.53-3.53,2.26l-87.23-13.47c-1.54-.18-2.44-1.54-1.99-2.89Z"/>
            <path class="cls-11" d="m269.61,280l-52.25,4.88,89.58,22.06c2.17.54,4.43.54,6.6,0l48.63-12.56-92.56-14.37Z"/>
            <path class="cls-20" d="m307.04,306.94l-89.58-22.06h0c0,1.72,1.18,3.16,2.8,3.62l84.42,22.42c3.53.9,7.32.9,10.85-.18l44.29-13.02c1.54-.45,2.53-1.81,2.53-3.43h0l-48.63,12.56c-2.35.63-4.61.63-6.69.09Z"/>
            <path class="cls-9" d="m329.45,236.52l-6.33,21.51c-.18.54-.72.9-1.27.9l-35.52-3.07c-.81-.09-1.27-.81-1.08-1.54l5.97-19.71c.18-.54.63-.9,1.18-.9l35.89,1.27c.81,0,1.36.81,1.18,1.54Z"/>
            <polygon class="cls-19" points="322.67 240.41 318.7 253.34 291.04 251.35 292.03 248.45 302.25 243.93 308.03 248.45 322.67 240.41"/>
            <path class="cls-10" d="m301.97,266.8l-2.62,8.14c-.18.54-.72.9-1.36.81l-17.08-2.26c-.72-.09-1.27-.81-.99-1.54l2.26-7.59c.18-.54.72-.9,1.27-.9l17.45,1.81c.81,0,1.36.72,1.08,1.54Z"/>
            <path class="cls-21" d="m328.73,269.52l-2.89,8.95c-.18.54-.72.9-1.36.81l-16.27-2.17c-.72-.09-1.27-.81-.99-1.63l2.71-8.41c.18-.54.72-.9,1.27-.81l16.45,1.63c.81.09,1.36.81,1.08,1.63Z"/>
            <path class="cls-19" d="m359.46,272.59l-3.07,9.94c-.18.54-.72.9-1.36.81l-19.61-2.62c-.72-.09-1.27-.81-.99-1.63l2.98-9.31c.18-.54.72-.9,1.27-.81l19.61,1.99c.9.09,1.45.9,1.18,1.63Z"/>
            <path class="cls-10" d="m348.89,240.86c-.63,2.71-3.43,4.79-6.15,4.61-2.62-.18-3.98-2.44-3.25-4.97.72-2.44,3.25-4.25,5.69-4.25s4.25,2.08,3.71,4.61Z"/>
            <line class="cls-4" x1="355.3" y1="237.88" x2="368.5" y2="238.33"/>
            <line class="cls-4" x1="334.7" y1="255.05" x2="362.99" y2="257.04"/>
            <line class="cls-4" x1="353.77" y1="243.21" x2="366.96" y2="243.75"/>
            <path class="cls-21" d="m426.17,108.17l-68.7,5.33c-1.72.09-3.16-1.27-3.07-3.07l2.89-39.68c.18-2.35,1.99-4.34,4.34-4.61l69.78-9.49c1.81-.27,3.34,1.27,3.25,3.07l-3.89,43.93c-.18,2.35-2.17,4.25-4.61,4.52Z"/>
            <path class="cls-11" d="m423.91,106.72l-68.7,5.33c-1.72.09-3.16-1.27-3.07-3.07l2.89-39.68c.18-2.35,1.99-4.34,4.34-4.61l69.78-9.49c1.81-.27,3.34,1.27,3.25,3.07l-3.89,43.93c-.18,2.44-2.17,4.34-4.61,4.52Z"/>
            <path class="cls-20" d="m378.17,80.15c-.18,2.71-2.53,5.15-5.15,5.42-2.62.27-4.52-1.72-4.34-4.34.18-2.71,2.44-5.15,5.06-5.42,2.71-.36,4.61,1.63,4.43,4.34Z"/>
            <path class="cls-20" d="m376.82,97.41l-9.4.9c-2.08.18-3.62-1.45-3.43-3.53h0c.36-4.79,4.43-9.13,9.13-9.67h0c4.7-.54,8.32,3.07,7.86,8.04h0c-.18,2.08-1.99,4.07-4.16,4.25Z"/>
            <line class="cls-4" x1="389.29" y1="75.27" x2="418.58" y2="71.83"/>
            <line class="cls-4" x1="388.57" y1="83.31" x2="417.85" y2="80.15"/>
            <line class="cls-4" x1="387.94" y1="91.36" x2="405.56" y2="89.64"/>
            <path class="cls-9" d="m348.25,37.66c-3.53-3.53-8.5-5.6-14.64-6.33-4.52-.54-8.5,0-12.02,1.63-4.34,1.9-7.59,5.24-10.03,10.12l-4.07,1.72,2.35,2.44,10.58,1.9c.63-2.17,1.9-4.16,3.71-6.06,1.81-1.81,4.25-2.53,7.32-2.08,3.16.45,5.15,1.63,5.97,3.53.81,1.9.9,3.98.27,6.06-.54,1.81-1.54,3.43-3.07,4.79-.9.81-1.9,1.45-3.07,1.99l-3.62,1.81c-3.53,1.72-5.88,3.34-7.05,4.97-.81,1.18-1.81,3.07-2.8,5.78l-3.62,1.18,2.35,2.44,10.85,2.98c.63-2.35,1.36-3.98,1.99-4.97.99-1.63,2.53-2.89,4.52-3.8l3.71-1.72c3.8-1.72,6.51-3.34,8.14-4.7,2.71-2.26,4.52-5.24,5.51-9.13,1.54-5.97.45-10.85-3.25-14.55Z"/>
            <path class="cls-9" d="m320.59,80.06l-.36-.09c-3.16-.9-6.51,1.08-7.41,4.52-.99,3.43.72,7.05,3.89,8.14l.36.18c3.25,1.08,6.69-.9,7.68-4.52.99-3.62-.9-7.32-4.16-8.23Z"/>
            <path class="cls-10" d="m319.33,30.52c3.53-1.54,7.5-2.08,12.02-1.63,6.15.72,11.03,2.8,14.64,6.33,3.71,3.62,4.79,8.59,3.16,14.73-.99,3.8-2.8,6.87-5.51,9.13-1.54,1.36-4.25,2.89-8.14,4.7l-3.71,1.72c-1.99.9-3.53,2.17-4.52,3.8-.63.99-1.27,2.71-1.99,4.97l-10.85-2.98c1.54-4.7,2.8-7.77,4.07-9.4,1.18-1.63,3.53-3.25,7.05-4.97l3.62-1.81c1.18-.54,2.26-1.27,3.07-1.99,1.54-1.36,2.62-2.89,3.07-4.79.54-2.17.45-4.16-.27-6.06-.72-1.9-2.8-3.07-5.97-3.53-3.07-.45-5.51.27-7.32,2.08s-3.07,3.8-3.71,6.06l-10.58-1.9c2.53-7.32,6.33-12.02,11.84-14.46Zm-1.18,48.09l.36.09c3.25.99,5.15,4.61,4.16,8.14h0c-.99,3.62-4.52,5.6-7.68,4.52l-.36-.18c-3.16-1.08-4.88-4.7-3.89-8.14h0c.99-3.34,4.25-5.33,7.41-4.43Z"/>
            <path class="cls-19" d="m73.38,86.29h34.71l3.53,2.26c1.18.72,2.62-.09,2.62-1.45v-24.5c0-2.53-1.99-4.52-4.52-4.52h-36.34c-2.53,0-4.52,1.99-4.52,4.52v19.16c0,2.53,1.99,4.52,4.52,4.52Z"/>
            <line class="cls-7" x1="103.02" y1="66.14" x2="79.88" y2="66.14"/>
            <line class="cls-7" x1="103.02" y1="72.46" x2="79.88" y2="72.46"/>
            <line class="cls-7" x1="103.02" y1="78.79" x2="89.74" y2="78.79"/>
          </g>
        </g>
      </g>
    </g>
  </g>
</svg>